<svg xmlns="http://www.w3.org/2000/svg" xmlns:xlink="http://www.w3.org/1999/xlink" width="500" zoomAndPan="magnify" viewBox="0 0 375 374.999991" height="500" preserveAspectRatio="xMidYMid meet" version="1.0"><defs><g/><clipPath id="f720510989"><rect x="0" width="373" y="0" height="185"/></clipPath><clipPath id="e875b48b26"><rect x="0" width="209" y="0" height="38"/></clipPath></defs><g transform="matrix(1, 0, 0, 1, 0, 95)"><g clip-path="url(#f720510989)"><g fill="#000000" fill-opacity="1"><g transform="translate(-3.604359, 132.727039)"><g><path d="M 119.625 0 L 81.421875 0 L 36.578125 -51.625 L 36.578125 0 L 8.84375 0 L 8.84375 -121.6875 L 36.578125 -121.6875 L 36.578125 -71.984375 L 78.328125 -121.6875 L 111.953125 -121.6875 L 62.984375 -64.015625 Z M 119.625 0 "/></g></g></g><g fill="#000000" fill-opacity="1"><g transform="translate(98.582439, 132.727039)"><g><path d="M 33.484375 -75.671875 L 33.484375 -39.671875 C 33.484375 -32.203125 34.613281 -26.894531 36.875 -23.75 C 39.132812 -20.601562 42.96875 -19.03125 48.375 -19.03125 C 53.789062 -19.03125 57.628906 -20.601562 59.890625 -23.75 C 62.148438 -26.894531 63.28125 -32.203125 63.28125 -39.671875 L 63.28125 -75.671875 L 89.390625 -75.671875 L 89.390625 -33.328125 C 89.390625 -20.742188 86.117188 -11.671875 79.578125 -6.109375 C 73.035156 -0.554688 62.632812 2.21875 48.375 2.21875 C 34.125 2.21875 23.726562 -0.554688 17.1875 -6.109375 C 10.644531 -11.671875 7.375 -20.742188 7.375 -33.328125 L 7.375 -75.671875 Z M 33.484375 -75.671875 "/></g></g></g><g fill="#000000" fill-opacity="1"><g transform="translate(181.451795, 132.727039)"><g><path d="M 14 -9.359375 C 6.925781 -17.078125 3.390625 -26.539062 3.390625 -37.75 C 3.390625 -48.96875 6.925781 -58.457031 14 -66.21875 C 21.082031 -73.988281 30.082031 -77.875 41 -77.875 C 51.03125 -77.875 59.289062 -74.726562 65.78125 -68.4375 L 65.78125 -126.84375 L 91.890625 -126.84375 L 91.890625 0 L 66.078125 0 L 66.078125 -8.5625 L 65.78125 -8.5625 C 59.289062 -1.375 51.03125 2.21875 41 2.21875 C 30.082031 2.21875 21.082031 -1.640625 14 -9.359375 Z M 36.203125 -50.59375 C 32.816406 -47.25 31.125 -42.96875 31.125 -37.75 C 31.125 -32.539062 32.742188 -28.289062 35.984375 -25 C 39.234375 -21.707031 43.515625 -20.0625 48.828125 -20.0625 C 53.941406 -20.0625 58.144531 -21.734375 61.4375 -25.078125 C 64.726562 -28.421875 66.375 -32.648438 66.375 -37.765625 C 66.375 -42.972656 64.675781 -47.25 61.28125 -50.59375 C 57.894531 -53.9375 53.742188 -55.609375 48.828125 -55.609375 C 43.804688 -55.609375 39.597656 -53.9375 36.203125 -50.59375 Z M 36.203125 -50.59375 "/></g></g></g><g fill="#000000" fill-opacity="1"><g transform="translate(268.302605, 132.727039)"><g><path d="M 8.84375 0 L 8.84375 -126.84375 L 34.953125 -126.84375 L 34.953125 0 Z M 8.84375 0 "/></g></g></g><g fill="#000000" fill-opacity="1"><g transform="translate(298.233258, 132.727039)"><g><path d="M 11.359375 -117.84375 C 14.410156 -120.894531 18.046875 -122.421875 22.265625 -122.421875 C 26.492188 -122.421875 30.132812 -120.894531 33.1875 -117.84375 C 36.238281 -114.800781 37.765625 -111.164062 37.765625 -106.9375 C 37.765625 -102.707031 36.238281 -99.066406 33.1875 -96.015625 C 30.132812 -92.972656 26.492188 -91.453125 22.265625 -91.453125 C 18.046875 -91.453125 14.410156 -92.972656 11.359375 -96.015625 C 8.304688 -99.066406 6.78125 -102.707031 6.78125 -106.9375 C 6.78125 -111.164062 8.304688 -114.800781 11.359375 -117.84375 Z M 8.84375 -75.671875 L 8.84375 0 L 34.953125 0 L 34.953125 -75.671875 Z M 8.84375 -75.671875 "/></g></g></g><g fill="#000000" fill-opacity="1"><g transform="translate(328.901242, 132.727039)"><g><path d="M 25.671875 -31.5625 C 30.390625 -31.5625 34.394531 -29.914062 37.6875 -26.625 C 40.976562 -23.332031 42.625 -19.328125 42.625 -14.609375 C 42.625 -9.984375 40.976562 -6.019531 37.6875 -2.71875 C 34.394531 0.570312 30.390625 2.21875 25.671875 2.21875 C 21.046875 2.21875 17.082031 0.570312 13.78125 -2.71875 C 10.488281 -6.019531 8.84375 -9.984375 8.84375 -14.609375 C 8.84375 -19.328125 10.488281 -23.332031 13.78125 -26.625 C 17.082031 -29.914062 21.046875 -31.5625 25.671875 -31.5625 Z M 25.671875 -31.5625 "/></g></g></g></g></g><g transform="matrix(1, 0, 0, 1, 133, 225)"><g clip-path="url(#e875b48b26)"><g fill="#000000" fill-opacity="1"><g transform="translate(1.493361, 29.107079)"><g><path d="M 19.953125 -15.828125 C 23.410156 -15.828125 25.140625 -13.664062 25.140625 -9.34375 L 25.140625 -1.421875 C 25.140625 -1.003906 25.007812 -0.660156 24.75 -0.390625 C 24.5 -0.128906 24.164062 0 23.75 0 C 23.332031 0 22.988281 -0.132812 22.71875 -0.40625 C 22.457031 -0.6875 22.328125 -1.023438 22.328125 -1.421875 L 22.328125 -9.328125 C 22.328125 -11.910156 21.238281 -13.203125 19.0625 -13.203125 C 18.289062 -13.203125 17.59375 -13.03125 16.96875 -12.6875 C 16.34375 -12.34375 15.851562 -11.875 15.5 -11.28125 C 15.15625 -10.6875 14.984375 -10.035156 14.984375 -9.328125 L 14.984375 -1.421875 C 14.984375 -1.023438 14.847656 -0.6875 14.578125 -0.40625 C 14.316406 -0.132812 13.976562 0 13.5625 0 C 13.144531 0 12.804688 -0.128906 12.546875 -0.390625 C 12.296875 -0.660156 12.171875 -1.003906 12.171875 -1.421875 L 12.171875 -9.34375 C 12.171875 -10.519531 11.921875 -11.457031 11.421875 -12.15625 C 10.929688 -12.851562 10.113281 -13.203125 8.96875 -13.203125 C 7.800781 -13.203125 6.832031 -12.832031 6.0625 -12.09375 C 5.300781 -11.351562 4.921875 -10.4375 4.921875 -9.34375 L 4.921875 -1.421875 C 4.921875 -1.023438 4.785156 -0.6875 4.515625 -0.40625 C 4.253906 -0.132812 3.914062 0 3.5 0 C 3.082031 0 2.742188 -0.128906 2.484375 -0.390625 C 2.234375 -0.660156 2.109375 -1.003906 2.109375 -1.421875 L 2.109375 -14.125 C 2.109375 -14.519531 2.238281 -14.859375 2.5 -15.140625 C 2.769531 -15.421875 3.101562 -15.5625 3.5 -15.5625 C 3.914062 -15.5625 4.253906 -15.421875 4.515625 -15.140625 C 4.785156 -14.859375 4.921875 -14.519531 4.921875 -14.125 L 4.921875 -13.09375 C 5.441406 -13.863281 6.128906 -14.507812 6.984375 -15.03125 C 7.847656 -15.5625 8.785156 -15.828125 9.796875 -15.828125 C 12.253906 -15.828125 13.847656 -14.738281 14.578125 -12.5625 C 15.015625 -13.382812 15.734375 -14.132812 16.734375 -14.8125 C 17.742188 -15.488281 18.816406 -15.828125 19.953125 -15.828125 Z M 19.953125 -15.828125 "/></g></g></g><g fill="#000000" fill-opacity="1"><g transform="translate(35.526401, 29.107079)"><g><path d="M 14.71875 -15.765625 C 15.132812 -15.765625 15.476562 -15.628906 15.75 -15.359375 C 16.019531 -15.097656 16.15625 -14.75 16.15625 -14.3125 L 16.15625 -1.421875 C 16.15625 -1.023438 16.019531 -0.6875 15.75 -0.40625 C 15.476562 -0.132812 15.132812 0 14.71875 0 C 14.300781 0 13.960938 -0.128906 13.703125 -0.390625 C 13.453125 -0.660156 13.328125 -1.003906 13.328125 -1.421875 L 13.328125 -2.203125 C 12.816406 -1.503906 12.113281 -0.910156 11.21875 -0.421875 C 10.332031 0.0546875 9.375 0.296875 8.34375 0.296875 C 7 0.296875 5.773438 -0.046875 4.671875 -0.734375 C 3.578125 -1.429688 2.71875 -2.394531 2.09375 -3.625 C 1.46875 -4.863281 1.15625 -6.257812 1.15625 -7.8125 C 1.15625 -9.351562 1.46875 -10.738281 2.09375 -11.96875 C 2.71875 -13.207031 3.570312 -14.171875 4.65625 -14.859375 C 5.75 -15.554688 6.945312 -15.90625 8.25 -15.90625 C 9.300781 -15.90625 10.273438 -15.6875 11.171875 -15.25 C 12.078125 -14.820312 12.796875 -14.269531 13.328125 -13.59375 L 13.328125 -14.3125 C 13.328125 -14.726562 13.453125 -15.070312 13.703125 -15.34375 C 13.960938 -15.625 14.300781 -15.765625 14.71875 -15.765625 Z M 8.671875 -2.3125 C 9.597656 -2.3125 10.421875 -2.546875 11.140625 -3.015625 C 11.867188 -3.492188 12.4375 -4.148438 12.84375 -4.984375 C 13.25 -5.816406 13.453125 -6.757812 13.453125 -7.8125 C 13.453125 -8.832031 13.25 -9.757812 12.84375 -10.59375 C 12.4375 -11.425781 11.867188 -12.082031 11.140625 -12.5625 C 10.421875 -13.050781 9.597656 -13.296875 8.671875 -13.296875 C 7.734375 -13.296875 6.90625 -13.054688 6.1875 -12.578125 C 5.46875 -12.109375 4.90625 -11.457031 4.5 -10.625 C 4.09375 -9.789062 3.890625 -8.851562 3.890625 -7.8125 C 3.890625 -6.757812 4.09375 -5.816406 4.5 -4.984375 C 4.90625 -4.148438 5.46875 -3.492188 6.1875 -3.015625 C 6.90625 -2.546875 7.734375 -2.3125 8.671875 -2.3125 Z M 8.671875 -2.3125 "/></g></g></g><g fill="#000000" fill-opacity="1"><g transform="translate(60.540472, 29.107079)"><g><path d="M 9.859375 -15.90625 C 10.367188 -15.90625 10.8125 -15.769531 11.1875 -15.5 C 11.5625 -15.238281 11.75 -14.910156 11.75 -14.515625 C 11.75 -14.035156 11.625 -13.671875 11.375 -13.421875 C 11.132812 -13.179688 10.835938 -13.0625 10.484375 -13.0625 C 10.304688 -13.0625 10.035156 -13.117188 9.671875 -13.234375 C 9.253906 -13.378906 8.929688 -13.453125 8.703125 -13.453125 C 8.085938 -13.453125 7.488281 -13.238281 6.90625 -12.8125 C 6.320312 -12.382812 5.84375 -11.796875 5.46875 -11.046875 C 5.101562 -10.304688 4.921875 -9.484375 4.921875 -8.578125 L 4.921875 -1.421875 C 4.921875 -1.023438 4.785156 -0.6875 4.515625 -0.40625 C 4.253906 -0.132812 3.914062 0 3.5 0 C 3.082031 0 2.742188 -0.128906 2.484375 -0.390625 C 2.234375 -0.660156 2.109375 -1.003906 2.109375 -1.421875 L 2.109375 -14.125 C 2.109375 -14.519531 2.238281 -14.859375 2.5 -15.140625 C 2.769531 -15.421875 3.101562 -15.5625 3.5 -15.5625 C 3.914062 -15.5625 4.253906 -15.421875 4.515625 -15.140625 C 4.785156 -14.859375 4.921875 -14.519531 4.921875 -14.125 L 4.921875 -12.609375 C 5.359375 -13.585938 6.007812 -14.375 6.875 -14.96875 C 7.75 -15.570312 8.742188 -15.882812 9.859375 -15.90625 Z M 9.859375 -15.90625 "/></g></g></g><g fill="#000000" fill-opacity="1"><g transform="translate(79.591326, 29.107079)"><g><path d="M 14.8125 -2.46875 C 15.113281 -2.144531 15.265625 -1.796875 15.265625 -1.421875 C 15.265625 -1.023438 15.109375 -0.691406 14.796875 -0.421875 C 14.492188 -0.160156 14.171875 -0.03125 13.828125 -0.03125 C 13.398438 -0.03125 13.054688 -0.1875 12.796875 -0.5 L 6.953125 -6.703125 L 5.171875 -5.109375 L 5.171875 -1.421875 C 5.171875 -1.023438 5.035156 -0.6875 4.765625 -0.40625 C 4.492188 -0.132812 4.160156 0 3.765625 0 C 3.347656 0 3.003906 -0.132812 2.734375 -0.40625 C 2.472656 -0.6875 2.34375 -1.023438 2.34375 -1.421875 L 2.34375 -20.546875 C 2.34375 -20.941406 2.472656 -21.273438 2.734375 -21.546875 C 3.003906 -21.828125 3.347656 -21.96875 3.765625 -21.96875 C 4.160156 -21.96875 4.492188 -21.828125 4.765625 -21.546875 C 5.035156 -21.273438 5.171875 -20.941406 5.171875 -20.546875 L 5.171875 -8.484375 L 12.4375 -15.171875 C 12.769531 -15.460938 13.117188 -15.609375 13.484375 -15.609375 C 13.816406 -15.609375 14.117188 -15.460938 14.390625 -15.171875 C 14.671875 -14.890625 14.8125 -14.59375 14.8125 -14.28125 C 14.8125 -13.882812 14.625 -13.523438 14.25 -13.203125 L 9.109375 -8.640625 Z M 14.8125 -2.46875 "/></g></g></g><g fill="#000000" fill-opacity="1"><g transform="translate(102.854986, 29.107079)"><g><path d="M 15.765625 -8.375 C 15.742188 -8.019531 15.59375 -7.71875 15.3125 -7.46875 C 15.039062 -7.21875 14.71875 -7.09375 14.34375 -7.09375 L 3.890625 -7.09375 C 4.023438 -5.644531 4.570312 -4.484375 5.53125 -3.609375 C 6.488281 -2.742188 7.660156 -2.3125 9.046875 -2.3125 C 10.003906 -2.3125 10.78125 -2.445312 11.375 -2.71875 C 11.96875 -3 12.488281 -3.359375 12.9375 -3.796875 C 13.238281 -3.972656 13.523438 -4.0625 13.796875 -4.0625 C 14.140625 -4.0625 14.421875 -3.941406 14.640625 -3.703125 C 14.867188 -3.472656 14.984375 -3.195312 14.984375 -2.875 C 14.984375 -2.457031 14.785156 -2.082031 14.390625 -1.75 C 13.816406 -1.175781 13.054688 -0.691406 12.109375 -0.296875 C 11.160156 0.0976562 10.191406 0.296875 9.203125 0.296875 C 7.597656 0.296875 6.1875 -0.0351562 4.96875 -0.703125 C 3.75 -1.378906 2.804688 -2.320312 2.140625 -3.53125 C 1.484375 -4.738281 1.15625 -6.101562 1.15625 -7.625 C 1.15625 -9.289062 1.492188 -10.75 2.171875 -12 C 2.859375 -13.257812 3.757812 -14.222656 4.875 -14.890625 C 6 -15.566406 7.203125 -15.90625 8.484375 -15.90625 C 9.753906 -15.90625 10.941406 -15.578125 12.046875 -14.921875 C 13.160156 -14.273438 14.050781 -13.378906 14.71875 -12.234375 C 15.394531 -11.085938 15.742188 -9.800781 15.765625 -8.375 Z M 8.484375 -13.296875 C 7.378906 -13.296875 6.421875 -12.984375 5.609375 -12.359375 C 4.796875 -11.734375 4.257812 -10.769531 4 -9.46875 L 12.765625 -9.46875 L 12.765625 -9.703125 C 12.660156 -10.753906 12.1875 -11.613281 11.34375 -12.28125 C 10.507812 -12.957031 9.554688 -13.296875 8.484375 -13.296875 Z M 8.484375 -13.296875 "/></g></g></g><g fill="#000000" fill-opacity="1"><g transform="translate(126.563649, 29.107079)"><g><path d="M 6.328125 -12.796875 L 6.328125 -3.953125 C 6.328125 -2.960938 6.769531 -2.46875 7.65625 -2.46875 C 7.789062 -2.46875 7.976562 -2.5 8.21875 -2.5625 C 8.457031 -2.632812 8.644531 -2.671875 8.78125 -2.671875 C 9.039062 -2.671875 9.257812 -2.5625 9.4375 -2.34375 C 9.613281 -2.125 9.703125 -1.847656 9.703125 -1.515625 C 9.703125 -1.097656 9.460938 -0.738281 8.984375 -0.4375 C 8.515625 -0.144531 7.984375 0 7.390625 0 C 6.734375 0 6.132812 -0.0664062 5.59375 -0.203125 C 5.050781 -0.347656 4.566406 -0.703125 4.140625 -1.265625 C 3.710938 -1.828125 3.5 -2.679688 3.5 -3.828125 L 3.5 -12.796875 L 1.78125 -12.796875 C 1.40625 -12.796875 1.09375 -12.914062 0.84375 -13.15625 C 0.59375 -13.40625 0.46875 -13.71875 0.46875 -14.09375 C 0.46875 -14.476562 0.59375 -14.785156 0.84375 -15.015625 C 1.09375 -15.253906 1.40625 -15.375 1.78125 -15.375 L 3.5 -15.375 L 3.5 -17.875 C 3.5 -18.269531 3.628906 -18.601562 3.890625 -18.875 C 4.160156 -19.15625 4.503906 -19.296875 4.921875 -19.296875 C 5.316406 -19.296875 5.648438 -19.15625 5.921875 -18.875 C 6.191406 -18.601562 6.328125 -18.269531 6.328125 -17.875 L 6.328125 -15.375 L 8.78125 -15.375 C 9.15625 -15.375 9.46875 -15.25 9.71875 -15 C 9.96875 -14.757812 10.09375 -14.453125 10.09375 -14.078125 C 10.09375 -13.691406 9.96875 -13.378906 9.71875 -13.140625 C 9.46875 -12.910156 9.15625 -12.796875 8.78125 -12.796875 Z M 6.328125 -12.796875 "/></g></g></g><g fill="#000000" fill-opacity="1"><g transform="translate(144.635472, 29.107079)"><g><path d="M 4.78125 -1.421875 C 4.78125 -1.023438 4.644531 -0.6875 4.375 -0.40625 C 4.113281 -0.132812 3.773438 0 3.359375 0 C 2.960938 0 2.628906 -0.132812 2.359375 -0.40625 C 2.085938 -0.6875 1.953125 -1.023438 1.953125 -1.421875 L 1.953125 -14.28125 C 1.953125 -14.675781 2.085938 -15.007812 2.359375 -15.28125 C 2.628906 -15.5625 2.960938 -15.703125 3.359375 -15.703125 C 3.773438 -15.703125 4.113281 -15.5625 4.375 -15.28125 C 4.644531 -15.007812 4.78125 -14.675781 4.78125 -14.28125 Z M 3.34375 -17.65625 C 2.769531 -17.65625 2.359375 -17.757812 2.109375 -17.96875 C 1.867188 -18.175781 1.75 -18.507812 1.75 -18.96875 L 1.75 -19.4375 C 1.75 -19.914062 1.878906 -20.253906 2.140625 -20.453125 C 2.410156 -20.648438 2.820312 -20.75 3.375 -20.75 C 3.9375 -20.75 4.335938 -20.644531 4.578125 -20.4375 C 4.828125 -20.226562 4.953125 -19.894531 4.953125 -19.4375 L 4.953125 -18.96875 C 4.953125 -18.488281 4.820312 -18.148438 4.5625 -17.953125 C 4.3125 -17.753906 3.90625 -17.65625 3.34375 -17.65625 Z M 3.34375 -17.65625 "/></g></g></g><g fill="#000000" fill-opacity="1"><g transform="translate(158.168112, 29.107079)"><g><path d="M 10.03125 -15.90625 C 13.59375 -15.90625 15.375 -13.769531 15.375 -9.5 L 15.375 -1.421875 C 15.375 -1.023438 15.238281 -0.6875 14.96875 -0.40625 C 14.707031 -0.132812 14.367188 0 13.953125 0 C 13.554688 0 13.222656 -0.132812 12.953125 -0.40625 C 12.691406 -0.6875 12.5625 -1.023438 12.5625 -1.421875 L 12.5625 -9.46875 C 12.5625 -10.632812 12.289062 -11.5625 11.75 -12.25 C 11.21875 -12.945312 10.347656 -13.296875 9.140625 -13.296875 C 8.347656 -13.296875 7.628906 -13.125 6.984375 -12.78125 C 6.347656 -12.4375 5.84375 -11.972656 5.46875 -11.390625 C 5.101562 -10.804688 4.921875 -10.164062 4.921875 -9.46875 L 4.921875 -1.421875 C 4.921875 -1.023438 4.785156 -0.6875 4.515625 -0.40625 C 4.253906 -0.132812 3.914062 0 3.5 0 C 3.082031 0 2.742188 -0.128906 2.484375 -0.390625 C 2.234375 -0.660156 2.109375 -1.003906 2.109375 -1.421875 L 2.109375 -14.125 C 2.109375 -14.519531 2.238281 -14.859375 2.5 -15.140625 C 2.769531 -15.421875 3.101562 -15.5625 3.5 -15.5625 C 3.914062 -15.5625 4.253906 -15.421875 4.515625 -15.140625 C 4.785156 -14.859375 4.921875 -14.519531 4.921875 -14.125 L 4.921875 -13.09375 C 5.441406 -13.882812 6.160156 -14.550781 7.078125 -15.09375 C 7.992188 -15.632812 8.976562 -15.90625 10.03125 -15.90625 Z M 10.03125 -15.90625 "/></g></g></g><g fill="#000000" fill-opacity="1"><g transform="translate(182.440468, 29.107079)"><g><path d="M 15.109375 -15.765625 C 15.523438 -15.765625 15.863281 -15.628906 16.125 -15.359375 C 16.394531 -15.097656 16.53125 -14.75 16.53125 -14.3125 L 16.53125 -1.25 C 16.53125 0.351562 16.1875 1.691406 15.5 2.765625 C 14.820312 3.847656 13.898438 4.644531 12.734375 5.15625 C 11.566406 5.675781 10.25 5.9375 8.78125 5.9375 C 7.988281 5.9375 7.0625 5.796875 6 5.515625 C 4.945312 5.242188 4.273438 4.957031 3.984375 4.65625 C 3.367188 4.34375 3.0625 3.945312 3.0625 3.46875 C 3.0625 3.351562 3.097656 3.195312 3.171875 3 C 3.390625 2.5 3.757812 2.25 4.28125 2.25 C 4.53125 2.25 4.804688 2.3125 5.109375 2.4375 C 6.691406 3.050781 7.925781 3.359375 8.8125 3.359375 C 10.394531 3.359375 11.609375 2.972656 12.453125 2.203125 C 13.296875 1.441406 13.71875 0.398438 13.71875 -0.921875 L 13.71875 -2.515625 C 13.300781 -1.742188 12.601562 -1.082031 11.625 -0.53125 C 10.644531 0.0195312 9.609375 0.296875 8.515625 0.296875 C 7.148438 0.296875 5.90625 -0.046875 4.78125 -0.734375 C 3.65625 -1.429688 2.769531 -2.394531 2.125 -3.625 C 1.476562 -4.863281 1.15625 -6.257812 1.15625 -7.8125 C 1.15625 -9.351562 1.476562 -10.738281 2.125 -11.96875 C 2.769531 -13.207031 3.648438 -14.171875 4.765625 -14.859375 C 5.878906 -15.554688 7.109375 -15.90625 8.453125 -15.90625 C 9.546875 -15.90625 10.5625 -15.65625 11.5 -15.15625 C 12.4375 -14.664062 13.175781 -14.066406 13.71875 -13.359375 L 13.71875 -14.3125 C 13.71875 -14.726562 13.84375 -15.070312 14.09375 -15.34375 C 14.351562 -15.625 14.691406 -15.765625 15.109375 -15.765625 Z M 8.84375 -2.3125 C 9.8125 -2.3125 10.671875 -2.539062 11.421875 -3 C 12.179688 -3.46875 12.769531 -4.125 13.1875 -4.96875 C 13.613281 -5.8125 13.828125 -6.757812 13.828125 -7.8125 C 13.828125 -8.851562 13.613281 -9.789062 13.1875 -10.625 C 12.769531 -11.457031 12.179688 -12.109375 11.421875 -12.578125 C 10.671875 -13.054688 9.8125 -13.296875 8.84375 -13.296875 C 7.894531 -13.296875 7.046875 -13.054688 6.296875 -12.578125 C 5.546875 -12.109375 4.957031 -11.453125 4.53125 -10.609375 C 4.101562 -9.765625 3.890625 -8.832031 3.890625 -7.8125 C 3.890625 -6.78125 4.101562 -5.84375 4.53125 -5 C 4.957031 -4.15625 5.546875 -3.492188 6.296875 -3.015625 C 7.046875 -2.546875 7.894531 -2.3125 8.84375 -2.3125 Z M 8.84375 -2.3125 "/></g></g></g></g></g></svg>