<svg xmlns="http://www.w3.org/2000/svg" xmlns:xlink="http://www.w3.org/1999/xlink" width="500" zoomAndPan="magnify" viewBox="0 0 375 374.999991" height="500" preserveAspectRatio="xMidYMid meet" version="1.0"><defs><g/><clipPath id="b7af6561cd"><path d="M 293.15625 138.976562 L 339.640625 138.976562 L 339.640625 232.8125 L 293.15625 232.8125 Z M 293.15625 138.976562 " clip-rule="nonzero"/></clipPath><clipPath id="48a17dab19"><path d="M 0.15625 0.976562 L 46.640625 0.976562 L 46.640625 94.8125 L 0.15625 94.8125 Z M 0.15625 0.976562 " clip-rule="nonzero"/></clipPath><clipPath id="7601d24bc5"><rect x="0" width="47" y="0" height="95"/></clipPath><clipPath id="670f238467"><rect x="0" width="165" y="0" height="217"/></clipPath><clipPath id="d659efcc7e"><path d="M 10 0.078125 L 44 0.078125 L 44 19 L 10 19 Z M 10 0.078125 " clip-rule="nonzero"/></clipPath><clipPath id="4320cf142c"><rect x="0" width="58" y="0" height="76"/></clipPath><clipPath id="4d44f4fb2b"><rect x="0" width="254" y="0" height="161"/></clipPath><clipPath id="985038a8d2"><path d="M 145.148438 200.15625 L 166 200.15625 L 166 233.90625 L 145.148438 233.90625 Z M 145.148438 200.15625 " clip-rule="nonzero"/></clipPath><clipPath id="06e329fa0d"><path d="M 261 117 L 304 117 L 304 156 L 261 156 Z M 261 117 " clip-rule="nonzero"/></clipPath><clipPath id="9ad779c5ca"><path d="M 261.882812 136.753906 L 273.820312 117.996094 L 303.507812 136.890625 L 291.574219 155.648438 Z M 261.882812 136.753906 " clip-rule="nonzero"/></clipPath><clipPath id="422dc91d2a"><path d="M 0.839844 0.839844 L 42.601562 0.839844 L 42.601562 38.761719 L 0.839844 38.761719 Z M 0.839844 0.839844 " clip-rule="nonzero"/></clipPath><clipPath id="97e670a40f"><path d="M 0.882812 19.753906 L 12.820312 0.996094 L 42.507812 19.890625 L 30.574219 38.648438 Z M 0.882812 19.753906 " clip-rule="nonzero"/></clipPath><clipPath id="8ef72d516c"><rect x="0" width="43" y="0" height="39"/></clipPath><clipPath id="e08e854dab"><path d="M 235 216 L 261 216 L 261 237 L 235 237 Z M 235 216 " clip-rule="nonzero"/></clipPath><clipPath id="79e495b8a5"><path d="M 262.4375 223.160156 L 256.609375 242.417969 L 235.171875 235.925781 L 241 216.671875 Z M 262.4375 223.160156 " clip-rule="nonzero"/></clipPath><clipPath id="8fd848cc13"><path d="M 260.636719 229.109375 L 258.410156 236.46875 L 235.203125 235.9375 L 241.03125 216.679688 Z M 260.636719 229.109375 " clip-rule="nonzero"/></clipPath><clipPath id="0719df6c1d"><path d="M 0.199219 0.480469 L 25.640625 0.480469 L 25.640625 20.640625 L 0.199219 20.640625 Z M 0.199219 0.480469 " clip-rule="nonzero"/></clipPath><clipPath id="ddb052f614"><path d="M 27.4375 7.160156 L 21.609375 26.417969 L 0.171875 19.925781 L 6 0.671875 Z M 27.4375 7.160156 " clip-rule="nonzero"/></clipPath><clipPath id="ca93c4b513"><path d="M 25.636719 13.109375 L 23.410156 20.46875 L 0.203125 19.9375 L 6.03125 0.679688 Z M 25.636719 13.109375 " clip-rule="nonzero"/></clipPath><clipPath id="6a593550a2"><rect x="0" width="26" y="0" height="21"/></clipPath><clipPath id="10725dc5dc"><path d="M 150.914062 199.488281 L 156.914062 199.488281 L 156.914062 206.238281 L 150.914062 206.238281 Z M 150.914062 199.488281 " clip-rule="nonzero"/></clipPath><clipPath id="bd519201b7"><path d="M 150.914062 199.488281 L 156.914062 199.488281 L 156.914062 205 L 150.914062 205 Z M 150.914062 199.488281 " clip-rule="nonzero"/></clipPath><clipPath id="28a6f058db"><path d="M 234 164 L 268 164 L 268 222 L 234 222 Z M 234 164 " clip-rule="nonzero"/></clipPath><clipPath id="a62a03e2c6"><path d="M 265.585938 164.054688 L 268.683594 219.878906 L 235.90625 221.695312 L 232.8125 165.875 Z M 265.585938 164.054688 " clip-rule="nonzero"/></clipPath><clipPath id="69e7e5bdff"><path d="M 267.3125 195.136719 L 265.585938 164.054688 L 234.179688 190.574219 L 235.90625 221.652344 Z M 267.3125 195.136719 " clip-rule="nonzero"/></clipPath><clipPath id="9f22e88dfc"><path d="M 0 0 L 33.359375 0 L 33.359375 57.761719 L 0 57.761719 Z M 0 0 " clip-rule="nonzero"/></clipPath><clipPath id="079527be9a"><path d="M 31.585938 0.0546875 L 34.683594 55.878906 L 1.90625 57.695312 L -1.1875 1.875 Z M 31.585938 0.0546875 " clip-rule="nonzero"/></clipPath><clipPath id="9ea523b222"><path d="M 33.3125 31.136719 L 31.585938 0.0546875 L 0.179688 26.574219 L 1.90625 57.652344 Z M 33.3125 31.136719 " clip-rule="nonzero"/></clipPath><clipPath id="20587a13af"><rect x="0" width="34" y="0" height="58"/></clipPath><clipPath id="4039fa7ec4"><path d="M 235.210938 216.679688 L 239.707031 216.679688 L 239.707031 232.558594 L 235.210938 232.558594 Z M 235.210938 216.679688 " clip-rule="nonzero"/></clipPath><clipPath id="4c482e3b48"><path d="M 0.210938 0.679688 L 4.707031 0.679688 L 4.707031 16.558594 L 0.210938 16.558594 Z M 0.210938 0.679688 " clip-rule="nonzero"/></clipPath><clipPath id="70af058cf5"><rect x="0" width="5" y="0" height="17"/></clipPath><clipPath id="729dac98fa"><path d="M 0.441406 2 L 5 2 L 5 11 L 0.441406 11 Z M 0.441406 2 " clip-rule="nonzero"/></clipPath><clipPath id="bc5cf9df7a"><rect x="0" width="77" y="0" height="15"/></clipPath></defs><rect x="-37.5" width="450" fill="#ffffff" y="-37.499999" height="449.999989" fill-opacity="1"/><rect x="-37.5" width="450" fill="#000000" y="-37.499999" height="449.999989" fill-opacity="1"/><g clip-path="url(#b7af6561cd)"><g transform="matrix(1, 0, 0, 1, 293, 138)"><g clip-path="url(#7601d24bc5)"><g clip-path="url(#48a17dab19)"><path fill="#e6e6dd" d="M 0.15625 0.976562 L 46.640625 0.976562 L 46.640625 94.851562 L 0.15625 94.851562 Z M 0.15625 0.976562 " fill-opacity="1" fill-rule="nonzero"/></g></g></g></g><g transform="matrix(1, 0, 0, 1, 178, 78)"><g clip-path="url(#670f238467)"><g fill="#38b6ff" fill-opacity="1"><g transform="translate(26.393995, 143.76149)"><g><path d="M 1.984375 1.203125 L 13.8125 -18.25 L 79.578125 -71.3125 L 57.5 -84.734375 L 69.484375 -104.421875 L 114.234375 -77.203125 L 102.859375 -58.515625 L 36.03125 -5.0625 L 59.96875 9.5 L 48 29.1875 Z M 1.984375 1.203125 "/></g></g></g></g></g><g transform="matrix(1, 0, 0, 1, 287, 148)"><g clip-path="url(#4320cf142c)"><g fill="#000000" fill-opacity="1"><g transform="translate(43.967835, 75.438853)"><g><path d="M -33.265625 -1.46875 L -33.265625 -10.5 C -33.265625 -12.925781 -32.671875 -14.6875 -31.484375 -15.78125 C -30.296875 -16.882812 -28.363281 -17.4375 -25.6875 -17.4375 L -24.203125 -17.4375 C -21.023438 -17.4375 -19.128906 -16.296875 -18.515625 -14.015625 C -18.148438 -15.410156 -17.304688 -16.390625 -15.984375 -16.953125 C -14.671875 -17.523438 -12.929688 -17.8125 -10.765625 -17.8125 C -7.234375 -17.8125 -4.554688 -17.28125 -2.734375 -16.21875 C -0.910156 -15.164062 0 -13.257812 0 -10.5 L 0 -1.46875 Z M -20.765625 -9.328125 C -20.765625 -9.898438 -20.976562 -10.289062 -21.40625 -10.5 C -21.832031 -10.707031 -22.429688 -10.8125 -23.203125 -10.8125 L -26.53125 -10.8125 C -27.613281 -10.8125 -28.15625 -10.332031 -28.15625 -9.375 L -28.15625 -7.984375 L -20.765625 -7.984375 Z M -5.84375 -8.640625 C -5.84375 -10.367188 -6.671875 -11.234375 -8.328125 -11.234375 L -12.46875 -11.234375 C -13.476562 -11.234375 -14.238281 -11.082031 -14.75 -10.78125 C -15.269531 -10.488281 -15.53125 -9.96875 -15.53125 -9.21875 L -15.53125 -7.984375 L -5.890625 -7.984375 Z M -5.84375 -8.640625 "/></g></g></g><g fill="#000000" fill-opacity="1"><g transform="translate(43.967835, 56.889742)"><g><path d="M -33.265625 -1.46875 L -33.265625 -11.703125 C -33.265625 -13.328125 -32.894531 -14.582031 -32.15625 -15.46875 C -31.425781 -16.363281 -30.394531 -16.960938 -29.0625 -17.265625 C -27.738281 -17.578125 -26.046875 -17.734375 -23.984375 -17.734375 C -22.097656 -17.734375 -20.625 -17.488281 -19.5625 -17 C -18.5 -16.507812 -17.765625 -15.660156 -17.359375 -14.453125 C -17.148438 -15.453125 -16.644531 -16.175781 -15.84375 -16.625 C -15.039062 -17.082031 -13.957031 -17.3125 -12.59375 -17.3125 L 0 -17.234375 L 0 -10.734375 L -13.015625 -10.734375 C -13.941406 -10.734375 -14.535156 -10.550781 -14.796875 -10.1875 C -15.054688 -9.820312 -15.1875 -9.164062 -15.1875 -8.21875 L 0 -8.21875 L 0 -1.46875 Z M -20.953125 -9.84375 C -20.953125 -10.769531 -21.960938 -11.234375 -23.984375 -11.234375 C -24.859375 -11.234375 -25.515625 -11.191406 -25.953125 -11.109375 C -26.390625 -11.035156 -26.691406 -10.894531 -26.859375 -10.6875 C -27.023438 -10.476562 -27.109375 -10.179688 -27.109375 -9.796875 L -27.109375 -8.25 L -20.953125 -8.25 Z M -20.953125 -9.84375 "/></g></g></g><g fill="#000000" fill-opacity="1"><g transform="translate(43.967835, 38.418082)"><g><path d="M 0 -1.46875 L -33.265625 -1.46875 L -33.265625 -8.328125 L -17.359375 -11.390625 L -33.265625 -11.390625 L -33.265625 -17.8125 L 0 -17.8125 L 0 -11.3125 L -16.65625 -7.984375 L 0 -7.984375 Z M 0 -1.46875 "/></g></g></g><g clip-path="url(#d659efcc7e)"><g fill="#000000" fill-opacity="1"><g transform="translate(43.967835, 19.133205)"><g><path d="M 0 -0.578125 L -33.265625 -3.796875 L -33.265625 -15.0625 L 0 -18.25 L 0 -11.9375 L -5.390625 -11.46875 L -5.390625 -7.4375 L 0 -7.046875 Z M -10.6875 -7.9375 L -10.6875 -10.96875 L -27.625 -9.484375 L -27.625 -9.1875 Z M -10.6875 -7.9375 "/></g></g></g></g></g></g><g transform="matrix(1, 0, 0, 1, 39, 108)"><g clip-path="url(#4d44f4fb2b)"><g fill="#e6e6dd" fill-opacity="1"><g transform="translate(0.99876, 124.913348)"><g><path d="M 4.125 0 L 4.125 -93.203125 L 22.5625 -93.203125 L 22.5625 -55.875 L 31.25 -93.203125 L 50.015625 -93.203125 L 39.609375 -50.5625 L 52.1875 0 L 32.875 0 L 22.671875 -45.140625 L 22.671875 0 Z M 4.125 0 "/></g></g></g><g fill="#e6e6dd" fill-opacity="1"><g transform="translate(52.212385, 124.913348)"><g><path d="M 25.71875 0.875 C 18.050781 0.875 12.351562 -1.296875 8.625 -5.640625 C 4.894531 -9.984375 3.03125 -16.421875 3.03125 -24.953125 L 3.03125 -93.203125 L 21.15625 -93.203125 L 21.15625 -25.71875 C 21.15625 -22.75 21.441406 -20.429688 22.015625 -18.765625 C 22.597656 -17.109375 23.832031 -16.28125 25.71875 -16.28125 C 27.59375 -16.28125 28.816406 -17.09375 29.390625 -18.71875 C 29.972656 -20.34375 30.265625 -22.675781 30.265625 -25.71875 L 30.265625 -93.203125 L 48.390625 -93.203125 L 48.390625 -24.953125 C 48.390625 -16.421875 46.523438 -9.984375 42.796875 -5.640625 C 39.078125 -1.296875 33.382812 0.875 25.71875 0.875 Z M 25.71875 0.875 "/></g></g></g><g fill="#e6e6dd" fill-opacity="1"><g transform="translate(103.643018, 124.913348)"><g><path d="M 4.125 -93.203125 L 29.84375 -93.203125 C 36.488281 -93.203125 41.472656 -91.359375 44.796875 -87.671875 C 48.128906 -83.984375 49.832031 -78.519531 49.90625 -71.28125 L 50.125 -27.671875 C 50.195312 -18.484375 48.601562 -11.570312 45.34375 -6.9375 C 42.09375 -2.3125 36.707031 0 29.1875 0 L 4.125 0 Z M 26.15625 -16.484375 C 29.550781 -16.484375 31.25 -18.148438 31.25 -21.484375 L 31.25 -69.546875 C 31.25 -71.640625 31.082031 -73.210938 30.75 -74.265625 C 30.425781 -75.316406 29.832031 -76.019531 28.96875 -76.375 C 28.101562 -76.738281 26.765625 -76.921875 24.953125 -76.921875 L 22.890625 -76.921875 L 22.890625 -16.484375 Z M 26.15625 -16.484375 "/></g></g></g><g fill="#e6e6dd" fill-opacity="1"><g transform="translate(157.135214, 124.913348)"><g><path d="M 4.125 0 L 4.125 -93.203125 L 22.78125 -93.203125 L 22.78125 -15.84375 L 41.984375 -15.84375 L 41.984375 0 Z M 4.125 0 "/></g></g><g transform="translate(200.211069, 124.913348)"><g><path d="M 1.625 0 L 10.640625 -93.203125 L 42.203125 -93.203125 L 51.109375 0 L 33.421875 0 L 32.109375 -15.078125 L 20.828125 -15.078125 L 19.75 0 Z M 22.25 -29.953125 L 30.703125 -29.953125 L 26.578125 -77.359375 L 25.71875 -77.359375 Z M 22.25 -29.953125 "/></g></g></g></g></g><g clip-path="url(#985038a8d2)"><path fill="#000000" d="M 154 219.832031 C 154 219.832031 154.585938 219.835938 155.15625 219.863281 C 155.730469 219.894531 156.8125 219.878906 156.8125 219.878906 C 156.8125 219.878906 156.644531 220.140625 156.585938 220.34375 C 156.53125 220.546875 156.558594 220.675781 156.542969 220.894531 C 156.53125 221.109375 156.371094 221.285156 156.210938 221.589844 C 156.050781 221.894531 156.019531 222.5625 156.019531 222.632812 C 156.019531 222.707031 156.050781 222.851562 155.976562 222.867188 C 155.902344 222.882812 155.628906 223.652344 155.628906 223.652344 L 154.949219 222.839844 C 154.949219 222.839844 154.558594 222.171875 154.367188 221.9375 C 154.179688 221.703125 154.046875 221.386719 154.046875 221.386719 L 154.003906 219.992188 Z M 165.324219 211.730469 L 165.316406 211.703125 L 165.332031 211.703125 C 165.335938 211.703125 165.335938 211.6875 165.335938 211.675781 L 165.332031 211.652344 C 165.328125 211.640625 165.324219 211.632812 165.320312 211.632812 C 165.320312 211.632812 165.320312 211.632812 165.320312 211.636719 L 165.304688 211.636719 C 165.304688 211.636719 165.304688 211.632812 165.304688 211.632812 L 165.292969 211.570312 L 165.644531 211.511719 C 165.644531 211.511719 165.632812 211.417969 165.671875 211.230469 C 165.707031 211.042969 165.882812 210.921875 165.882812 210.921875 C 165.882812 210.921875 165.960938 210.859375 165.9375 210.726562 C 165.9375 210.726562 165.9375 210.722656 165.9375 210.722656 C 165.914062 210.59375 165.816406 210.5625 165.816406 210.5625 C 165.816406 210.5625 165.609375 210.515625 165.507812 210.355469 C 165.402344 210.191406 165.378906 210.101562 165.378906 210.101562 L 165.035156 210.171875 L 165.023438 210.097656 C 165.023438 210.097656 165.023438 210.09375 165.023438 210.09375 L 165.035156 210.09375 C 165.039062 210.09375 165.039062 210.097656 165.039062 210.09375 C 165.042969 210.09375 165.042969 210.082031 165.042969 210.070312 L 165.039062 210.046875 C 165.035156 210.035156 165.03125 210.023438 165.027344 210.023438 L 165.011719 210.027344 L 165.007812 210 C 165.003906 209.972656 164.984375 209.953125 164.96875 209.957031 C 164.953125 209.960938 164.945312 209.984375 164.949219 210.011719 L 164.957031 210.039062 L 164.753906 210.074219 C 164.757812 210 164.722656 209.945312 164.664062 209.933594 C 164.648438 209.933594 164.632812 209.933594 164.613281 209.9375 C 164.578125 209.941406 164.53125 209.972656 164.496094 210.023438 C 164.480469 210.046875 164.464844 210.074219 164.457031 210.105469 C 164.457031 210.109375 164.457031 210.109375 164.453125 210.109375 C 164.449219 210.121094 164.445312 210.132812 164.445312 210.144531 C 164.445312 210.144531 164.445312 210.144531 164.445312 210.148438 C 164.445312 210.148438 164.445312 210.152344 164.441406 210.15625 C 164.433594 210.203125 164.4375 210.25 164.457031 210.28125 C 164.460938 210.285156 164.464844 210.292969 164.46875 210.296875 L 164.390625 210.3125 L 164.375 210.222656 C 164.375 210.21875 164.375 210.21875 164.375 210.21875 L 164.390625 210.214844 C 164.390625 210.21875 164.390625 210.21875 164.394531 210.21875 C 164.398438 210.21875 164.398438 210.207031 164.394531 210.195312 L 164.390625 210.171875 C 164.390625 210.160156 164.386719 210.148438 164.382812 210.148438 L 164.363281 210.152344 L 164.355469 210.117188 C 164.351562 210.09375 164.332031 210.070312 164.316406 210.074219 C 164.300781 210.078125 164.292969 210.101562 164.296875 210.128906 L 164.304688 210.15625 L 164.097656 210.195312 C 164.097656 210.195312 164.097656 210.195312 164.09375 210.195312 L 164.070312 210.199219 C 164.066406 210.199219 164.0625 210.203125 164.0625 210.203125 C 164.042969 210.15625 164.011719 210.109375 163.976562 210.074219 C 163.902344 210.003906 163.824219 210.023438 163.808594 210.121094 C 163.804688 210.140625 163.804688 210.164062 163.804688 210.1875 C 163.804688 210.214844 163.8125 210.242188 163.820312 210.277344 L 163.664062 210.308594 C 163.667969 210.230469 163.632812 210.175781 163.574219 210.164062 C 163.558594 210.164062 163.539062 210.164062 163.523438 210.167969 C 163.488281 210.171875 163.441406 210.203125 163.40625 210.253906 C 163.390625 210.28125 163.375 210.308594 163.367188 210.335938 C 163.367188 210.335938 163.367188 210.339844 163.363281 210.339844 C 163.359375 210.351562 163.359375 210.363281 163.355469 210.371094 C 163.355469 210.375 163.355469 210.375 163.355469 210.375 C 163.355469 210.378906 163.355469 210.378906 163.351562 210.382812 C 163.34375 210.429688 163.347656 210.476562 163.367188 210.507812 C 163.371094 210.511719 163.375 210.515625 163.375 210.519531 L 163.324219 210.53125 L 163.089844 210.703125 L 162.992188 210.722656 L 162.992188 210.730469 L 160.578125 211.152344 C 160.558594 210.714844 160.511719 210.121094 160.488281 209.917969 C 160.460938 209.65625 160.273438 208.261719 160.097656 207.828125 C 159.925781 207.394531 159.777344 207.21875 159.777344 207.074219 C 159.777344 206.929688 159.339844 206.234375 158.964844 205.941406 C 158.585938 205.652344 158.371094 205.640625 158.285156 205.59375 C 158.195312 205.550781 157.171875 205.132812 156.882812 205.074219 C 156.59375 205.015625 156.207031 204.867188 156.207031 204.867188 C 156.207031 204.867188 156.15625 204.601562 155.996094 204.40625 C 155.835938 204.210938 155.757812 204.167969 155.757812 204.167969 L 155.742188 203.78125 C 155.742188 203.78125 155.859375 203.789062 155.894531 203.546875 C 155.929688 203.308594 155.765625 202.550781 155.722656 202.453125 C 155.679688 202.351562 155.652344 202.371094 155.652344 202.371094 C 155.652344 202.371094 155.53125 201.398438 155.070312 200.976562 C 154.605469 200.554688 154.140625 200.496094 153.9375 200.453125 C 153.734375 200.410156 153.574219 200.261719 153.195312 200.378906 C 152.820312 200.496094 152.457031 200.769531 152.136719 201.074219 C 151.816406 201.378906 151.722656 202.40625 151.738281 202.652344 C 151.75 202.898438 151.917969 203.253906 151.984375 203.390625 C 152.050781 203.53125 152.09375 203.617188 152.152344 203.726562 C 152.210938 203.835938 152.203125 203.835938 152.230469 203.898438 C 152.261719 203.964844 152.398438 204.589844 152.519531 204.847656 C 152.644531 205.109375 152.726562 205.242188 152.726562 205.242188 L 150.867188 205.5 C 150.867188 205.5 150.878906 205.601562 150.792969 205.648438 C 150.707031 205.691406 150.792969 205.648438 150.5625 205.703125 C 150.328125 205.761719 150.214844 205.851562 150.066406 205.9375 C 149.921875 206.023438 149.851562 206.054688 149.675781 206.269531 C 149.503906 206.488281 149.183594 206.359375 149.09375 206.546875 C 149.007812 206.738281 149.039062 206.664062 148.90625 206.835938 C 148.777344 207.011719 148.519531 207.179688 148.304688 207.339844 C 148.085938 207.5 148.226562 207.316406 148.019531 207.621094 C 147.816406 207.925781 147.722656 207.867188 147.515625 208.042969 C 147.300781 208.214844 146.316406 208.90625 146.171875 209.226562 C 146.023438 209.546875 145.96875 209.441406 145.96875 209.9375 C 145.96875 210.429688 145.96875 210.371094 146.214844 210.648438 C 146.238281 210.675781 146.265625 210.699219 146.285156 210.726562 C 145.796875 211.222656 145.644531 211.714844 145.644531 211.714844 C 145.644531 211.714844 145.144531 213.027344 145.5 214.625 L 145.511719 214.667969 L 145.515625 214.714844 C 145.761719 216.332031 146.703125 217.375 146.703125 217.375 C 146.703125 217.375 147.085938 217.863281 147.851562 218.144531 C 148.179688 218.265625 148.527344 218.320312 148.890625 218.300781 C 148.871094 218.375 148.859375 218.445312 148.855469 218.511719 C 148.828125 218.976562 148.738281 219.035156 148.828125 219.617188 C 148.914062 220.199219 148.882812 220.371094 149.378906 221.183594 C 149.871094 222 150.105469 222.113281 150.394531 222.550781 C 150.683594 222.984375 150.597656 223.042969 150.859375 223.128906 C 151.121094 223.21875 152.046875 223.714844 152.046875 223.714844 L 152.039062 227.082031 C 151.792969 227.136719 151.359375 227.410156 151.46875 227.710938 C 151.554688 227.945312 151.738281 228.140625 152.003906 228.234375 L 151.945312 233.074219 C 151.910156 233.132812 151.890625 233.203125 151.890625 233.28125 C 151.890625 233.378906 151.925781 233.472656 151.984375 233.535156 L 152.449219 233.535156 C 152.507812 233.46875 152.542969 233.378906 152.542969 233.28125 C 152.542969 233.179688 152.503906 233.085938 152.445312 233.019531 L 152.496094 228.84375 C 152.496094 228.84375 152.839844 228.886719 152.992188 228.859375 C 153.144531 228.828125 153.214844 228.808594 153.214844 228.808594 C 153.214844 228.808594 153.261719 231.683594 153.273438 232.566406 C 153.226562 232.628906 153.199219 232.710938 153.199219 232.796875 C 153.199219 232.898438 153.234375 232.988281 153.292969 233.054688 L 153.753906 233.054688 C 153.816406 232.988281 153.851562 232.898438 153.851562 232.796875 C 153.851562 232.695312 153.816406 232.605469 153.753906 232.539062 L 153.671875 228.667969 C 153.671875 228.667969 155.550781 228.734375 155.898438 228.710938 C 156.246094 228.691406 156.355469 228.667969 156.355469 228.667969 C 156.355469 228.667969 156.703125 229.632812 156.949219 229.785156 C 157.199219 229.9375 157.757812 230.097656 157.878906 230.113281 C 158 230.125 158.167969 230.125 158.167969 230.125 L 158.257812 232.695312 C 158.226562 232.75 158.210938 232.8125 158.210938 232.878906 C 158.210938 232.980469 158.25 233.074219 158.3125 233.140625 L 158.765625 233.140625 C 158.828125 233.074219 158.867188 232.980469 158.867188 232.878906 C 158.867188 232.804688 158.847656 232.738281 158.8125 232.679688 L 158.734375 230.113281 C 158.734375 230.113281 158.910156 230.0625 159.027344 230.035156 C 159.140625 230.003906 159.195312 229.953125 159.195312 229.953125 C 159.195312 229.953125 159.289062 233.011719 159.320312 233.433594 C 159.316406 233.449219 159.316406 233.460938 159.316406 233.472656 C 159.316406 233.585938 159.363281 233.683594 159.433594 233.75 L 159.855469 233.75 C 159.925781 233.683594 159.96875 233.582031 159.96875 233.472656 C 159.96875 233.421875 159.960938 233.367188 159.941406 233.320312 L 159.613281 228.046875 C 159.613281 228.046875 160.011719 227.90625 160.15625 227.761719 C 160.304688 227.617188 160.351562 227.480469 160.289062 227.304688 C 160.222656 227.132812 159.96875 226.882812 159.78125 226.804688 L 159.453125 226.664062 L 159.367188 223.339844 C 159.367188 223.339844 160.09375 221.976562 160.238281 221.453125 C 160.382812 220.929688 160.195312 220.4375 160.324219 220.277344 C 160.457031 220.117188 160.570312 219.105469 160.585938 218.945312 C 160.597656 218.785156 160.527344 217.667969 160.324219 217.128906 C 160.121094 216.59375 160.003906 216.375 159.917969 216.171875 C 159.832031 215.96875 159.773438 215.78125 159.773438 215.78125 C 159.773438 215.78125 160.0625 215.996094 160.046875 215.808594 C 160.035156 215.621094 159.84375 215.230469 159.832031 215.082031 C 159.816406 214.9375 159.597656 214.300781 159.597656 214.140625 C 159.597656 213.980469 159.570312 213.386719 159.570312 213.386719 C 159.570312 213.386719 160.121094 213.328125 160.441406 212.878906 C 160.640625 212.59375 160.699219 212.484375 160.703125 212.367188 L 163.191406 211.820312 L 163.289062 211.804688 L 163.285156 211.777344 L 163.566406 211.855469 L 163.609375 211.847656 C 163.597656 211.863281 163.59375 211.886719 163.59375 211.90625 C 163.59375 211.910156 163.59375 211.914062 163.59375 211.917969 C 163.597656 211.960938 163.632812 212.007812 163.683594 212.046875 C 163.6875 212.050781 163.691406 212.050781 163.691406 212.054688 C 163.695312 212.058594 163.699219 212.058594 163.699219 212.0625 C 163.703125 212.0625 163.707031 212.066406 163.710938 212.066406 C 163.71875 212.070312 163.722656 212.074219 163.730469 212.078125 C 163.746094 212.085938 163.761719 212.09375 163.777344 212.097656 C 163.839844 212.121094 163.894531 212.117188 163.925781 212.097656 C 163.941406 212.089844 163.953125 212.082031 163.964844 212.070312 C 164 212.03125 164 211.980469 163.96875 211.929688 L 164.109375 211.902344 C 164.105469 211.925781 164.105469 211.949219 164.109375 211.964844 C 164.121094 212.066406 164.183594 212.109375 164.257812 212.0625 C 164.308594 212.027344 164.351562 211.957031 164.375 211.882812 L 164.398438 211.878906 C 164.402344 211.878906 164.402344 211.878906 164.402344 211.878906 L 164.609375 211.839844 L 164.613281 211.867188 C 164.617188 211.894531 164.636719 211.914062 164.652344 211.910156 C 164.667969 211.90625 164.675781 211.882812 164.671875 211.855469 L 164.664062 211.828125 L 164.679688 211.824219 C 164.683594 211.824219 164.683594 211.8125 164.683594 211.800781 L 164.679688 211.777344 C 164.675781 211.765625 164.671875 211.757812 164.667969 211.757812 C 164.667969 211.757812 164.667969 211.757812 164.667969 211.761719 L 164.652344 211.761719 C 164.652344 211.761719 164.652344 211.757812 164.652344 211.757812 L 164.636719 211.679688 L 164.796875 211.65625 C 164.765625 211.6875 164.742188 211.726562 164.726562 211.761719 C 164.703125 211.816406 164.699219 211.859375 164.722656 211.882812 C 164.726562 211.890625 164.726562 211.894531 164.734375 211.898438 C 164.773438 211.964844 164.875 211.957031 164.960938 211.882812 C 165.003906 211.847656 165.03125 211.804688 165.046875 211.757812 L 165.050781 211.757812 C 165.050781 211.757812 165.050781 211.757812 165.054688 211.757812 L 165.257812 211.71875 L 165.265625 211.746094 C 165.269531 211.773438 165.289062 211.792969 165.304688 211.789062 C 165.320312 211.78125 165.328125 211.757812 165.324219 211.730469 Z M 151.066406 210.707031 C 150.976562 210.675781 150.867188 210.636719 150.753906 210.59375 C 150.671875 210.53125 150.570312 210.460938 150.441406 210.484375 C 149.996094 210.324219 149.464844 210.136719 148.9375 210.019531 C 148.917969 210.015625 148.894531 210.011719 148.871094 210.007812 C 148.789062 209.882812 148.746094 209.785156 148.867188 209.804688 C 149.097656 209.847656 149.304688 209.878906 149.621094 209.847656 C 149.941406 209.820312 150.070312 209.75 150.128906 209.675781 C 150.183594 209.601562 150.332031 209.484375 150.332031 209.484375 C 150.332031 209.484375 150.316406 209.429688 150.492188 209.429688 C 150.664062 209.429688 150.722656 209.371094 150.753906 209.515625 C 150.78125 209.660156 150.882812 210.152344 150.941406 210.253906 C 151 210.355469 151 210.183594 151.042969 210.460938 C 151.050781 210.507812 151.058594 210.59375 151.066406 210.707031 Z M 164.066406 211.542969 L 164.0625 211.519531 L 164.355469 211.464844 L 164.363281 211.496094 Z M 164.710938 210.449219 L 164.71875 210.492188 L 164.441406 210.554688 L 164.433594 210.511719 Z M 163.691406 211.324219 L 163.769531 211.3125 L 163.773438 211.324219 Z M 163.945312 210.894531 L 163.941406 210.871094 L 164.226562 210.765625 L 164.238281 210.828125 Z M 164.582031 211.292969 L 164.5625 211.195312 L 164.84375 211.148438 L 164.867188 211.28125 Z M 164.328125 211.300781 L 164.027344 211.3125 L 164.019531 211.277344 L 164.3125 211.230469 Z M 164.484375 210.773438 L 164.464844 210.675781 L 164.738281 210.570312 L 164.765625 210.710938 Z M 164.1875 210.5625 L 164.199219 210.605469 L 163.90625 210.667969 L 163.898438 210.625 Z M 163.628906 210.449219 L 163.851562 210.40625 L 163.839844 210.339844 L 163.851562 210.339844 C 163.855469 210.34375 163.855469 210.34375 163.859375 210.347656 C 163.867188 210.363281 163.878906 210.378906 163.890625 210.394531 L 163.894531 210.410156 L 163.605469 210.472656 C 163.613281 210.460938 163.621094 210.449219 163.628906 210.429688 Z M 163.429688 210.765625 C 163.4375 210.75 163.488281 210.714844 163.488281 210.714844 L 163.648438 210.679688 L 163.660156 210.722656 L 163.429688 210.769531 C 163.429688 210.769531 163.429688 210.765625 163.429688 210.765625 Z M 164.613281 211.457031 L 164.605469 211.421875 L 164.886719 211.375 L 164.894531 211.414062 Z M 165.246094 211.648438 L 165.195312 211.65625 L 165.183594 211.585938 L 165.234375 211.578125 Z M 165.320312 211.222656 C 165.332031 211.339844 165.261719 211.355469 165.261719 211.355469 L 165.140625 211.375 L 165.128906 211.3125 L 165.132812 211.3125 L 165.128906 211.3125 L 165.121094 211.273438 L 165.125 211.273438 L 165.121094 211.273438 L 165.09375 211.113281 L 165.230469 211.09375 C 165.230469 211.09375 165.308594 211.105469 165.320312 211.222656 Z M 165.078125 210.371094 C 165.078125 210.371094 165.152344 210.359375 165.183594 210.472656 C 165.210938 210.585938 165.144531 210.628906 165.144531 210.628906 L 165.007812 210.65625 L 164.976562 210.484375 L 164.984375 210.484375 L 164.976562 210.484375 L 164.960938 210.394531 Z M 164.980469 210.179688 L 164.6875 210.242188 C 164.703125 210.222656 164.714844 210.199219 164.726562 210.175781 L 164.734375 210.210938 L 164.953125 210.171875 L 164.941406 210.105469 L 164.96875 210.101562 Z M 164.332031 210.316406 L 164.082031 210.367188 C 164.082031 210.363281 164.085938 210.359375 164.085938 210.355469 L 164.289062 210.320312 L 164.273438 210.230469 L 164.316406 210.222656 Z M 163.640625 211.605469 L 163.816406 211.566406 L 163.820312 211.582031 L 163.65625 211.609375 C 163.65625 211.609375 163.648438 211.609375 163.640625 211.605469 Z M 164.132812 211.757812 L 164.140625 211.785156 C 164.136719 211.796875 164.128906 211.808594 164.125 211.820312 C 164.125 211.824219 164.125 211.828125 164.125 211.828125 L 164.082031 211.835938 L 164.070312 211.777344 L 163.851562 211.820312 C 163.84375 211.816406 163.835938 211.8125 163.824219 211.808594 Z M 164.597656 211.769531 L 164.527344 211.78125 L 164.515625 211.71875 L 164.386719 211.742188 C 164.382812 211.734375 164.382812 211.726562 164.378906 211.71875 L 164.582031 211.683594 Z M 152.476562 224.140625 L 153.25 224.765625 L 153.238281 226.601562 L 153.109375 226.761719 L 152.5 226.898438 Z M 151.816406 227.53125 C 151.867188 227.414062 152.019531 227.347656 152.019531 227.347656 L 152.046875 227.875 C 152.046875 227.875 151.898438 227.839844 151.832031 227.757812 C 151.765625 227.679688 151.765625 227.648438 151.816406 227.53125 Z M 152.519531 227.160156 C 152.519531 227.160156 152.828125 227.050781 152.898438 227.050781 C 152.898438 227.050781 152.863281 227.160156 152.761719 227.273438 C 152.65625 227.386719 152.503906 227.617188 152.503906 227.617188 Z M 155.523438 228 C 155.734375 228.292969 156.023438 228.421875 156.023438 228.421875 C 155.945312 228.421875 155.1875 228.4375 154.796875 228.429688 C 154.40625 228.421875 154.203125 228.394531 154.203125 228.394531 C 154.203125 228.394531 154.625 228.167969 154.8125 227.929688 C 155.003906 227.691406 155.125 227.285156 155.125 227.285156 C 155.125 227.285156 155.3125 227.710938 155.523438 228 Z M 158.390625 225.265625 C 158.390625 225.265625 158.820312 224.308594 158.847656 224.226562 L 158.921875 224.117188 C 158.921875 224.117188 159.058594 226.542969 159.027344 226.53125 C 158.992188 226.519531 158.453125 226.484375 158.441406 226.453125 C 158.429688 226.425781 158.390625 225.265625 158.390625 225.265625 Z M 159.550781 227.832031 L 159.539062 227.011719 C 159.539062 227.011719 159.902344 227.144531 159.988281 227.277344 C 160.078125 227.410156 160.078125 227.472656 159.964844 227.585938 C 159.851562 227.699219 159.550781 227.832031 159.550781 227.832031 Z M 158.664062 226.722656 C 158.824219 226.734375 159.035156 226.769531 159.054688 226.769531 L 159.0625 227.988281 C 159.0625 227.988281 159.042969 227.996094 158.9375 228.039062 C 158.835938 228.078125 158.566406 228.117188 158.566406 228.117188 L 158.46875 226.710938 C 158.464844 226.710938 158.503906 226.710938 158.664062 226.722656 Z M 158.664062 226.722656 " fill-opacity="1" fill-rule="evenodd"/></g><g clip-path="url(#06e329fa0d)"><g clip-path="url(#9ad779c5ca)"><g transform="matrix(1, 0, 0, 1, 261, 117)"><g clip-path="url(#8ef72d516c)"><g clip-path="url(#422dc91d2a)"><g clip-path="url(#97e670a40f)"><path fill="#38b6ff" d="M 0.882812 19.753906 L 12.820312 0.996094 L 42.492188 19.878906 L 30.554688 38.636719 Z M 0.882812 19.753906 " fill-opacity="1" fill-rule="nonzero"/></g></g></g></g></g></g><g clip-path="url(#e08e854dab)"><g clip-path="url(#79e495b8a5)"><g clip-path="url(#8fd848cc13)"><g transform="matrix(1, 0, 0, 1, 235, 216)"><g clip-path="url(#6a593550a2)"><g clip-path="url(#0719df6c1d)"><g clip-path="url(#ddb052f614)"><g clip-path="url(#ca93c4b513)"><path fill="#38b6ff" d="M 27.4375 7.160156 L 21.609375 26.417969 L 0.171875 19.925781 L 6 0.671875 Z M 27.4375 7.160156 " fill-opacity="1" fill-rule="nonzero"/></g></g></g></g></g></g></g></g><g clip-path="url(#10725dc5dc)"><path fill="#000000" d="M 151.605469 202.988281 C 151.625 203.054688 151.660156 203.175781 151.714844 203.34375 C 151.71875 203.351562 151.71875 203.375 151.71875 203.414062 C 151.71875 203.417969 151.707031 203.4375 151.683594 203.472656 C 151.652344 203.324219 151.625 203.203125 151.605469 203.101562 C 151.601562 203.082031 151.601562 203.0625 151.597656 203.046875 C 151.601562 203.027344 151.605469 203.007812 151.605469 202.988281 Z M 152.332031 203.09375 C 152.335938 203.136719 152.339844 203.179688 152.335938 203.21875 C 152.335938 203.253906 152.332031 203.285156 152.328125 203.308594 C 152.3125 203.378906 152.300781 203.449219 152.285156 203.527344 C 152.246094 203.398438 152.230469 203.332031 152.234375 203.332031 C 152.226562 203.273438 152.234375 203.214844 152.253906 203.15625 L 152.320312 203.101562 C 152.324219 203.097656 152.328125 203.097656 152.332031 203.09375 Z M 152.109375 203.695312 L 152.136719 203.757812 C 152.148438 203.796875 152.15625 203.824219 152.152344 203.847656 C 152.148438 203.867188 152.140625 203.882812 152.132812 203.894531 C 152.117188 203.910156 152.101562 203.925781 152.089844 203.9375 C 152.097656 203.867188 152.105469 203.785156 152.109375 203.695312 Z M 156.035156 203.46875 C 156.117188 203.699219 156.152344 203.816406 156.144531 203.816406 C 156.144531 203.867188 156.140625 203.898438 156.136719 203.902344 C 156.125 203.925781 156.113281 203.953125 156.101562 203.976562 C 156.066406 203.878906 156.039062 203.800781 156.019531 203.742188 Z M 155.410156 203.648438 C 155.445312 203.714844 155.464844 203.753906 155.46875 203.761719 C 155.492188 203.824219 155.503906 203.882812 155.507812 203.933594 C 155.507812 203.980469 155.503906 204.023438 155.496094 204.058594 C 155.472656 204.089844 155.453125 204.121094 155.433594 204.148438 C 155.4375 204.144531 155.4375 204.136719 155.441406 204.132812 C 155.472656 204.078125 155.488281 204.019531 155.492188 203.953125 C 155.5 203.894531 155.484375 203.816406 155.453125 203.730469 L 155.410156 203.65625 C 155.410156 203.652344 155.410156 203.648438 155.410156 203.648438 Z M 155.742188 204.300781 C 155.742188 204.304688 155.746094 204.304688 155.746094 204.308594 L 155.738281 204.316406 Z M 151.539062 204.464844 C 151.539062 204.46875 151.535156 204.476562 151.535156 204.480469 C 151.535156 204.476562 151.539062 204.46875 151.539062 204.464844 Z M 152.277344 204.238281 C 152.28125 204.246094 152.28125 204.25 152.285156 204.257812 C 152.277344 204.289062 152.265625 204.308594 152.257812 204.320312 C 152.113281 204.460938 152.039062 204.542969 152.027344 204.5625 C 152.023438 204.570312 152.019531 204.578125 152.015625 204.582031 C 152.015625 204.582031 152.015625 204.578125 152.015625 204.574219 C 152.023438 204.5625 152.027344 204.554688 152.027344 204.550781 C 152.066406 204.488281 152.089844 204.429688 152.089844 204.375 C 152.089844 204.371094 152.089844 204.371094 152.089844 204.367188 Z M 151.640625 204.570312 C 151.640625 204.585938 151.644531 204.601562 151.644531 204.621094 L 151.632812 204.644531 C 151.632812 204.621094 151.636719 204.597656 151.640625 204.570312 Z M 151.777344 205.132812 Z M 151.761719 204.691406 C 151.773438 204.742188 151.800781 204.820312 151.839844 204.925781 C 151.828125 204.996094 151.820312 205.0625 151.808594 205.125 C 151.800781 205.128906 151.789062 205.128906 151.777344 205.132812 L 151.800781 205.132812 C 151.804688 205.128906 151.808594 205.128906 151.808594 205.128906 C 151.804688 205.164062 151.800781 205.199219 151.796875 205.234375 L 151.753906 205.128906 C 151.753906 205.128906 151.757812 205.128906 151.757812 205.128906 L 151.761719 205.128906 C 151.761719 205.128906 151.761719 205.128906 151.765625 205.128906 C 151.765625 205.132812 151.769531 205.132812 151.773438 205.132812 L 151.777344 205.132812 L 151.769531 205.132812 L 151.769531 205.128906 C 151.765625 205.128906 151.765625 205.128906 151.761719 205.128906 C 151.757812 205.128906 151.753906 205.128906 151.753906 205.128906 L 151.652344 204.882812 C 151.648438 204.871094 151.648438 204.859375 151.644531 204.847656 L 151.6875 204.792969 C 151.691406 204.804688 151.695312 204.820312 151.699219 204.832031 L 151.695312 204.8125 L 151.695312 204.78125 Z M 151.425781 205.242188 C 151.425781 205.261719 151.421875 205.277344 151.421875 205.292969 C 151.421875 205.277344 151.425781 205.257812 151.425781 205.242188 Z M 156.191406 205.65625 C 156.179688 205.671875 156.164062 205.683594 156.144531 205.695312 C 156.164062 205.6875 156.179688 205.675781 156.191406 205.65625 Z M 151.777344 205.675781 C 151.773438 205.683594 151.773438 205.691406 151.769531 205.695312 C 151.773438 205.691406 151.773438 205.683594 151.777344 205.675781 Z M 156.140625 205.699219 C 156.132812 205.699219 156.125 205.703125 156.121094 205.703125 C 156.109375 205.707031 156.101562 205.710938 156.09375 205.710938 C 156.097656 205.710938 156.101562 205.710938 156.101562 205.710938 L 156.105469 205.710938 C 156.109375 205.707031 156.113281 205.707031 156.117188 205.707031 C 156.121094 205.707031 156.125 205.703125 156.125 205.703125 L 156.128906 205.703125 C 156.132812 205.703125 156.132812 205.699219 156.136719 205.699219 Z M 151.761719 205.710938 L 151.757812 205.714844 C 151.753906 205.722656 151.746094 205.726562 151.742188 205.734375 C 151.746094 205.730469 151.746094 205.726562 151.75 205.722656 C 151.753906 205.71875 151.753906 205.71875 151.757812 205.714844 C 151.757812 205.714844 151.757812 205.714844 151.757812 205.710938 Z M 152.074219 205.8125 C 152.074219 205.820312 152.078125 205.828125 152.078125 205.832031 C 152.078125 205.828125 152.074219 205.820312 152.074219 205.8125 Z M 152.925781 199.488281 C 152.921875 199.488281 152.917969 199.488281 152.914062 199.488281 L 152.839844 199.492188 C 152.839844 199.492188 152.835938 199.492188 152.832031 199.492188 C 152.800781 199.492188 152.734375 199.503906 152.625 199.535156 C 152.582031 199.550781 152.535156 199.570312 152.492188 199.597656 C 152.40625 199.640625 152.320312 199.707031 152.226562 199.800781 C 152.179688 199.851562 152.132812 199.910156 152.089844 199.976562 C 151.855469 200.335938 151.699219 200.570312 151.621094 200.675781 C 151.507812 200.835938 151.402344 200.96875 151.304688 201.082031 C 151.285156 201.105469 151.269531 201.132812 151.253906 201.160156 C 151.222656 201.222656 151.195312 201.285156 151.175781 201.347656 C 151.074219 201.535156 151.003906 201.738281 150.960938 201.957031 C 150.933594 202.101562 150.933594 202.308594 150.960938 202.574219 C 150.964844 202.632812 150.984375 202.746094 151.015625 202.90625 L 151.164062 203.6875 C 151.183594 203.851562 151.195312 204.011719 151.195312 204.167969 C 151.199219 204.414062 151.1875 204.628906 151.15625 204.8125 C 151.140625 204.898438 151.121094 204.972656 151.097656 205.035156 C 151.078125 205.089844 151.050781 205.144531 151.015625 205.199219 C 151.136719 205.09375 151.226562 204.949219 151.285156 204.769531 C 151.363281 204.496094 151.410156 204.234375 151.421875 203.984375 C 151.429688 203.820312 151.429688 203.695312 151.414062 203.609375 C 151.410156 203.566406 151.398438 203.480469 151.382812 203.355469 C 151.386719 203.351562 151.394531 203.34375 151.402344 203.335938 L 151.433594 203.441406 L 151.449219 203.640625 C 151.449219 203.742188 151.441406 203.851562 151.421875 203.960938 L 151.457031 203.828125 C 151.457031 203.84375 151.457031 203.855469 151.457031 203.871094 C 151.460938 203.910156 151.464844 203.9375 151.464844 203.949219 C 151.464844 204.015625 151.460938 204.054688 151.460938 204.066406 L 151.433594 204.316406 C 151.425781 204.394531 151.417969 204.453125 151.417969 204.5 C 151.414062 204.574219 151.417969 204.644531 151.425781 204.703125 C 151.4375 204.800781 151.460938 204.875 151.484375 204.929688 C 151.488281 204.933594 151.488281 204.941406 151.492188 204.949219 C 151.488281 204.957031 151.484375 204.96875 151.484375 204.976562 C 151.460938 205.035156 151.441406 205.125 151.425781 205.242188 C 151.4375 205.1875 151.460938 205.128906 151.496094 205.066406 C 151.507812 205.046875 151.519531 205.027344 151.527344 205.011719 C 151.566406 205.074219 151.625 205.167969 151.707031 205.289062 C 151.730469 205.332031 151.746094 205.367188 151.757812 205.398438 C 151.777344 205.464844 151.789062 205.519531 151.789062 205.566406 C 151.789062 205.613281 151.785156 205.652344 151.777344 205.675781 C 151.824219 205.574219 151.839844 205.46875 151.824219 205.359375 C 151.824219 205.335938 151.816406 205.3125 151.8125 205.292969 C 151.867188 205.152344 151.90625 205.046875 151.933594 204.972656 C 151.9375 205.019531 151.960938 205.117188 152 205.265625 C 151.957031 205.070312 151.976562 204.90625 152.046875 204.769531 C 152.074219 204.71875 152.105469 204.675781 152.144531 204.640625 L 152.230469 204.574219 L 152.109375 204.777344 C 152.085938 204.828125 152.0625 204.894531 152.042969 204.976562 C 152.011719 205.085938 152.003906 205.203125 152.007812 205.320312 C 152.007812 205.355469 152.015625 205.40625 152.023438 205.472656 C 152.050781 205.640625 152.070312 205.753906 152.074219 205.8125 C 152.058594 205.574219 152.085938 205.347656 152.15625 205.125 C 152.195312 205.023438 152.234375 204.9375 152.273438 204.878906 C 152.492188 204.625 152.605469 204.46875 152.613281 204.417969 C 152.632812 204.398438 152.679688 204.175781 152.753906 203.753906 C 152.761719 203.714844 152.777344 203.667969 152.792969 203.617188 C 152.835938 203.511719 152.871094 203.429688 152.902344 203.363281 L 153.09375 203 C 153.109375 202.976562 153.125 202.957031 153.136719 202.933594 L 153.183594 202.859375 C 153.210938 202.808594 153.234375 202.753906 153.253906 202.691406 C 153.273438 202.632812 153.289062 202.574219 153.300781 202.507812 C 153.304688 202.492188 153.304688 202.476562 153.304688 202.464844 C 153.3125 202.425781 153.320312 202.382812 153.324219 202.34375 C 153.335938 202.230469 153.335938 202.105469 153.324219 201.96875 C 153.324219 201.929688 153.285156 201.722656 153.207031 201.347656 C 153.199219 201.304688 153.191406 201.242188 153.1875 201.164062 C 153.175781 200.984375 153.191406 200.804688 153.242188 200.625 C 153.273438 200.546875 153.292969 200.503906 153.304688 200.496094 C 153.320312 200.46875 153.339844 200.445312 153.359375 200.425781 C 153.398438 200.386719 153.445312 200.355469 153.503906 200.335938 C 153.53125 200.328125 153.558594 200.324219 153.582031 200.324219 C 153.640625 200.324219 153.691406 200.34375 153.738281 200.386719 L 153.734375 200.386719 L 153.746094 200.410156 C 153.75 200.40625 153.75 200.40625 153.753906 200.40625 C 153.761719 200.414062 153.773438 200.425781 153.78125 200.4375 L 153.78125 200.394531 C 153.8125 200.382812 153.84375 200.375 153.875 200.375 C 153.992188 200.375 154.101562 200.46875 154.199219 200.660156 C 154.222656 200.707031 154.238281 200.757812 154.25 200.8125 C 154.292969 201.144531 154.328125 201.355469 154.355469 201.433594 C 154.375 201.492188 154.398438 201.542969 154.425781 201.585938 C 154.546875 201.765625 154.621094 201.878906 154.648438 201.9375 C 154.695312 202.023438 154.726562 202.09375 154.742188 202.152344 C 154.761719 202.238281 154.777344 202.386719 154.777344 202.589844 L 154.792969 202.574219 C 154.796875 202.617188 154.800781 202.667969 154.804688 202.722656 L 154.789062 202.773438 C 154.78125 202.8125 154.773438 202.855469 154.769531 202.894531 C 154.761719 202.980469 154.765625 203.070312 154.78125 203.15625 C 154.796875 203.222656 154.820312 203.285156 154.851562 203.351562 L 155.148438 203.777344 C 155.152344 203.832031 155.15625 203.878906 155.152344 203.917969 L 155.117188 204.175781 C 155.050781 204.265625 155.011719 204.339844 154.992188 204.390625 C 154.957031 204.484375 154.945312 204.570312 154.953125 204.652344 C 155.03125 204.910156 155.15625 205.085938 155.324219 205.1875 C 155.210938 205.089844 155.136719 204.917969 155.09375 204.660156 C 155.097656 204.644531 155.097656 204.625 155.105469 204.605469 C 155.109375 204.644531 155.117188 204.679688 155.128906 204.714844 L 155.242188 205.039062 C 155.242188 205.050781 155.246094 205.058594 155.242188 205.058594 C 155.242188 205.058594 155.234375 205.046875 155.222656 205.019531 C 155.210938 205 155.203125 204.972656 155.191406 204.933594 L 155.210938 205.007812 C 155.222656 205.046875 155.234375 205.070312 155.242188 205.070312 C 155.246094 205.070312 155.246094 205.070312 155.246094 205.070312 C 155.257812 205.066406 155.261719 205.054688 155.261719 205.035156 L 155.222656 204.824219 C 155.21875 204.792969 155.214844 204.757812 155.210938 204.714844 C 155.199219 204.636719 155.199219 204.566406 155.210938 204.507812 C 155.210938 204.492188 155.214844 204.476562 155.222656 204.460938 C 155.238281 204.414062 155.257812 204.367188 155.273438 204.328125 C 155.308594 204.289062 155.347656 204.246094 155.398438 204.191406 C 155.40625 204.183594 155.414062 204.175781 155.421875 204.167969 C 155.296875 204.351562 155.238281 204.464844 155.246094 204.503906 C 155.238281 204.558594 155.242188 204.605469 155.253906 204.644531 L 155.371094 204.925781 C 155.386719 204.960938 155.394531 204.984375 155.394531 205 C 155.40625 205.082031 155.394531 205.164062 155.359375 205.242188 C 155.390625 205.175781 155.414062 205.121094 155.429688 205.078125 C 155.441406 205.109375 155.453125 205.140625 155.472656 205.164062 L 155.539062 205.242188 C 155.542969 205.246094 155.542969 205.25 155.546875 205.253906 C 155.546875 205.273438 155.546875 205.304688 155.539062 205.339844 L 155.199219 205.621094 C 155.164062 205.667969 155.152344 205.707031 155.164062 205.734375 C 155.15625 205.695312 155.171875 205.660156 155.210938 205.628906 L 155.546875 205.476562 C 155.589844 205.453125 155.625 205.425781 155.648438 205.398438 C 155.652344 205.390625 155.65625 205.382812 155.660156 205.375 L 155.785156 205.507812 C 155.832031 205.5625 155.863281 205.601562 155.871094 205.617188 C 155.917969 205.695312 155.9375 205.785156 155.921875 205.882812 C 155.957031 205.769531 155.960938 205.667969 155.925781 205.578125 C 155.898438 205.5 155.816406 205.355469 155.679688 205.148438 L 155.644531 204.945312 C 155.636719 204.871094 155.636719 204.828125 155.644531 204.8125 C 155.664062 204.777344 155.6875 204.738281 155.71875 204.707031 L 155.859375 204.589844 C 155.871094 204.609375 155.882812 204.632812 155.902344 204.65625 C 156.0625 204.886719 156.148438 205.015625 156.167969 205.050781 C 156.214844 205.128906 156.242188 205.199219 156.25 205.261719 C 156.269531 205.359375 156.269531 205.445312 156.25 205.53125 C 156.234375 205.585938 156.21875 205.628906 156.191406 205.65625 C 156.308594 205.550781 156.363281 205.402344 156.359375 205.203125 C 156.359375 205.136719 156.339844 205.058594 156.3125 204.976562 C 156.304688 204.953125 156.273438 204.882812 156.21875 204.769531 C 156.304688 204.855469 156.425781 204.964844 156.582031 205.109375 C 156.636719 205.179688 156.671875 205.242188 156.683594 205.289062 C 156.695312 205.335938 156.691406 205.394531 156.664062 205.460938 L 156.429688 205.875 C 156.402344 205.917969 156.382812 205.964844 156.371094 206.003906 C 156.359375 206.085938 156.390625 206.160156 156.460938 206.226562 C 156.40625 206.171875 156.386719 206.109375 156.410156 206.039062 C 156.417969 206.019531 156.441406 205.984375 156.480469 205.933594 L 156.816406 205.546875 C 156.867188 205.464844 156.890625 205.390625 156.894531 205.320312 C 156.902344 205.214844 156.871094 205.105469 156.800781 204.988281 C 156.8125 204.988281 156.660156 204.808594 156.34375 204.453125 C 156.328125 204.433594 156.320312 204.402344 156.320312 204.367188 L 156.316406 204.347656 C 156.445312 204.132812 156.503906 204.023438 156.5 204.023438 C 156.515625 203.976562 156.53125 203.917969 156.535156 203.847656 C 156.539062 203.796875 156.535156 203.734375 156.519531 203.65625 C 156.503906 203.570312 156.46875 203.441406 156.414062 203.261719 C 156.410156 203.230469 156.410156 203.207031 156.410156 203.1875 C 156.414062 203.167969 156.421875 203.140625 156.4375 203.109375 C 156.605469 202.867188 156.691406 202.730469 156.691406 202.703125 C 156.734375 202.582031 156.738281 202.46875 156.707031 202.359375 C 156.695312 202.3125 156.671875 202.257812 156.632812 202.199219 C 156.632812 202.179688 156.628906 202.15625 156.621094 202.132812 C 156.488281 201.953125 156.351562 201.734375 156.210938 201.476562 C 156.039062 201.046875 155.90625 200.722656 155.8125 200.507812 C 155.769531 200.421875 155.703125 200.3125 155.621094 200.183594 C 155.476562 199.972656 155.3125 199.8125 155.128906 199.707031 C 155.105469 199.6875 155.03125 199.652344 154.90625 199.605469 C 154.800781 199.574219 154.695312 199.554688 154.582031 199.554688 L 154.5625 199.558594 C 154.554688 199.558594 154.550781 199.554688 154.546875 199.554688 C 154.375 199.554688 154.199219 199.601562 154.023438 199.691406 C 153.96875 199.722656 153.921875 199.761719 153.878906 199.800781 C 153.859375 199.8125 153.820312 199.863281 153.769531 199.949219 C 153.6875 199.816406 153.585938 199.710938 153.460938 199.636719 C 153.277344 199.539062 153.097656 199.488281 152.925781 199.488281 Z M 152.925781 199.488281 " fill-opacity="1" fill-rule="nonzero"/></g><g clip-path="url(#bd519201b7)"><path fill="#000000" d="M 153.203125 199.90625 C 153.324219 199.929688 153.421875 199.960938 153.5 200.003906 C 153.453125 199.988281 153.402344 199.980469 153.34375 199.976562 L 153.332031 199.976562 C 153.328125 199.976562 153.320312 199.976562 153.3125 199.976562 C 153.289062 199.972656 153.265625 199.96875 153.242188 199.964844 C 153.195312 199.949219 153.152344 199.9375 153.105469 199.929688 C 153.136719 199.917969 153.171875 199.910156 153.203125 199.90625 Z M 154.597656 200.007812 C 154.597656 200.007812 154.597656 200.007812 154.601562 200.007812 C 154.597656 200.007812 154.597656 200.007812 154.597656 200.007812 Z M 153.316406 200.058594 Z M 153.664062 200.132812 C 153.679688 200.152344 153.699219 200.171875 153.710938 200.195312 C 153.703125 200.199219 153.691406 200.203125 153.683594 200.207031 C 153.679688 200.179688 153.671875 200.15625 153.664062 200.132812 Z M 153.527344 200.113281 C 153.535156 200.113281 153.546875 200.113281 153.558594 200.113281 C 153.59375 200.117188 153.617188 200.125 153.628906 200.132812 L 153.644531 200.132812 C 153.660156 200.15625 153.671875 200.179688 153.679688 200.207031 C 153.675781 200.210938 153.667969 200.214844 153.664062 200.214844 C 153.605469 200.179688 153.535156 200.160156 153.457031 200.15625 L 153.441406 200.15625 C 153.429688 200.15625 153.421875 200.15625 153.414062 200.160156 C 153.4375 200.136719 153.460938 200.125 153.484375 200.117188 C 153.496094 200.113281 153.511719 200.113281 153.527344 200.113281 Z M 154.03125 200.09375 C 154.082031 200.09375 154.125 200.101562 154.160156 200.113281 C 154.164062 200.113281 154.167969 200.117188 154.171875 200.117188 C 154.1875 200.128906 154.199219 200.136719 154.210938 200.148438 C 154.234375 200.167969 154.253906 200.199219 154.273438 200.246094 C 154.257812 200.230469 154.242188 200.21875 154.21875 200.203125 C 154.203125 200.1875 154.191406 200.179688 154.183594 200.179688 C 154.132812 200.160156 154.074219 200.152344 154.011719 200.152344 C 153.933594 200.152344 153.867188 200.160156 153.808594 200.171875 C 153.855469 200.144531 153.898438 200.121094 153.941406 200.101562 C 153.96875 200.097656 153.996094 200.09375 154.03125 200.09375 Z M 153.953125 200.242188 C 154.035156 200.242188 154.101562 200.269531 154.148438 200.3125 C 154.085938 200.277344 154.019531 200.253906 153.953125 200.242188 Z M 152.964844 199.917969 C 152.957031 199.917969 152.953125 199.921875 152.945312 199.925781 C 152.800781 199.941406 152.648438 200.027344 152.492188 200.1875 C 152.445312 200.234375 152.40625 200.285156 152.363281 200.339844 C 152.296875 200.398438 152.234375 200.457031 152.175781 200.519531 L 152.179688 200.511719 C 152.335938 200.289062 152.464844 200.152344 152.5625 200.089844 C 152.699219 200 152.832031 199.941406 152.964844 199.917969 Z M 153.136719 199.972656 C 153.023438 200.003906 152.925781 200.089844 152.84375 200.242188 C 152.832031 200.265625 152.820312 200.292969 152.808594 200.320312 C 152.742188 200.417969 152.683594 200.539062 152.628906 200.6875 C 152.636719 200.640625 152.648438 200.597656 152.660156 200.550781 C 152.761719 200.28125 152.871094 200.09375 152.996094 199.996094 C 153.042969 199.980469 153.085938 199.972656 153.136719 199.972656 Z M 154.277344 200.058594 C 154.367188 200.078125 154.449219 200.121094 154.53125 200.1875 C 154.53125 200.191406 154.535156 200.191406 154.535156 200.195312 C 154.539062 200.195312 154.539062 200.199219 154.539062 200.199219 C 154.546875 200.210938 154.5625 200.25 154.589844 200.316406 L 154.625 200.441406 C 154.679688 200.578125 154.710938 200.664062 154.726562 200.699219 C 154.683594 200.632812 154.636719 200.582031 154.589844 200.546875 C 154.585938 200.523438 154.582031 200.496094 154.578125 200.472656 C 154.5625 200.382812 154.535156 200.3125 154.5 200.257812 C 154.441406 200.171875 154.394531 200.117188 154.359375 200.09375 C 154.335938 200.082031 154.308594 200.074219 154.285156 200.066406 C 154.285156 200.0625 154.28125 200.0625 154.277344 200.058594 Z M 153.429688 200.046875 C 153.5 200.046875 153.5625 200.0625 153.613281 200.097656 C 153.621094 200.105469 153.628906 200.113281 153.636719 200.125 C 153.582031 200.085938 153.53125 200.066406 153.484375 200.066406 C 153.480469 200.066406 153.480469 200.066406 153.476562 200.066406 L 153.472656 200.066406 C 153.367188 200.066406 153.273438 200.140625 153.195312 200.277344 C 153.179688 200.292969 153.167969 200.308594 153.152344 200.324219 C 153.164062 200.277344 153.179688 200.230469 153.203125 200.1875 C 153.214844 200.164062 153.230469 200.140625 153.246094 200.125 C 153.25 200.117188 153.261719 200.109375 153.273438 200.097656 L 153.304688 200.074219 C 153.308594 200.066406 153.3125 200.0625 153.316406 200.058594 L 153.3125 200.058594 C 153.179688 200.097656 153.078125 200.253906 153.003906 200.53125 C 153 200.542969 153 200.554688 152.996094 200.566406 C 152.96875 200.648438 152.953125 200.730469 152.941406 200.8125 C 152.945312 200.746094 152.945312 200.699219 152.949219 200.671875 C 152.960938 200.554688 152.988281 200.449219 153.027344 200.351562 C 153.089844 200.199219 153.183594 200.101562 153.3125 200.058594 C 153.355469 200.050781 153.390625 200.046875 153.429688 200.046875 Z M 155.304688 200.96875 C 155.324219 200.984375 155.339844 201 155.359375 201.011719 C 155.347656 201.011719 155.339844 201.007812 155.332031 201.007812 C 155.320312 200.992188 155.3125 200.980469 155.304688 200.96875 Z M 154.933594 200 C 154.945312 200.007812 154.957031 200.011719 154.96875 200.019531 C 155.039062 200.054688 155.136719 200.167969 155.253906 200.355469 C 155.273438 200.390625 155.296875 200.4375 155.324219 200.496094 L 155.578125 201.023438 C 155.53125 200.984375 155.476562 200.929688 155.417969 200.859375 C 155.367188 200.800781 155.316406 200.730469 155.273438 200.648438 C 155.269531 200.648438 155.234375 200.554688 155.164062 200.367188 L 155.113281 200.253906 C 155.058594 200.140625 155.007812 200.0625 154.960938 200.023438 C 154.953125 200.015625 154.945312 200.007812 154.933594 200 Z M 154.589844 200.59375 C 154.628906 200.640625 154.660156 200.699219 154.6875 200.773438 C 154.699219 200.808594 154.707031 200.84375 154.714844 200.875 C 154.730469 200.976562 154.742188 201.066406 154.753906 201.144531 C 154.746094 201.128906 154.738281 201.117188 154.730469 201.101562 C 154.703125 201.046875 154.675781 200.980469 154.652344 200.90625 C 154.640625 200.847656 154.617188 200.753906 154.59375 200.628906 L 154.589844 200.628906 C 154.589844 200.613281 154.589844 200.605469 154.589844 200.59375 Z M 155.765625 201.195312 L 155.761719 201.210938 C 155.761719 201.203125 155.761719 201.199219 155.765625 201.195312 Z M 152.8125 201.339844 C 152.800781 201.34375 152.792969 201.347656 152.78125 201.347656 C 152.78125 201.347656 152.777344 201.347656 152.777344 201.347656 C 152.789062 201.347656 152.800781 201.34375 152.8125 201.339844 Z M 154.792969 200.824219 C 154.792969 200.824219 154.796875 200.828125 154.796875 200.828125 C 154.820312 200.871094 154.84375 200.90625 154.867188 200.941406 L 154.9375 201.222656 C 154.933594 201.21875 154.929688 201.21875 154.925781 201.21875 C 154.921875 201.21875 154.917969 201.21875 154.917969 201.222656 C 154.925781 201.230469 154.933594 201.234375 154.941406 201.242188 L 154.957031 201.300781 C 154.972656 201.347656 154.992188 201.390625 155.015625 201.4375 C 154.996094 201.429688 154.980469 201.421875 154.960938 201.40625 C 154.929688 201.316406 154.875 201.128906 154.800781 200.851562 C 154.796875 200.839844 154.796875 200.832031 154.792969 200.824219 Z M 155.40625 201.117188 C 155.4375 201.136719 155.472656 201.160156 155.511719 201.191406 C 155.550781 201.21875 155.585938 201.25 155.613281 201.285156 C 155.636719 201.296875 155.664062 201.316406 155.683594 201.34375 L 155.820312 201.480469 C 155.820312 201.480469 155.816406 201.480469 155.816406 201.480469 C 155.816406 201.480469 155.816406 201.480469 155.8125 201.476562 C 155.808594 201.476562 155.808594 201.476562 155.808594 201.476562 C 155.808594 201.472656 155.808594 201.472656 155.808594 201.472656 L 155.808594 201.476562 L 155.8125 201.476562 C 155.660156 201.378906 155.582031 201.324219 155.582031 201.320312 C 155.578125 201.316406 155.570312 201.3125 155.566406 201.308594 C 155.574219 201.308594 155.578125 201.308594 155.582031 201.3125 C 155.578125 201.308594 155.570312 201.308594 155.566406 201.308594 C 155.53125 201.277344 155.496094 201.238281 155.457031 201.1875 Z M 152.019531 201.101562 C 151.992188 201.214844 151.957031 201.347656 151.921875 201.507812 C 151.9375 201.378906 151.957031 201.292969 151.972656 201.242188 C 151.988281 201.195312 152.003906 201.148438 152.019531 201.101562 Z M 156.195312 201.496094 L 156.195312 201.5 C 156.1875 201.511719 156.179688 201.519531 156.171875 201.53125 C 156.171875 201.527344 156.175781 201.527344 156.179688 201.523438 C 156.183594 201.515625 156.183594 201.515625 156.1875 201.511719 C 156.1875 201.511719 156.1875 201.511719 156.191406 201.503906 C 156.191406 201.503906 156.195312 201.5 156.195312 201.5 Z M 154.964844 201.421875 C 154.984375 201.429688 155 201.4375 155.019531 201.441406 C 155.023438 201.453125 155.03125 201.464844 155.042969 201.480469 C 155.0625 201.503906 155.082031 201.527344 155.105469 201.550781 C 155.09375 201.550781 155.082031 201.550781 155.074219 201.550781 C 155.058594 201.550781 155.039062 201.550781 155.027344 201.546875 C 155 201.503906 154.980469 201.464844 154.96875 201.429688 C 154.96875 201.425781 154.96875 201.425781 154.964844 201.421875 Z M 156.15625 201.550781 C 156.144531 201.554688 156.136719 201.5625 156.128906 201.566406 C 156.140625 201.5625 156.148438 201.558594 156.15625 201.550781 Z M 155.417969 201.410156 C 155.433594 201.421875 155.449219 201.433594 155.464844 201.441406 C 155.511719 201.472656 155.625 201.53125 155.8125 201.609375 C 155.84375 201.628906 155.878906 201.652344 155.914062 201.679688 C 155.9375 201.699219 155.960938 201.71875 155.980469 201.738281 C 155.921875 201.714844 155.835938 201.679688 155.71875 201.636719 C 155.601562 201.570312 155.5 201.496094 155.417969 201.410156 Z M 152.878906 201.761719 C 152.875 201.765625 152.871094 201.769531 152.867188 201.773438 L 152.875 201.765625 C 152.875 201.765625 152.878906 201.761719 152.878906 201.761719 Z M 152.910156 201.585938 C 152.902344 201.652344 152.894531 201.714844 152.882812 201.765625 C 152.871094 201.800781 152.859375 201.832031 152.839844 201.863281 C 152.839844 201.867188 152.835938 201.867188 152.832031 201.871094 C 152.847656 201.839844 152.859375 201.808594 152.867188 201.785156 C 152.882812 201.714844 152.898438 201.648438 152.910156 201.585938 Z M 152.355469 202.121094 C 152.355469 202.125 152.355469 202.128906 152.355469 202.132812 C 152.347656 202.144531 152.34375 202.15625 152.335938 202.167969 Z M 155.210938 202.121094 C 155.21875 202.128906 155.226562 202.132812 155.234375 202.136719 C 155.246094 202.167969 155.253906 202.191406 155.257812 202.214844 C 155.261719 202.222656 155.265625 202.234375 155.269531 202.246094 C 155.25 202.207031 155.230469 202.164062 155.210938 202.121094 Z M 155.585938 201.8125 C 155.597656 201.816406 155.609375 201.820312 155.625 201.824219 L 156.011719 201.925781 C 156.035156 201.9375 156.058594 201.949219 156.082031 201.957031 C 156.085938 201.96875 156.085938 201.976562 156.089844 201.984375 C 156.101562 202.027344 156.109375 202.078125 156.117188 202.140625 C 156.117188 202.179688 156.121094 202.214844 156.125 202.253906 C 156.109375 202.230469 156.097656 202.214844 156.085938 202.195312 C 156.011719 202.109375 155.933594 202.050781 155.859375 202.019531 C 155.816406 201.980469 155.753906 201.929688 155.679688 201.875 C 155.703125 201.882812 155.726562 201.886719 155.75 201.890625 C 155.722656 201.886719 155.695312 201.878906 155.667969 201.867188 C 155.664062 201.863281 155.660156 201.863281 155.65625 201.859375 C 155.636719 201.84375 155.613281 201.828125 155.585938 201.8125 Z M 155.980469 202.160156 C 155.988281 202.171875 155.996094 202.179688 156 202.191406 C 156.019531 202.214844 156.035156 202.246094 156.046875 202.28125 C 156.023438 202.234375 156.003906 202.195312 155.980469 202.160156 Z M 155.105469 201.550781 C 155.109375 201.554688 155.113281 201.558594 155.117188 201.5625 C 155.125 201.582031 155.132812 201.597656 155.140625 201.613281 C 155.164062 201.652344 155.195312 201.695312 155.238281 201.738281 C 155.273438 201.78125 155.347656 201.839844 155.464844 201.917969 C 155.496094 201.945312 155.574219 201.992188 155.695312 202.0625 L 155.785156 202.125 C 155.851562 202.179688 155.90625 202.230469 155.949219 202.28125 C 156.011719 202.351562 156.054688 202.414062 156.085938 202.46875 C 156.089844 202.484375 156.089844 202.503906 156.089844 202.519531 C 156.074219 202.480469 156.054688 202.441406 156.03125 202.402344 C 155.992188 202.339844 155.949219 202.289062 155.898438 202.246094 L 155.433594 201.972656 C 155.246094 201.8125 155.140625 201.710938 155.117188 201.675781 C 155.085938 201.632812 155.058594 201.59375 155.03125 201.558594 C 155.035156 201.558594 155.039062 201.558594 155.039062 201.558594 C 155.042969 201.558594 155.046875 201.558594 155.050781 201.558594 C 155.050781 201.558594 155.050781 201.558594 155.054688 201.558594 C 155.070312 201.558594 155.089844 201.554688 155.105469 201.550781 Z M 151.644531 201.527344 C 151.636719 201.558594 151.628906 201.597656 151.625 201.632812 C 151.617188 201.660156 151.617188 201.734375 151.625 201.859375 C 151.628906 201.933594 151.632812 201.988281 151.640625 202.023438 L 151.675781 202.246094 C 151.617188 202.363281 151.566406 202.476562 151.519531 202.578125 C 151.5 202.515625 151.476562 202.449219 151.453125 202.382812 C 151.433594 202.300781 151.421875 202.226562 151.417969 202.15625 C 151.40625 202.011719 151.4375 201.867188 151.519531 201.71875 C 151.515625 201.714844 151.558594 201.652344 151.644531 201.527344 Z M 152.054688 202.199219 L 151.917969 202.589844 C 151.917969 202.589844 151.917969 202.589844 151.917969 202.585938 C 151.917969 202.558594 151.917969 202.503906 151.914062 202.425781 C 151.957031 202.359375 152.003906 202.285156 152.054688 202.199219 Z M 156.132812 202.660156 C 156.128906 202.664062 156.128906 202.667969 156.128906 202.667969 C 156.128906 202.667969 156.128906 202.664062 156.132812 202.660156 Z M 153.191406 201.828125 C 153.191406 201.835938 153.191406 201.84375 153.191406 201.851562 C 153.199219 201.972656 153.191406 202.113281 153.175781 202.277344 C 153.164062 202.355469 153.152344 202.402344 153.140625 202.429688 C 153.011719 202.585938 152.917969 202.730469 152.855469 202.863281 L 152.839844 202.78125 L 152.824219 202.671875 C 152.816406 202.613281 152.820312 202.558594 152.832031 202.503906 C 152.84375 202.460938 152.859375 202.421875 152.882812 202.386719 C 153.046875 202.152344 153.128906 202.03125 153.128906 202.027344 C 153.152344 201.980469 153.171875 201.929688 153.183594 201.871094 C 153.1875 201.855469 153.1875 201.839844 153.191406 201.828125 Z M 152.171875 202.527344 C 152.167969 202.550781 152.160156 202.570312 152.15625 202.597656 C 152.15625 202.609375 152.152344 202.621094 152.148438 202.636719 L 152.023438 202.894531 C 152.039062 202.839844 152.058594 202.785156 152.078125 202.730469 Z M 156.003906 203.148438 C 155.988281 203.160156 155.972656 203.167969 155.960938 203.175781 C 155.972656 203.167969 155.988281 203.160156 156.003906 203.148438 Z M 156.0625 203.167969 C 156.0625 203.167969 156.0625 203.171875 156.0625 203.175781 C 156.066406 203.183594 156.074219 203.214844 156.082031 203.257812 C 156.070312 203.230469 156.0625 203.199219 156.0625 203.167969 Z M 151.230469 202.546875 L 151.40625 202.933594 C 151.398438 202.96875 151.390625 203.007812 151.382812 203.046875 C 151.367188 203.128906 151.359375 203.21875 151.363281 203.320312 C 151.359375 203.273438 151.355469 203.226562 151.347656 203.175781 C 151.339844 203.089844 151.324219 203.003906 151.308594 202.917969 Z M 151.75 202.710938 C 151.761719 202.828125 151.769531 202.9375 151.765625 203.039062 C 151.765625 203.164062 151.75 203.273438 151.726562 203.367188 C 151.726562 203.347656 151.726562 203.324219 151.722656 203.304688 C 151.714844 203.234375 151.6875 203.121094 151.640625 202.960938 C 151.667969 202.886719 151.699219 202.8125 151.734375 202.746094 C 151.738281 202.734375 151.746094 202.722656 151.75 202.710938 Z M 155.425781 202.8125 C 155.441406 202.839844 155.453125 202.867188 155.46875 202.890625 C 155.519531 202.96875 155.574219 203.035156 155.636719 203.085938 C 155.652344 203.140625 155.664062 203.207031 155.671875 203.277344 C 155.675781 203.355469 155.679688 203.417969 155.675781 203.46875 C 155.671875 203.5 155.667969 203.535156 155.664062 203.574219 L 155.644531 203.703125 C 155.644531 203.71875 155.644531 203.746094 155.644531 203.78125 C 155.644531 203.796875 155.640625 203.808594 155.640625 203.824219 C 155.640625 203.835938 155.636719 203.847656 155.636719 203.863281 C 155.589844 203.859375 155.546875 203.835938 155.515625 203.789062 C 155.476562 203.738281 155.441406 203.671875 155.414062 203.597656 C 155.402344 203.546875 155.394531 203.488281 155.394531 203.417969 L 155.425781 202.882812 C 155.425781 202.859375 155.429688 202.835938 155.425781 202.8125 Z M 155.195312 204.113281 C 155.195312 204.121094 155.195312 204.132812 155.191406 204.140625 C 155.195312 204.132812 155.195312 204.121094 155.195312 204.113281 Z M 150.96875 204.253906 C 150.980469 204.269531 150.988281 204.285156 151 204.296875 C 150.996094 204.292969 150.992188 204.285156 150.984375 204.277344 C 150.980469 204.269531 150.972656 204.261719 150.96875 204.253906 Z M 156.09375 204.453125 L 156.089844 204.457031 C 156.074219 204.46875 156.058594 204.472656 156.046875 204.480469 C 156.054688 204.476562 156.0625 204.472656 156.0625 204.472656 C 156.070312 204.46875 156.070312 204.46875 156.074219 204.46875 C 156.078125 204.464844 156.082031 204.464844 156.085938 204.460938 C 156.085938 204.460938 156.089844 204.457031 156.089844 204.457031 Z M 152.25 204.503906 Z M 152.25 204.503906 C 152.257812 204.507812 152.257812 204.511719 152.261719 204.515625 C 152.265625 204.515625 152.265625 204.519531 152.269531 204.519531 C 152.269531 204.523438 152.273438 204.523438 152.277344 204.527344 C 152.28125 204.527344 152.28125 204.527344 152.28125 204.527344 L 152.285156 204.53125 C 152.28125 204.527344 152.28125 204.527344 152.277344 204.523438 L 152.273438 204.523438 C 152.269531 204.519531 152.269531 204.519531 152.265625 204.515625 C 152.261719 204.511719 152.257812 204.507812 152.253906 204.503906 Z M 151.460938 204.761719 C 151.46875 204.761719 151.476562 204.765625 151.480469 204.765625 C 151.480469 204.765625 151.484375 204.765625 151.492188 204.765625 C 151.496094 204.769531 151.5 204.769531 151.503906 204.769531 C 151.507812 204.769531 151.507812 204.769531 151.511719 204.769531 L 151.515625 204.769531 L 151.496094 204.769531 C 151.492188 204.765625 151.488281 204.765625 151.484375 204.765625 C 151.476562 204.761719 151.46875 204.761719 151.460938 204.761719 Z M 152.949219 199.75 L 152.933594 199.75 C 152.582031 199.769531 152.265625 199.949219 151.984375 200.285156 C 151.949219 200.324219 151.910156 200.382812 151.863281 200.460938 L 151.585938 200.953125 L 151.28125 201.445312 C 151.222656 201.542969 151.183594 201.640625 151.152344 201.742188 C 151.128906 201.816406 151.117188 201.894531 151.113281 201.976562 C 151.101562 202.011719 151.09375 202.039062 151.089844 202.066406 C 151.078125 202.117188 151.070312 202.191406 151.066406 202.285156 C 151.066406 202.304688 151.066406 202.324219 151.066406 202.347656 L 151.066406 202.539062 C 151.066406 202.5625 151.066406 202.585938 151.066406 202.613281 C 151.066406 202.660156 151.074219 202.773438 151.09375 202.953125 C 151.097656 202.972656 151.101562 203.007812 151.109375 203.058594 C 151.136719 203.191406 151.152344 203.273438 151.15625 203.300781 C 151.191406 203.515625 151.21875 203.675781 151.234375 203.78125 C 151.25 203.894531 151.257812 203.984375 151.253906 204.046875 C 151.253906 204.160156 151.222656 204.246094 151.164062 204.304688 C 151.136719 204.332031 151.109375 204.34375 151.085938 204.34375 C 151.058594 204.34375 151.03125 204.328125 151.003906 204.300781 C 151.035156 204.335938 151.070312 204.355469 151.109375 204.355469 C 151.140625 204.355469 151.171875 204.34375 151.207031 204.320312 C 151.316406 204.238281 151.375 204.085938 151.390625 203.863281 C 151.394531 203.808594 151.390625 203.6875 151.378906 203.5 C 151.378906 203.496094 151.378906 203.496094 151.378906 203.492188 C 151.398438 203.605469 151.445312 203.800781 151.527344 204.078125 C 151.53125 204.078125 151.523438 204.03125 151.511719 203.933594 L 151.535156 203.453125 C 151.539062 203.390625 151.546875 203.332031 151.554688 203.28125 C 151.566406 203.3125 151.570312 203.332031 151.574219 203.347656 C 151.597656 203.4375 151.613281 203.519531 151.628906 203.601562 C 151.667969 203.824219 151.679688 204.011719 151.660156 204.164062 C 151.714844 203.90625 151.742188 203.667969 151.734375 203.445312 C 151.78125 203.363281 151.820312 203.269531 151.847656 203.167969 C 151.851562 203.203125 151.855469 203.242188 151.863281 203.28125 C 151.855469 203.3125 151.847656 203.34375 151.839844 203.371094 C 151.8125 203.476562 151.816406 203.78125 151.855469 204.28125 C 151.851562 204.363281 151.84375 204.417969 151.835938 204.445312 C 151.808594 204.539062 151.773438 204.613281 151.730469 204.671875 C 151.679688 204.738281 151.617188 204.773438 151.539062 204.773438 C 151.53125 204.773438 151.523438 204.773438 151.515625 204.769531 L 151.582031 204.777344 C 151.722656 204.777344 151.847656 204.667969 151.953125 204.449219 C 151.976562 204.390625 151.992188 204.328125 152 204.261719 C 152.007812 204.191406 152.011719 204.125 152.015625 204.066406 C 152.019531 204.070312 152.023438 204.070312 152.027344 204.070312 L 152.03125 204.070312 C 152.027344 204.070312 152.019531 204.070312 152.015625 204.066406 C 152.035156 203.8125 152.046875 203.664062 152.050781 203.621094 C 152.058594 203.535156 152.078125 203.453125 152.105469 203.378906 C 152.125 203.320312 152.15625 203.246094 152.199219 203.160156 C 152.203125 203.15625 152.207031 203.148438 152.207031 203.144531 C 152.246094 203.328125 152.269531 203.429688 152.269531 203.445312 C 152.285156 203.5625 152.289062 203.65625 152.289062 203.730469 C 152.253906 203.960938 152.179688 204.074219 152.0625 204.074219 C 152.054688 204.074219 152.042969 204.074219 152.03125 204.070312 C 152.050781 204.078125 152.074219 204.082031 152.09375 204.082031 C 152.210938 204.074219 152.308594 203.96875 152.382812 203.761719 C 152.40625 203.671875 152.417969 203.570312 152.417969 203.453125 C 152.414062 203.328125 152.398438 203.136719 152.371094 202.875 C 152.425781 202.78125 152.46875 202.703125 152.507812 202.632812 C 152.507812 202.640625 152.511719 202.652344 152.511719 202.664062 C 152.507812 202.695312 152.542969 202.832031 152.621094 203.074219 C 152.625 203.101562 152.628906 203.121094 152.628906 203.140625 L 152.472656 203.371094 C 152.453125 203.402344 152.441406 203.4375 152.433594 203.480469 C 152.421875 203.542969 152.414062 203.609375 152.417969 203.675781 C 152.464844 204.035156 152.484375 204.226562 152.480469 204.25 C 152.425781 204.4375 152.371094 204.535156 152.308594 204.535156 C 152.300781 204.535156 152.292969 204.53125 152.285156 204.53125 C 152.300781 204.539062 152.3125 204.542969 152.328125 204.542969 C 152.402344 204.535156 152.484375 204.441406 152.570312 204.261719 C 152.59375 204.207031 152.605469 204.007812 152.609375 203.664062 C 152.613281 203.632812 152.621094 203.59375 152.632812 203.546875 C 152.644531 203.519531 152.65625 203.496094 152.667969 203.476562 L 152.769531 203.367188 C 152.773438 203.433594 152.777344 203.53125 152.785156 203.65625 C 152.785156 203.703125 152.78125 203.761719 152.773438 203.832031 C 152.765625 203.875 152.753906 203.925781 152.734375 203.988281 C 152.722656 204.03125 152.683594 204.140625 152.609375 204.320312 C 152.605469 204.324219 152.601562 204.351562 152.59375 204.402344 C 152.597656 204.375 152.605469 204.351562 152.617188 204.328125 C 152.714844 204.191406 152.78125 204.082031 152.820312 204.007812 C 152.851562 203.949219 152.875 203.894531 152.890625 203.839844 C 152.914062 203.769531 152.925781 203.710938 152.933594 203.664062 C 152.949219 203.410156 152.960938 203.277344 152.964844 203.265625 C 152.972656 203.195312 152.988281 203.132812 153.011719 203.082031 C 153.039062 203.015625 153.074219 202.953125 153.121094 202.890625 C 153.152344 202.839844 153.226562 202.75 153.335938 202.621094 C 153.347656 202.609375 153.363281 202.589844 153.378906 202.566406 C 153.40625 202.515625 153.429688 202.449219 153.449219 202.367188 C 153.46875 202.253906 153.480469 202.183594 153.476562 202.152344 C 153.480469 202.078125 153.472656 201.972656 153.460938 201.839844 C 153.457031 201.804688 153.445312 201.746094 153.429688 201.667969 L 153.320312 201.222656 L 153.296875 201.09375 C 153.261719 200.902344 153.25 200.75 153.253906 200.632812 C 153.253906 200.597656 153.253906 200.570312 153.257812 200.550781 C 153.265625 200.515625 153.28125 200.476562 153.296875 200.441406 C 153.332031 200.355469 153.367188 200.300781 153.398438 200.269531 C 153.441406 200.234375 153.488281 200.214844 153.542969 200.214844 C 153.578125 200.214844 153.617188 200.222656 153.660156 200.242188 C 153.632812 200.222656 153.605469 200.207031 153.574219 200.195312 C 153.601562 200.199219 153.628906 200.207031 153.65625 200.21875 C 153.652344 200.222656 153.644531 200.222656 153.640625 200.226562 C 153.648438 200.226562 153.65625 200.222656 153.667969 200.222656 C 153.671875 200.222656 153.675781 200.226562 153.679688 200.226562 C 153.675781 200.226562 153.671875 200.222656 153.671875 200.222656 C 153.675781 200.21875 153.679688 200.21875 153.683594 200.21875 C 153.683594 200.222656 153.6875 200.230469 153.6875 200.234375 C 153.6875 200.226562 153.6875 200.222656 153.6875 200.21875 C 153.742188 200.210938 153.796875 200.203125 153.851562 200.203125 C 153.871094 200.203125 153.890625 200.207031 153.910156 200.207031 C 153.882812 200.214844 153.855469 200.222656 153.832031 200.234375 C 153.804688 200.234375 153.761719 200.246094 153.699219 200.261719 C 153.71875 200.261719 153.738281 200.261719 153.757812 200.261719 C 153.765625 200.261719 153.773438 200.261719 153.78125 200.261719 C 153.777344 200.261719 153.777344 200.261719 153.777344 200.261719 C 153.78125 200.261719 153.78125 200.261719 153.785156 200.261719 C 154.003906 200.273438 154.183594 200.398438 154.3125 200.636719 L 154.355469 200.753906 C 154.363281 200.769531 154.367188 200.785156 154.375 200.796875 C 154.375 200.800781 154.378906 200.808594 154.378906 200.8125 L 154.46875 201.308594 C 154.476562 201.335938 154.480469 201.355469 154.488281 201.371094 C 154.632812 201.664062 154.828125 202.015625 155.070312 202.425781 C 155.117188 202.515625 155.15625 202.601562 155.1875 202.691406 C 155.210938 202.761719 155.222656 202.8125 155.222656 202.847656 L 155.261719 203.292969 C 155.257812 203.25 155.25 203.203125 155.242188 203.148438 C 155.238281 203.125 155.226562 203.089844 155.214844 203.046875 C 155.191406 202.984375 155.167969 202.917969 155.144531 202.851562 L 154.984375 202.476562 C 154.972656 202.4375 154.957031 202.386719 154.9375 202.316406 L 154.921875 202.304688 L 154.925781 202.308594 C 154.925781 202.335938 154.933594 202.386719 154.945312 202.449219 C 154.996094 202.65625 155.023438 202.773438 155.027344 202.804688 C 155.042969 202.878906 155.058594 202.964844 155.078125 203.066406 C 155.082031 203.09375 155.089844 203.128906 155.09375 203.171875 L 155.117188 203.25 C 155.136719 203.34375 155.152344 203.414062 155.15625 203.460938 C 155.183594 203.644531 155.195312 203.773438 155.199219 203.84375 C 155.203125 203.953125 155.203125 204.007812 155.203125 204.007812 C 155.203125 204.035156 155.199219 204.066406 155.195312 204.105469 C 155.199219 204.082031 155.203125 204.058594 155.207031 204.03125 C 155.207031 204.019531 155.21875 203.949219 155.242188 203.828125 C 155.25 203.78125 155.253906 203.746094 155.257812 203.726562 C 155.269531 203.582031 155.273438 203.46875 155.269531 203.378906 L 155.273438 203.421875 C 155.285156 203.496094 155.300781 203.554688 155.320312 203.597656 C 155.414062 203.773438 155.515625 203.863281 155.621094 203.871094 L 155.636719 203.867188 C 155.632812 203.886719 155.628906 203.90625 155.625 203.929688 C 155.589844 204.164062 155.566406 204.320312 155.554688 204.390625 C 155.550781 204.421875 155.546875 204.464844 155.546875 204.511719 C 155.546875 204.605469 155.566406 204.695312 155.609375 204.785156 C 155.601562 204.761719 155.59375 204.738281 155.589844 204.714844 C 155.585938 204.667969 155.585938 204.613281 155.59375 204.550781 C 155.597656 204.523438 155.609375 204.484375 155.625 204.433594 C 155.695312 204.238281 155.742188 204.097656 155.765625 204.011719 C 155.789062 203.9375 155.8125 203.847656 155.832031 203.742188 C 155.84375 203.695312 155.847656 203.609375 155.835938 203.484375 C 155.832031 203.445312 155.828125 203.410156 155.820312 203.382812 C 155.8125 203.332031 155.796875 203.285156 155.785156 203.242188 C 155.777344 203.214844 155.765625 203.1875 155.757812 203.160156 C 155.777344 203.167969 155.792969 203.175781 155.8125 203.183594 C 155.832031 203.191406 155.855469 203.195312 155.878906 203.195312 C 155.902344 203.195312 155.929688 203.1875 155.957031 203.175781 C 155.941406 203.183594 155.925781 203.1875 155.90625 203.1875 C 155.890625 203.1875 155.871094 203.183594 155.851562 203.175781 C 155.8125 203.15625 155.773438 203.128906 155.730469 203.082031 L 155.726562 203.082031 C 155.714844 203.046875 155.699219 203.015625 155.683594 202.992188 C 155.644531 202.921875 155.605469 202.867188 155.566406 202.824219 C 155.5625 202.8125 155.558594 202.800781 155.554688 202.789062 C 155.542969 202.761719 155.535156 202.726562 155.527344 202.683594 L 155.476562 202.433594 C 155.449219 202.359375 155.421875 202.289062 155.394531 202.226562 C 155.484375 202.269531 155.617188 202.324219 155.792969 202.402344 C 155.824219 202.417969 155.859375 202.449219 155.898438 202.496094 C 155.953125 202.566406 155.996094 202.648438 156.019531 202.734375 C 156.023438 202.757812 156.027344 202.792969 156.03125 202.839844 L 156.042969 203.148438 C 156.042969 203.175781 156.054688 203.210938 156.082031 203.261719 C 156.085938 203.269531 156.085938 203.277344 156.089844 203.289062 C 156.121094 203.421875 156.148438 203.519531 156.164062 203.59375 C 156.171875 203.628906 156.179688 203.667969 156.1875 203.710938 C 156.210938 203.847656 156.21875 203.957031 156.21875 204.042969 C 156.21875 204.261719 156.175781 204.398438 156.09375 204.453125 C 156.226562 204.371094 156.308594 204.179688 156.335938 203.875 C 156.34375 203.796875 156.34375 203.714844 156.335938 203.636719 C 156.332031 203.574219 156.316406 203.441406 156.285156 203.238281 C 156.285156 203.226562 156.285156 203.214844 156.285156 203.207031 C 156.285156 203.203125 156.285156 203.199219 156.285156 203.195312 C 156.40625 203.457031 156.566406 203.601562 156.765625 203.628906 C 156.765625 203.628906 156.769531 203.628906 156.773438 203.628906 C 156.820312 203.628906 156.886719 203.574219 156.976562 203.460938 C 156.898438 203.550781 156.835938 203.59375 156.78125 203.59375 C 156.78125 203.59375 156.777344 203.59375 156.773438 203.59375 C 156.671875 203.554688 156.589844 203.480469 156.527344 203.371094 C 156.464844 203.261719 156.425781 203.160156 156.402344 203.0625 C 156.398438 203.042969 156.390625 202.996094 156.375 202.917969 C 156.355469 202.710938 156.339844 202.59375 156.332031 202.5625 L 156.253906 202.136719 C 156.246094 202.113281 156.242188 202.089844 156.234375 202.070312 C 156.363281 202.203125 156.425781 202.34375 156.417969 202.484375 C 156.441406 202.375 156.441406 202.28125 156.417969 202.210938 C 156.378906 202.089844 156.328125 201.992188 156.261719 201.917969 C 156.226562 201.882812 156.183594 201.847656 156.125 201.8125 C 156.101562 201.773438 156.074219 201.734375 156.046875 201.695312 C 155.988281 201.601562 155.9375 201.519531 155.890625 201.453125 C 155.960938 201.503906 156.03125 201.546875 156.105469 201.570312 C 156.113281 201.570312 156.121094 201.570312 156.128906 201.566406 C 156.125 201.566406 156.121094 201.566406 156.117188 201.566406 C 156.09375 201.566406 156.066406 201.550781 156.03125 201.515625 C 155.9375 201.429688 155.863281 201.339844 155.804688 201.242188 C 155.796875 201.222656 155.789062 201.207031 155.78125 201.1875 C 155.8125 201.183594 155.84375 201.175781 155.867188 201.15625 C 155.882812 201.144531 155.886719 201.125 155.878906 201.101562 C 155.871094 201.09375 155.867188 201.089844 155.859375 201.089844 C 155.855469 201.089844 155.851562 201.09375 155.847656 201.09375 C 155.828125 201.097656 155.8125 201.109375 155.796875 201.128906 L 155.789062 201.125 C 155.777344 201.125 155.765625 201.125 155.753906 201.121094 C 155.636719 200.753906 155.550781 200.519531 155.5 200.414062 C 155.441406 200.277344 155.371094 200.15625 155.285156 200.054688 C 155.128906 199.867188 154.886719 199.769531 154.5625 199.765625 L 154.546875 199.765625 C 154.375 199.769531 154.226562 199.789062 154.105469 199.832031 C 154.007812 199.851562 153.929688 199.878906 153.875 199.910156 C 153.925781 199.886719 153.976562 199.871094 154.03125 199.859375 C 153.921875 199.90625 153.835938 199.972656 153.777344 200.058594 C 153.902344 199.9375 154.078125 199.871094 154.304688 199.863281 C 154.308594 199.863281 154.3125 199.863281 154.316406 199.863281 C 154.359375 199.863281 154.394531 199.863281 154.433594 199.867188 C 154.511719 199.890625 154.585938 199.921875 154.648438 199.964844 C 154.671875 199.976562 154.707031 200.007812 154.742188 200.054688 C 154.703125 200.027344 154.664062 200.011719 154.621094 200.003906 L 154.617188 200.003906 C 154.613281 200.007812 154.609375 200.007812 154.605469 200.007812 C 154.601562 200.007812 154.601562 200.007812 154.601562 200.007812 C 154.660156 200.035156 154.710938 200.074219 154.757812 200.128906 C 154.777344 200.152344 154.796875 200.179688 154.8125 200.210938 C 154.761719 200.152344 154.707031 200.105469 154.648438 200.074219 C 154.535156 199.964844 154.402344 199.90625 154.246094 199.90625 L 154.234375 199.90625 C 154.058594 199.914062 153.917969 199.972656 153.808594 200.074219 C 153.753906 200.101562 153.726562 200.121094 153.726562 200.140625 C 153.738281 200.132812 153.75 200.125 153.765625 200.121094 C 153.753906 200.132812 153.746094 200.140625 153.738281 200.152344 C 153.761719 200.132812 153.785156 200.117188 153.808594 200.101562 C 153.828125 200.09375 153.851562 200.089844 153.871094 200.085938 C 153.820312 200.109375 153.789062 200.140625 153.769531 200.179688 C 153.785156 200.152344 153.816406 200.136719 153.855469 200.121094 C 153.839844 200.136719 153.820312 200.152344 153.804688 200.171875 L 153.800781 200.171875 C 153.769531 200.179688 153.738281 200.1875 153.714844 200.195312 C 153.695312 200.15625 153.671875 200.121094 153.644531 200.089844 C 153.605469 200.015625 153.542969 199.953125 153.457031 199.902344 C 153.308594 199.808594 153.140625 199.757812 152.949219 199.75 Z M 155.613281 204.789062 C 155.621094 204.804688 155.628906 204.824219 155.640625 204.839844 C 155.628906 204.824219 155.621094 204.804688 155.613281 204.789062 Z M 155.613281 204.789062 " fill-opacity="1" fill-rule="nonzero"/></g><g clip-path="url(#28a6f058db)"><g clip-path="url(#a62a03e2c6)"><g clip-path="url(#69e7e5bdff)"><g transform="matrix(1, 0, 0, 1, 234, 164)"><g clip-path="url(#20587a13af)"><g clip-path="url(#9f22e88dfc)"><g clip-path="url(#079527be9a)"><g clip-path="url(#9ea523b222)"><path fill="#38b6ff" d="M 31.585938 0.0546875 L 34.683594 55.878906 L 1.90625 57.695312 L -1.1875 1.875 Z M 31.585938 0.0546875 " fill-opacity="1" fill-rule="nonzero"/></g></g></g></g></g></g></g></g><g clip-path="url(#4039fa7ec4)"><g transform="matrix(1, 0, 0, 1, 235, 216)"><g clip-path="url(#70af058cf5)"><g clip-path="url(#4c482e3b48)"><path fill="#e6e6dd" d="M 0.210938 0.679688 L 4.707031 0.679688 L 4.707031 16.5625 L 0.210938 16.5625 Z M 0.210938 0.679688 " fill-opacity="1" fill-rule="nonzero"/></g></g></g></g><g transform="matrix(1, 0, 0, 1, 43, 234)"><g clip-path="url(#bc5cf9df7a)"><g clip-path="url(#729dac98fa)"><g fill="#e6e6dd" fill-opacity="1"><g transform="translate(0.665225, 10.905256)"><g><path d="M 2.359375 0.078125 C 1.597656 0.078125 1.046875 -0.109375 0.703125 -0.484375 C 0.367188 -0.867188 0.203125 -1.476562 0.203125 -2.3125 L 0.203125 -3.140625 L 1.859375 -3.140625 L 1.859375 -2.09375 C 1.859375 -1.675781 1.992188 -1.46875 2.265625 -1.46875 C 2.410156 -1.46875 2.507812 -1.507812 2.5625 -1.59375 C 2.625 -1.6875 2.65625 -1.835938 2.65625 -2.046875 C 2.65625 -2.316406 2.625 -2.539062 2.5625 -2.71875 C 2.5 -2.90625 2.414062 -3.054688 2.3125 -3.171875 C 2.207031 -3.296875 2.023438 -3.484375 1.765625 -3.734375 L 1.046875 -4.453125 C 0.484375 -5.003906 0.203125 -5.613281 0.203125 -6.28125 C 0.203125 -7 0.363281 -7.546875 0.6875 -7.921875 C 1.019531 -8.296875 1.503906 -8.484375 2.140625 -8.484375 C 2.898438 -8.484375 3.445312 -8.28125 3.78125 -7.875 C 4.113281 -7.476562 4.28125 -6.851562 4.28125 -6 L 2.5625 -6 L 2.546875 -6.578125 C 2.546875 -6.679688 2.515625 -6.765625 2.453125 -6.828125 C 2.390625 -6.898438 2.304688 -6.9375 2.203125 -6.9375 C 2.066406 -6.9375 1.96875 -6.898438 1.90625 -6.828125 C 1.84375 -6.753906 1.8125 -6.65625 1.8125 -6.53125 C 1.8125 -6.257812 1.96875 -5.976562 2.28125 -5.6875 L 3.25 -4.75 C 3.476562 -4.519531 3.664062 -4.304688 3.8125 -4.109375 C 3.96875 -3.910156 4.09375 -3.675781 4.1875 -3.40625 C 4.28125 -3.132812 4.328125 -2.816406 4.328125 -2.453125 C 4.328125 -1.617188 4.171875 -0.988281 3.859375 -0.5625 C 3.554688 -0.132812 3.054688 0.078125 2.359375 0.078125 Z M 2.359375 0.078125 "/></g></g></g></g><g fill="#e6e6dd" fill-opacity="1"><g transform="translate(5.169343, 10.905256)"><g/></g></g><g fill="#e6e6dd" fill-opacity="1"><g transform="translate(7.455595, 10.905256)"><g><path d="M 0.375 0 L 0.375 -8.40625 L 2.03125 -8.40625 L 2.03125 -5.03125 L 2.8125 -8.40625 L 4.515625 -8.40625 L 3.5625 -4.5625 L 4.703125 0 L 2.96875 0 L 2.046875 -4.0625 L 2.046875 0 Z M 0.375 0 "/></g></g></g><g fill="#e6e6dd" fill-opacity="1"><g transform="translate(12.067188, 10.905256)"><g><path d="M 0.140625 0 L 0.953125 -8.40625 L 3.8125 -8.40625 L 4.609375 0 L 3.015625 0 L 2.890625 -1.359375 L 1.875 -1.359375 L 1.78125 0 Z M 2 -2.703125 L 2.765625 -2.703125 L 2.390625 -6.96875 L 2.3125 -6.96875 Z M 2 -2.703125 "/></g></g></g><g fill="#e6e6dd" fill-opacity="1"><g transform="translate(16.805793, 10.905256)"><g><path d="M 0.375 -8.40625 L 2.59375 -8.40625 C 3.257812 -8.40625 3.734375 -8.1875 4.015625 -7.75 C 4.304688 -7.3125 4.453125 -6.675781 4.453125 -5.84375 C 4.453125 -5.007812 4.328125 -4.378906 4.078125 -3.953125 C 3.828125 -3.535156 3.367188 -3.328125 2.703125 -3.328125 L 2.03125 -3.328125 L 2.03125 0 L 0.375 0 Z M 2.125 -4.84375 C 2.320312 -4.84375 2.46875 -4.878906 2.5625 -4.953125 C 2.65625 -5.023438 2.71875 -5.128906 2.75 -5.265625 C 2.78125 -5.410156 2.796875 -5.613281 2.796875 -5.875 C 2.796875 -6.226562 2.753906 -6.484375 2.671875 -6.640625 C 2.597656 -6.796875 2.441406 -6.875 2.203125 -6.875 L 2.03125 -6.875 L 2.03125 -4.84375 Z M 2.125 -4.84375 "/></g></g></g><g fill="#e6e6dd" fill-opacity="1"><g transform="translate(21.417386, 10.905256)"><g><path d="M 0.375 0 L 0.375 -8.40625 L 3.734375 -8.40625 L 3.734375 -6.78125 L 2.078125 -6.78125 L 2.078125 -5.140625 L 3.671875 -5.140625 L 3.671875 -3.5625 L 2.078125 -3.5625 L 2.078125 -1.640625 L 3.84375 -1.640625 L 3.84375 0 Z M 0.375 0 "/></g></g></g><g fill="#e6e6dd" fill-opacity="1"><g transform="translate(25.442758, 10.905256)"><g><path d="M 0.375 0 L 0.375 -8.40625 L 2.046875 -8.40625 L 2.046875 -1.421875 L 3.78125 -1.421875 L 3.78125 0 Z M 0.375 0 "/></g></g></g><g fill="#e6e6dd" fill-opacity="1"><g transform="translate(29.321575, 10.905256)"><g><path d="M 2.375 0.078125 C 1.695312 0.078125 1.179688 -0.125 0.828125 -0.53125 C 0.472656 -0.945312 0.296875 -1.53125 0.296875 -2.28125 L 0.296875 -6.296875 C 0.296875 -7.015625 0.472656 -7.554688 0.828125 -7.921875 C 1.179688 -8.296875 1.695312 -8.484375 2.375 -8.484375 C 3.050781 -8.484375 3.566406 -8.296875 3.921875 -7.921875 C 4.273438 -7.554688 4.453125 -7.015625 4.453125 -6.296875 L 4.453125 -2.28125 C 4.453125 -1.53125 4.273438 -0.945312 3.921875 -0.53125 C 3.566406 -0.125 3.050781 0.078125 2.375 0.078125 Z M 2.375 -1.46875 C 2.53125 -1.46875 2.632812 -1.53125 2.6875 -1.65625 C 2.738281 -1.789062 2.765625 -1.972656 2.765625 -2.203125 L 2.765625 -6.3125 C 2.765625 -6.5 2.738281 -6.648438 2.6875 -6.765625 C 2.632812 -6.878906 2.535156 -6.9375 2.390625 -6.9375 C 2.109375 -6.9375 1.96875 -6.722656 1.96875 -6.296875 L 1.96875 -2.203125 C 1.96875 -1.960938 1.992188 -1.78125 2.046875 -1.65625 C 2.109375 -1.53125 2.21875 -1.46875 2.375 -1.46875 Z M 2.375 -1.46875 "/></g></g></g><g fill="#e6e6dd" fill-opacity="1"><g transform="translate(34.069952, 10.905256)"><g><path d="M 2.3125 0.078125 C 1.625 0.078125 1.113281 -0.113281 0.78125 -0.5 C 0.445312 -0.894531 0.28125 -1.476562 0.28125 -2.25 L 0.28125 -8.40625 L 1.90625 -8.40625 L 1.90625 -2.3125 C 1.90625 -2.050781 1.929688 -1.84375 1.984375 -1.6875 C 2.035156 -1.539062 2.144531 -1.46875 2.3125 -1.46875 C 2.488281 -1.46875 2.601562 -1.539062 2.65625 -1.6875 C 2.707031 -1.832031 2.734375 -2.039062 2.734375 -2.3125 L 2.734375 -8.40625 L 4.359375 -8.40625 L 4.359375 -2.25 C 4.359375 -1.476562 4.191406 -0.894531 3.859375 -0.5 C 3.523438 -0.113281 3.007812 0.078125 2.3125 0.078125 Z M 2.3125 0.078125 "/></g></g></g><g fill="#e6e6dd" fill-opacity="1"><g transform="translate(38.701089, 10.905256)"><g/></g></g><g fill="#e6e6dd" fill-opacity="1"><g transform="translate(40.987342, 10.905256)"><g><path d="M 1.140625 0 L 0.109375 -8.40625 L 1.71875 -8.40625 L 2.328125 -2.6875 L 2.875 -8.40625 L 4.484375 -8.40625 L 3.4375 0 Z M 1.140625 0 "/></g></g></g><g fill="#e6e6dd" fill-opacity="1"><g transform="translate(45.569628, 10.905256)"><g/></g></g><g fill="#e6e6dd" fill-opacity="1"><g transform="translate(47.85588, 10.905256)"><g><path d="M 0.375 0 L 0.375 -8.40625 L 2.03125 -8.40625 L 2.03125 -5.03125 L 2.8125 -8.40625 L 4.515625 -8.40625 L 3.5625 -4.5625 L 4.703125 0 L 2.96875 0 L 2.046875 -4.0625 L 2.046875 0 Z M 0.375 0 "/></g></g></g><g fill="#e6e6dd" fill-opacity="1"><g transform="translate(52.467474, 10.905256)"><g><path d="M 0.375 -8.40625 L 2.953125 -8.40625 C 3.359375 -8.40625 3.675781 -8.3125 3.90625 -8.125 C 4.132812 -7.9375 4.285156 -7.675781 4.359375 -7.34375 C 4.441406 -7.007812 4.484375 -6.578125 4.484375 -6.046875 C 4.484375 -5.578125 4.421875 -5.207031 4.296875 -4.9375 C 4.171875 -4.664062 3.957031 -4.476562 3.65625 -4.375 C 3.90625 -4.320312 4.085938 -4.195312 4.203125 -4 C 4.316406 -3.800781 4.375 -3.523438 4.375 -3.171875 L 4.359375 0 L 2.703125 0 L 2.703125 -3.28125 C 2.703125 -3.519531 2.65625 -3.671875 2.5625 -3.734375 C 2.476562 -3.796875 2.316406 -3.828125 2.078125 -3.828125 L 2.078125 0 L 0.375 0 Z M 2.484375 -5.296875 C 2.722656 -5.296875 2.84375 -5.546875 2.84375 -6.046875 C 2.84375 -6.273438 2.832031 -6.441406 2.8125 -6.546875 C 2.789062 -6.660156 2.753906 -6.738281 2.703125 -6.78125 C 2.648438 -6.820312 2.570312 -6.84375 2.46875 -6.84375 L 2.078125 -6.84375 L 2.078125 -5.296875 Z M 2.484375 -5.296875 "/></g></g></g><g fill="#e6e6dd" fill-opacity="1"><g transform="translate(57.127919, 10.905256)"><g><path d="M 0.140625 0 L 0.953125 -8.40625 L 3.8125 -8.40625 L 4.609375 0 L 3.015625 0 L 2.890625 -1.359375 L 1.875 -1.359375 L 1.78125 0 Z M 2 -2.703125 L 2.765625 -2.703125 L 2.390625 -6.96875 L 2.3125 -6.96875 Z M 2 -2.703125 "/></g></g></g><g fill="#e6e6dd" fill-opacity="1"><g transform="translate(61.866523, 10.905256)"><g><path d="M 0.375 -8.40625 L 2.65625 -8.40625 C 3.257812 -8.40625 3.703125 -8.253906 3.984375 -7.953125 C 4.265625 -7.648438 4.40625 -7.160156 4.40625 -6.484375 L 4.40625 -6.109375 C 4.40625 -5.304688 4.117188 -4.828125 3.546875 -4.671875 C 3.890625 -4.578125 4.132812 -4.363281 4.28125 -4.03125 C 4.425781 -3.707031 4.5 -3.269531 4.5 -2.71875 C 4.5 -1.820312 4.363281 -1.144531 4.09375 -0.6875 C 3.832031 -0.226562 3.351562 0 2.65625 0 L 0.375 0 Z M 2.359375 -5.25 C 2.503906 -5.25 2.601562 -5.300781 2.65625 -5.40625 C 2.707031 -5.507812 2.734375 -5.660156 2.734375 -5.859375 L 2.734375 -6.703125 C 2.734375 -6.972656 2.609375 -7.109375 2.359375 -7.109375 L 2.015625 -7.109375 L 2.015625 -5.25 Z M 2.1875 -1.484375 C 2.625 -1.484375 2.84375 -1.691406 2.84375 -2.109375 L 2.84375 -3.15625 C 2.84375 -3.40625 2.800781 -3.59375 2.71875 -3.71875 C 2.644531 -3.851562 2.515625 -3.921875 2.328125 -3.921875 L 2.015625 -3.921875 L 2.015625 -1.484375 Z M 2.1875 -1.484375 "/></g></g></g><g fill="#e6e6dd" fill-opacity="1"><g transform="translate(66.546513, 10.905256)"><g><path d="M 0.296875 0 L 0.296875 -8.40625 L 1.921875 -8.40625 L 1.921875 0 Z M 0.296875 0 "/></g></g></g><g fill="#e6e6dd" fill-opacity="1"><g transform="translate(68.764378, 10.905256)"><g><path d="M 2.328125 0.078125 C 1.710938 0.078125 1.21875 -0.113281 0.84375 -0.5 C 0.476562 -0.882812 0.296875 -1.410156 0.296875 -2.078125 L 0.296875 -5.953125 C 0.296875 -6.785156 0.460938 -7.414062 0.796875 -7.84375 C 1.128906 -8.269531 1.648438 -8.484375 2.359375 -8.484375 C 2.984375 -8.484375 3.484375 -8.3125 3.859375 -7.96875 C 4.242188 -7.632812 4.4375 -7.144531 4.4375 -6.5 L 4.4375 -5.0625 L 2.765625 -5.0625 L 2.765625 -6.296875 C 2.765625 -6.535156 2.734375 -6.703125 2.671875 -6.796875 C 2.609375 -6.890625 2.503906 -6.9375 2.359375 -6.9375 C 2.210938 -6.9375 2.109375 -6.882812 2.046875 -6.78125 C 1.992188 -6.675781 1.96875 -6.519531 1.96875 -6.3125 L 1.96875 -2.109375 C 1.96875 -1.878906 2 -1.710938 2.0625 -1.609375 C 2.132812 -1.515625 2.234375 -1.46875 2.359375 -1.46875 C 2.628906 -1.46875 2.765625 -1.679688 2.765625 -2.109375 L 2.765625 -3.625 L 4.453125 -3.625 L 4.453125 -2.03125 C 4.453125 -0.625 3.742188 0.078125 2.328125 0.078125 Z M 2.328125 0.078125 "/></g></g></g><g fill="#e6e6dd" fill-opacity="1"><g transform="translate(73.395516, 10.905256)"><g><path d="M 0.296875 0 L 0.296875 -8.40625 L 1.921875 -8.40625 L 1.921875 0 Z M 0.296875 0 "/></g></g></g></g></g></svg>