<svg xmlns="http://www.w3.org/2000/svg" xmlns:xlink="http://www.w3.org/1999/xlink" width="500" zoomAndPan="magnify" viewBox="0 0 375 374.999991" height="500" preserveAspectRatio="xMidYMid meet" version="1.0"><defs><g/><clipPath id="5cad056f99"><path d="M 313.875 115.3125 L 371.46875 115.3125 L 371.46875 231.574219 L 313.875 231.574219 Z M 313.875 115.3125 " clip-rule="nonzero"/></clipPath><clipPath id="99c4085458"><path d="M 0.875 0.3125 L 58.46875 0.3125 L 58.46875 116.574219 L 0.875 116.574219 Z M 0.875 0.3125 " clip-rule="nonzero"/></clipPath><clipPath id="79fe490094"><rect x="0" width="59" y="0" height="117"/></clipPath><clipPath id="b35b6cc435"><rect x="0" width="203" y="0" height="269"/></clipPath><clipPath id="6e3fe947b3"><rect x="0" width="69" y="0" height="95"/></clipPath><clipPath id="df58ed8e43"><rect x="0" width="313" y="0" height="198"/></clipPath><clipPath id="c96c6de11a"><path d="M 130.492188 191.117188 L 155.992188 191.117188 L 155.992188 233 L 130.492188 233 Z M 130.492188 191.117188 " clip-rule="nonzero"/></clipPath><clipPath id="4d9ca15522"><path d="M 275 89 L 327 89 L 327 136 L 275 136 Z M 275 89 " clip-rule="nonzero"/></clipPath><clipPath id="1f2c8c0135"><path d="M 275.128906 112.554688 L 289.917969 89.3125 L 326.703125 112.722656 L 311.914062 135.964844 Z M 275.128906 112.554688 " clip-rule="nonzero"/></clipPath><clipPath id="f1b08f5ab9"><path d="M 0.0390625 0.28125 L 51.878906 0.28125 L 51.878906 47 L 0.0390625 47 Z M 0.0390625 0.28125 " clip-rule="nonzero"/></clipPath><clipPath id="223bbe857c"><path d="M 0.128906 23.554688 L 14.917969 0.3125 L 51.703125 23.722656 L 36.914062 46.964844 Z M 0.128906 23.554688 " clip-rule="nonzero"/></clipPath><clipPath id="803a23d6e9"><rect x="0" width="52" y="0" height="47"/></clipPath><clipPath id="0ba4fb8a3a"><path d="M 242 211 L 274 211 L 274 237 L 242 237 Z M 242 211 " clip-rule="nonzero"/></clipPath><clipPath id="6abdac4315"><path d="M 275.820312 219.613281 L 268.597656 243.46875 L 242.039062 235.429688 L 249.261719 211.570312 Z M 275.820312 219.613281 " clip-rule="nonzero"/></clipPath><clipPath id="6d8900d9d7"><path d="M 273.589844 226.984375 L 270.828125 236.101562 L 242.074219 235.441406 L 249.296875 211.582031 Z M 273.589844 226.984375 " clip-rule="nonzero"/></clipPath><clipPath id="b619404923"><path d="M 0 0.441406 L 31.601562 0.441406 L 31.601562 25.160156 L 0 25.160156 Z M 0 0.441406 " clip-rule="nonzero"/></clipPath><clipPath id="7ddd76e338"><path d="M 33.820312 8.613281 L 26.597656 32.46875 L 0.0390625 24.429688 L 7.261719 0.570312 Z M 33.820312 8.613281 " clip-rule="nonzero"/></clipPath><clipPath id="ad2c378360"><path d="M 31.589844 15.984375 L 28.828125 25.101562 L 0.0742188 24.441406 L 7.296875 0.582031 Z M 31.589844 15.984375 " clip-rule="nonzero"/></clipPath><clipPath id="06b8de273e"><rect x="0" width="32" y="0" height="26"/></clipPath><clipPath id="08e59ee935"><path d="M 137.632812 190.285156 L 145.132812 190.285156 L 145.132812 198.535156 L 137.632812 198.535156 Z M 137.632812 190.285156 " clip-rule="nonzero"/></clipPath><clipPath id="33d944c6ed"><path d="M 137.632812 190.285156 L 145.132812 190.285156 L 145.132812 197 L 137.632812 197 Z M 137.632812 190.285156 " clip-rule="nonzero"/></clipPath><clipPath id="ffc0c336e2"><path d="M 240 146 L 282 146 L 282 218 L 240 218 Z M 240 146 " clip-rule="nonzero"/></clipPath><clipPath id="b1c6bbd34c"><path d="M 279.710938 146.386719 L 283.546875 215.546875 L 242.9375 217.800781 L 239.101562 148.636719 Z M 279.710938 146.386719 " clip-rule="nonzero"/></clipPath><clipPath id="fdd1e514c0"><path d="M 281.847656 184.894531 L 279.710938 146.386719 L 240.800781 179.238281 L 242.9375 217.75 Z M 281.847656 184.894531 " clip-rule="nonzero"/></clipPath><clipPath id="395cc77787"><path d="M 0.71875 0.160156 L 42 0.160156 L 42 71.921875 L 0.71875 71.921875 Z M 0.71875 0.160156 " clip-rule="nonzero"/></clipPath><clipPath id="87a2c05ade"><path d="M 39.710938 0.386719 L 43.546875 69.546875 L 2.9375 71.800781 L -0.898438 2.636719 Z M 39.710938 0.386719 " clip-rule="nonzero"/></clipPath><clipPath id="50fc660770"><path d="M 41.847656 38.894531 L 39.710938 0.386719 L 0.800781 33.238281 L 2.9375 71.75 Z M 41.847656 38.894531 " clip-rule="nonzero"/></clipPath><clipPath id="e45b3d01ed"><rect x="0" width="42" y="0" height="72"/></clipPath><clipPath id="9891eca6c0"><path d="M 242.078125 211.589844 L 247.652344 211.589844 L 247.652344 231.261719 L 242.078125 231.261719 Z M 242.078125 211.589844 " clip-rule="nonzero"/></clipPath><clipPath id="2c5faa6d43"><path d="M 0.078125 0.589844 L 5.652344 0.589844 L 5.652344 20.261719 L 0.078125 20.261719 Z M 0.078125 0.589844 " clip-rule="nonzero"/></clipPath><clipPath id="f5b8bdbb3e"><rect x="0" width="6" y="0" height="21"/></clipPath></defs><g clip-path="url(#5cad056f99)"><g transform="matrix(1, 0, 0, 1, 313, 115)"><g clip-path="url(#79fe490094)"><g clip-path="url(#99c4085458)"><path fill="#e6e6dd" d="M 0.875 0.3125 L 58.46875 0.3125 L 58.46875 116.625 L 0.875 116.625 Z M 0.875 0.3125 " fill-opacity="1" fill-rule="nonzero"/></g></g></g></g><g transform="matrix(1, 0, 0, 1, 172, 40)"><g clip-path="url(#b35b6cc435)"><g fill="#38b6ff" fill-opacity="1"><g transform="translate(31.901111, 177.88119)"><g><path d="M 2.46875 1.5 L 17.125 -22.59375 L 98.609375 -88.359375 L 71.265625 -105 L 86.09375 -129.40625 L 141.546875 -95.671875 L 127.453125 -72.5 L 44.65625 -6.28125 L 74.296875 11.75 L 59.453125 36.15625 Z M 2.46875 1.5 "/></g></g></g></g></g><g transform="matrix(1, 0, 0, 1, 306, 126)"><g clip-path="url(#6e3fe947b3)"><g fill="#000000" fill-opacity="1"><g transform="translate(54.724304, 93.964396)"><g><path d="M -41.21875 -1.828125 L -41.21875 -13 C -41.21875 -16.007812 -40.476562 -18.191406 -39 -19.546875 C -37.53125 -20.910156 -35.132812 -21.59375 -31.8125 -21.59375 L -29.984375 -21.59375 C -26.054688 -21.59375 -23.707031 -20.1875 -22.9375 -17.375 C -22.488281 -19.101562 -21.445312 -20.316406 -19.8125 -21.015625 C -18.1875 -21.722656 -16.03125 -22.078125 -13.34375 -22.078125 C -8.957031 -22.078125 -5.632812 -21.421875 -3.375 -20.109375 C -1.125 -18.796875 0 -16.425781 0 -13 L 0 -1.828125 Z M -25.71875 -11.5625 C -25.71875 -12.269531 -25.976562 -12.75 -26.5 -13 C -27.03125 -13.257812 -27.78125 -13.390625 -28.75 -13.390625 L -32.875 -13.390625 C -34.21875 -13.390625 -34.890625 -12.796875 -34.890625 -11.609375 L -34.890625 -9.890625 L -25.71875 -9.890625 Z M -7.25 -10.703125 C -7.25 -12.847656 -8.269531 -13.921875 -10.3125 -13.921875 L -15.453125 -13.921875 C -16.703125 -13.921875 -17.644531 -13.734375 -18.28125 -13.359375 C -18.914062 -12.992188 -19.234375 -12.347656 -19.234375 -11.421875 L -19.234375 -9.890625 L -7.296875 -9.890625 Z M -7.25 -10.703125 "/></g></g></g><g fill="#000000" fill-opacity="1"><g transform="translate(54.724304, 70.981879)"><g><path d="M -41.21875 -1.828125 L -41.21875 -14.484375 C -41.21875 -16.503906 -40.757812 -18.066406 -39.84375 -19.171875 C -38.9375 -20.273438 -37.660156 -21.019531 -36.015625 -21.40625 C -34.367188 -21.789062 -32.265625 -21.984375 -29.703125 -21.984375 C -27.367188 -21.984375 -25.546875 -21.675781 -24.234375 -21.0625 C -22.921875 -20.457031 -22.007812 -19.398438 -21.5 -17.890625 C -21.238281 -19.140625 -20.613281 -20.046875 -19.625 -20.609375 C -18.632812 -21.171875 -17.289062 -21.453125 -15.59375 -21.453125 L 0 -21.359375 L 0 -13.296875 L -16.125 -13.296875 C -17.269531 -13.296875 -18.003906 -13.070312 -18.328125 -12.625 C -18.648438 -12.175781 -18.8125 -11.359375 -18.8125 -10.171875 L 0 -10.171875 L 0 -1.828125 Z M -25.953125 -12.1875 C -25.953125 -13.34375 -27.203125 -13.921875 -29.703125 -13.921875 C -30.785156 -13.921875 -31.597656 -13.867188 -32.140625 -13.765625 C -32.691406 -13.671875 -33.070312 -13.492188 -33.28125 -13.234375 C -33.488281 -12.984375 -33.59375 -12.617188 -33.59375 -12.140625 L -33.59375 -10.21875 L -25.953125 -10.21875 Z M -25.953125 -12.1875 "/></g></g></g><g fill="#000000" fill-opacity="1"><g transform="translate(54.724304, 48.095325)"><g><path d="M 0 -1.828125 L -41.21875 -1.828125 L -41.21875 -10.3125 L -21.5 -14.109375 L -41.21875 -14.109375 L -41.21875 -22.078125 L 0 -22.078125 L 0 -14.015625 L -20.640625 -9.890625 L 0 -9.890625 Z M 0 -1.828125 "/></g></g></g><g fill="#000000" fill-opacity="1"><g transform="translate(54.724304, 24.201186)"><g><path d="M 0 -0.71875 L -41.21875 -4.703125 L -41.21875 -18.671875 L 0 -22.59375 L 0 -14.78125 L -6.671875 -14.203125 L -6.671875 -9.21875 L 0 -8.734375 Z M -13.25 -9.84375 L -13.25 -13.578125 L -34.21875 -11.75 L -34.21875 -11.375 Z M -13.25 -9.84375 "/></g></g></g></g></g><g transform="matrix(1, 0, 0, 1, 0, 78)"><g clip-path="url(#df58ed8e43)"><g fill="#e6e6dd" fill-opacity="1"><g transform="translate(0.210865, 153.70052)"><g><path d="M 5.109375 0 L 5.109375 -115.484375 L 27.96875 -115.484375 L 27.96875 -69.234375 L 38.71875 -115.484375 L 61.96875 -115.484375 L 49.0625 -62.640625 L 64.671875 0 L 40.734375 0 L 28.09375 -55.921875 L 28.09375 0 Z M 5.109375 0 "/></g></g></g><g fill="#e6e6dd" fill-opacity="1"><g transform="translate(63.665011, 153.70052)"><g><path d="M 31.859375 1.078125 C 22.359375 1.078125 15.300781 -1.609375 10.6875 -6.984375 C 6.070312 -12.367188 3.765625 -20.347656 3.765625 -30.921875 L 3.765625 -115.484375 L 26.21875 -115.484375 L 26.21875 -31.859375 C 26.21875 -28.179688 26.570312 -25.3125 27.28125 -23.25 C 28 -21.195312 29.523438 -20.171875 31.859375 -20.171875 C 34.191406 -20.171875 35.71875 -21.175781 36.4375 -23.1875 C 37.15625 -25.207031 37.515625 -28.097656 37.515625 -31.859375 L 37.515625 -115.484375 L 59.953125 -115.484375 L 59.953125 -30.921875 C 59.953125 -20.347656 57.644531 -12.367188 53.03125 -6.984375 C 48.414062 -1.609375 41.359375 1.078125 31.859375 1.078125 Z M 31.859375 1.078125 "/></g></g></g><g fill="#e6e6dd" fill-opacity="1"><g transform="translate(127.388034, 153.70052)"><g><path d="M 5.109375 -115.484375 L 36.96875 -115.484375 C 45.21875 -115.484375 51.398438 -113.195312 55.515625 -108.625 C 59.640625 -104.050781 61.75 -97.285156 61.84375 -88.328125 L 62.109375 -34.28125 C 62.203125 -22.894531 60.226562 -14.332031 56.1875 -8.59375 C 52.15625 -2.863281 45.476562 0 36.15625 0 L 5.109375 0 Z M 32.40625 -20.4375 C 36.613281 -20.4375 38.71875 -22.5 38.71875 -26.625 L 38.71875 -86.171875 C 38.71875 -88.773438 38.515625 -90.722656 38.109375 -92.015625 C 37.710938 -93.316406 36.972656 -94.191406 35.890625 -94.640625 C 34.816406 -95.085938 33.160156 -95.3125 30.921875 -95.3125 L 28.359375 -95.3125 L 28.359375 -20.4375 Z M 32.40625 -20.4375 "/></g></g></g><g fill="#e6e6dd" fill-opacity="1"><g transform="translate(193.665351, 153.70052)"><g><path d="M 5.109375 0 L 5.109375 -115.484375 L 28.234375 -115.484375 L 28.234375 -19.625 L 52.03125 -19.625 L 52.03125 0 Z M 5.109375 0 "/></g></g><g transform="translate(247.036728, 153.70052)"><g><path d="M 2.015625 0 L 13.171875 -115.484375 L 52.296875 -115.484375 L 63.3125 0 L 41.40625 0 L 39.796875 -18.6875 L 25.8125 -18.6875 L 24.46875 0 Z M 27.5625 -37.109375 L 38.046875 -37.109375 L 32.9375 -95.859375 L 31.859375 -95.859375 Z M 27.5625 -37.109375 "/></g></g></g></g></g><g clip-path="url(#c96c6de11a)"><path fill="#000000" d="M 141.460938 215.496094 C 141.460938 215.496094 142.1875 215.5 142.898438 215.535156 C 143.605469 215.574219 144.949219 215.554688 144.949219 215.554688 C 144.949219 215.554688 144.738281 215.878906 144.667969 216.128906 C 144.597656 216.382812 144.632812 216.542969 144.613281 216.8125 C 144.597656 217.082031 144.398438 217.296875 144.199219 217.675781 C 144.003906 218.050781 143.964844 218.878906 143.964844 218.96875 C 143.964844 219.0625 144.003906 219.238281 143.914062 219.257812 C 143.820312 219.277344 143.480469 220.230469 143.480469 220.230469 L 142.636719 219.222656 C 142.636719 219.222656 142.152344 218.394531 141.917969 218.105469 C 141.683594 217.816406 141.519531 217.421875 141.519531 217.421875 L 141.46875 215.695312 Z M 155.496094 205.457031 L 155.488281 205.421875 L 155.507812 205.421875 C 155.511719 205.421875 155.511719 205.40625 155.507812 205.390625 L 155.503906 205.363281 C 155.5 205.347656 155.496094 205.335938 155.492188 205.335938 C 155.488281 205.335938 155.488281 205.335938 155.488281 205.339844 L 155.472656 205.34375 C 155.472656 205.339844 155.472656 205.335938 155.46875 205.335938 L 155.457031 205.257812 L 155.890625 205.1875 C 155.890625 205.1875 155.878906 205.066406 155.925781 204.835938 C 155.972656 204.601562 156.191406 204.457031 156.191406 204.457031 C 156.191406 204.457031 156.285156 204.375 156.253906 204.214844 C 156.253906 204.214844 156.253906 204.210938 156.253906 204.210938 C 156.226562 204.050781 156.105469 204.007812 156.105469 204.007812 C 156.105469 204.007812 155.851562 203.949219 155.722656 203.75 C 155.59375 203.550781 155.5625 203.4375 155.5625 203.4375 L 155.140625 203.523438 L 155.121094 203.433594 C 155.121094 203.429688 155.121094 203.429688 155.121094 203.429688 L 155.140625 203.425781 C 155.140625 203.429688 155.140625 203.429688 155.144531 203.429688 C 155.148438 203.429688 155.148438 203.414062 155.148438 203.398438 L 155.140625 203.371094 C 155.140625 203.355469 155.132812 203.34375 155.128906 203.34375 L 155.109375 203.34375 L 155.101562 203.3125 C 155.097656 203.277344 155.074219 203.253906 155.054688 203.257812 C 155.035156 203.265625 155.023438 203.292969 155.03125 203.324219 L 155.039062 203.359375 L 154.789062 203.40625 C 154.792969 203.3125 154.75 203.242188 154.675781 203.230469 C 154.65625 203.226562 154.636719 203.230469 154.617188 203.234375 C 154.570312 203.238281 154.515625 203.277344 154.472656 203.339844 C 154.449219 203.371094 154.433594 203.40625 154.421875 203.441406 C 154.421875 203.445312 154.421875 203.445312 154.417969 203.445312 C 154.414062 203.460938 154.40625 203.476562 154.40625 203.488281 C 154.40625 203.492188 154.40625 203.492188 154.40625 203.496094 C 154.40625 203.496094 154.40625 203.5 154.402344 203.503906 C 154.394531 203.566406 154.398438 203.621094 154.421875 203.660156 C 154.425781 203.664062 154.429688 203.671875 154.4375 203.679688 L 154.339844 203.699219 L 154.320312 203.585938 C 154.320312 203.585938 154.320312 203.582031 154.320312 203.582031 L 154.335938 203.582031 C 154.339844 203.582031 154.339844 203.585938 154.34375 203.582031 C 154.347656 203.582031 154.347656 203.566406 154.34375 203.554688 L 154.339844 203.523438 C 154.335938 203.507812 154.332031 203.496094 154.328125 203.496094 L 154.308594 203.5 L 154.296875 203.457031 C 154.289062 203.425781 154.269531 203.402344 154.25 203.40625 C 154.230469 203.410156 154.21875 203.4375 154.222656 203.472656 L 154.230469 203.507812 L 153.976562 203.554688 C 153.976562 203.554688 153.976562 203.554688 153.972656 203.554688 L 153.941406 203.5625 C 153.9375 203.5625 153.933594 203.5625 153.929688 203.566406 C 153.90625 203.503906 153.871094 203.445312 153.828125 203.40625 C 153.734375 203.316406 153.640625 203.339844 153.617188 203.460938 C 153.613281 203.488281 153.613281 203.515625 153.613281 203.542969 C 153.613281 203.578125 153.621094 203.613281 153.632812 203.65625 L 153.4375 203.691406 C 153.441406 203.601562 153.398438 203.527344 153.328125 203.515625 C 153.308594 203.515625 153.285156 203.515625 153.265625 203.523438 C 153.21875 203.527344 153.164062 203.5625 153.121094 203.625 C 153.097656 203.660156 153.082031 203.691406 153.070312 203.730469 C 153.070312 203.730469 153.070312 203.730469 153.066406 203.730469 C 153.0625 203.746094 153.058594 203.761719 153.054688 203.773438 C 153.054688 203.777344 153.054688 203.777344 153.054688 203.777344 C 153.054688 203.78125 153.054688 203.785156 153.050781 203.785156 C 153.042969 203.847656 153.046875 203.902344 153.070312 203.941406 C 153.074219 203.945312 153.078125 203.953125 153.082031 203.957031 L 153.015625 203.972656 L 152.726562 204.183594 L 152.605469 204.207031 L 152.605469 204.21875 L 149.617188 204.742188 C 149.589844 204.195312 149.53125 203.460938 149.503906 203.210938 C 149.46875 202.886719 149.234375 201.160156 149.019531 200.621094 C 148.804688 200.082031 148.621094 199.867188 148.621094 199.6875 C 148.621094 199.503906 148.082031 198.644531 147.613281 198.285156 C 147.148438 197.925781 146.878906 197.90625 146.769531 197.855469 C 146.664062 197.800781 145.394531 197.277344 145.035156 197.207031 C 144.675781 197.132812 144.199219 196.953125 144.199219 196.953125 C 144.199219 196.953125 144.136719 196.621094 143.9375 196.378906 C 143.738281 196.136719 143.640625 196.082031 143.640625 196.082031 L 143.625 195.605469 C 143.625 195.605469 143.769531 195.613281 143.8125 195.316406 C 143.855469 195.019531 143.648438 194.082031 143.597656 193.957031 C 143.542969 193.835938 143.511719 193.855469 143.511719 193.855469 C 143.511719 193.855469 143.363281 192.652344 142.785156 192.128906 C 142.210938 191.605469 141.636719 191.53125 141.382812 191.480469 C 141.132812 191.425781 140.933594 191.246094 140.464844 191.386719 C 140 191.53125 139.550781 191.875 139.152344 192.253906 C 138.757812 192.628906 138.640625 193.898438 138.65625 194.207031 C 138.675781 194.511719 138.882812 194.953125 138.964844 195.121094 C 139.042969 195.292969 139.097656 195.402344 139.171875 195.535156 C 139.242188 195.671875 139.234375 195.671875 139.269531 195.75 C 139.304688 195.832031 139.476562 196.605469 139.628906 196.929688 C 139.78125 197.25 139.882812 197.414062 139.882812 197.414062 L 137.578125 197.738281 C 137.578125 197.738281 137.597656 197.859375 137.488281 197.917969 C 137.378906 197.972656 137.488281 197.917969 137.199219 197.988281 C 136.910156 198.058594 136.769531 198.167969 136.585938 198.277344 C 136.40625 198.386719 136.320312 198.421875 136.101562 198.691406 C 135.886719 198.960938 135.492188 198.796875 135.382812 199.035156 C 135.277344 199.269531 135.3125 199.179688 135.148438 199.394531 C 134.988281 199.609375 134.671875 199.816406 134.402344 200.015625 C 134.132812 200.214844 134.304688 199.988281 134.050781 200.363281 C 133.800781 200.742188 133.683594 200.671875 133.421875 200.886719 C 133.160156 201.101562 131.941406 201.957031 131.757812 202.351562 C 131.578125 202.75 131.507812 202.621094 131.507812 203.234375 C 131.507812 203.84375 131.507812 203.773438 131.8125 204.113281 C 131.84375 204.148438 131.875 204.179688 131.902344 204.210938 C 131.292969 204.828125 131.105469 205.4375 131.105469 205.4375 C 131.105469 205.4375 130.488281 207.0625 130.929688 209.042969 L 130.941406 209.097656 L 130.949219 209.15625 C 131.25 211.160156 132.417969 212.453125 132.417969 212.453125 C 132.417969 212.453125 132.894531 213.054688 133.84375 213.40625 C 134.25 213.558594 134.679688 213.625 135.128906 213.597656 C 135.105469 213.691406 135.09375 213.777344 135.085938 213.863281 C 135.050781 214.4375 134.941406 214.511719 135.050781 215.230469 C 135.160156 215.949219 135.121094 216.164062 135.734375 217.175781 C 136.34375 218.183594 136.632812 218.324219 136.992188 218.863281 C 137.355469 219.40625 137.246094 219.476562 137.570312 219.585938 C 137.890625 219.691406 139.042969 220.308594 139.042969 220.308594 L 139.03125 224.480469 C 138.726562 224.546875 138.191406 224.890625 138.324219 225.257812 C 138.433594 225.554688 138.65625 225.796875 138.984375 225.910156 L 138.917969 231.90625 C 138.875 231.980469 138.847656 232.066406 138.847656 232.164062 C 138.847656 232.289062 138.890625 232.398438 138.964844 232.480469 L 139.539062 232.480469 C 139.613281 232.398438 139.65625 232.285156 139.65625 232.164062 C 139.65625 232.039062 139.609375 231.921875 139.535156 231.839844 L 139.601562 226.667969 C 139.601562 226.667969 140.023438 226.71875 140.210938 226.683594 C 140.402344 226.648438 140.492188 226.621094 140.492188 226.621094 C 140.492188 226.621094 140.542969 230.183594 140.558594 231.28125 C 140.503906 231.359375 140.46875 231.457031 140.46875 231.5625 C 140.46875 231.6875 140.511719 231.804688 140.585938 231.882812 L 141.160156 231.882812 C 141.234375 231.800781 141.277344 231.6875 141.277344 231.5625 C 141.277344 231.4375 141.234375 231.324219 141.160156 231.246094 L 141.054688 226.449219 C 141.054688 226.449219 143.382812 226.53125 143.8125 226.503906 C 144.246094 226.476562 144.382812 226.449219 144.382812 226.449219 C 144.382812 226.449219 144.8125 227.644531 145.117188 227.835938 C 145.425781 228.023438 146.117188 228.21875 146.269531 228.238281 C 146.421875 228.253906 146.628906 228.253906 146.628906 228.253906 L 146.738281 231.4375 C 146.703125 231.503906 146.683594 231.582031 146.683594 231.667969 C 146.683594 231.792969 146.730469 231.910156 146.804688 231.992188 L 147.371094 231.992188 C 147.445312 231.910156 147.492188 231.792969 147.492188 231.667969 C 147.492188 231.574219 147.46875 231.488281 147.425781 231.417969 L 147.332031 228.238281 C 147.332031 228.238281 147.546875 228.175781 147.691406 228.140625 C 147.835938 228.101562 147.898438 228.042969 147.898438 228.042969 C 147.898438 228.042969 148.019531 231.832031 148.054688 232.355469 C 148.050781 232.371094 148.050781 232.386719 148.050781 232.402344 C 148.050781 232.542969 148.109375 232.664062 148.195312 232.746094 L 148.71875 232.746094 C 148.804688 232.664062 148.859375 232.539062 148.859375 232.402344 C 148.859375 232.335938 148.847656 232.273438 148.824219 232.214844 L 148.417969 225.675781 C 148.417969 225.675781 148.910156 225.503906 149.09375 225.324219 C 149.273438 225.144531 149.335938 224.976562 149.253906 224.757812 C 149.171875 224.542969 148.859375 224.238281 148.625 224.136719 L 148.222656 223.964844 L 148.113281 219.847656 C 148.113281 219.847656 149.015625 218.15625 149.191406 217.507812 C 149.375 216.859375 149.140625 216.246094 149.300781 216.050781 C 149.460938 215.851562 149.605469 214.59375 149.625 214.398438 C 149.640625 214.199219 149.554688 212.8125 149.300781 212.148438 C 149.046875 211.480469 148.90625 211.214844 148.796875 210.960938 C 148.6875 210.707031 148.617188 210.476562 148.617188 210.476562 C 148.617188 210.476562 148.976562 210.746094 148.957031 210.511719 C 148.941406 210.277344 148.707031 209.792969 148.6875 209.613281 C 148.671875 209.429688 148.398438 208.640625 148.398438 208.441406 C 148.398438 208.246094 148.363281 207.507812 148.363281 207.507812 C 148.363281 207.507812 149.046875 207.4375 149.441406 206.878906 C 149.691406 206.527344 149.761719 206.390625 149.769531 206.246094 L 152.855469 205.566406 L 152.855469 205.570312 L 152.976562 205.546875 L 152.96875 205.515625 L 153.316406 205.613281 L 153.371094 205.601562 C 153.355469 205.625 153.351562 205.648438 153.351562 205.675781 C 153.351562 205.679688 153.351562 205.683594 153.351562 205.6875 C 153.355469 205.742188 153.398438 205.800781 153.464844 205.851562 C 153.464844 205.855469 153.46875 205.855469 153.472656 205.859375 C 153.476562 205.859375 153.480469 205.863281 153.484375 205.867188 C 153.488281 205.867188 153.492188 205.871094 153.496094 205.875 C 153.503906 205.878906 153.511719 205.882812 153.523438 205.886719 C 153.539062 205.898438 153.558594 205.90625 153.578125 205.914062 C 153.652344 205.9375 153.722656 205.9375 153.761719 205.910156 C 153.78125 205.902344 153.796875 205.890625 153.8125 205.878906 C 153.855469 205.832031 153.855469 205.765625 153.816406 205.703125 L 153.988281 205.671875 C 153.988281 205.699219 153.988281 205.726562 153.992188 205.75 C 154.003906 205.875 154.082031 205.925781 154.175781 205.867188 C 154.238281 205.824219 154.292969 205.738281 154.316406 205.644531 L 154.347656 205.640625 C 154.351562 205.640625 154.351562 205.636719 154.355469 205.636719 L 154.609375 205.59375 L 154.617188 205.625 C 154.621094 205.65625 154.644531 205.683594 154.664062 205.675781 C 154.683594 205.671875 154.695312 205.644531 154.6875 205.613281 L 154.679688 205.578125 L 154.699219 205.574219 C 154.703125 205.574219 154.703125 205.558594 154.703125 205.546875 L 154.695312 205.515625 C 154.695312 205.5 154.6875 205.488281 154.683594 205.488281 C 154.683594 205.488281 154.683594 205.492188 154.683594 205.492188 L 154.664062 205.496094 C 154.664062 205.492188 154.664062 205.492188 154.664062 205.492188 L 154.644531 205.394531 L 154.84375 205.363281 C 154.804688 205.402344 154.773438 205.449219 154.757812 205.496094 C 154.726562 205.5625 154.722656 205.617188 154.753906 205.644531 C 154.753906 205.652344 154.757812 205.65625 154.761719 205.664062 C 154.8125 205.746094 154.941406 205.738281 155.046875 205.644531 C 155.097656 205.601562 155.132812 205.546875 155.152344 205.492188 L 155.15625 205.492188 C 155.160156 205.492188 155.160156 205.488281 155.160156 205.488281 L 155.417969 205.441406 L 155.421875 205.476562 C 155.429688 205.507812 155.449219 205.53125 155.46875 205.527344 C 155.488281 205.519531 155.5 205.488281 155.496094 205.457031 Z M 137.828125 204.1875 C 137.714844 204.148438 137.582031 204.101562 137.4375 204.050781 C 137.339844 203.96875 137.210938 203.882812 137.050781 203.910156 C 136.503906 203.710938 135.84375 203.480469 135.191406 203.339844 C 135.164062 203.332031 135.136719 203.324219 135.105469 203.320312 C 135.003906 203.167969 134.953125 203.042969 135.101562 203.070312 C 135.390625 203.125 135.640625 203.160156 136.035156 203.125 C 136.429688 203.089844 136.59375 203 136.664062 202.910156 C 136.734375 202.820312 136.914062 202.675781 136.914062 202.675781 C 136.914062 202.675781 136.898438 202.605469 137.113281 202.605469 C 137.328125 202.605469 137.402344 202.53125 137.4375 202.710938 C 137.472656 202.894531 137.597656 203.503906 137.671875 203.628906 C 137.742188 203.753906 137.742188 203.539062 137.796875 203.882812 C 137.808594 203.941406 137.820312 204.050781 137.828125 204.1875 Z M 153.9375 205.226562 L 153.933594 205.191406 L 154.296875 205.128906 L 154.304688 205.167969 Z M 154.738281 203.867188 L 154.75 203.921875 L 154.402344 204 L 154.390625 203.945312 Z M 153.472656 204.957031 L 153.570312 204.941406 L 153.574219 204.953125 Z M 153.789062 204.417969 L 153.785156 204.394531 L 154.136719 204.261719 L 154.152344 204.339844 Z M 154.574219 204.914062 L 154.550781 204.792969 L 154.902344 204.738281 L 154.933594 204.898438 Z M 154.261719 204.925781 L 153.886719 204.941406 L 153.875 204.894531 L 154.242188 204.839844 Z M 154.453125 204.269531 L 154.433594 204.148438 L 154.769531 204.019531 L 154.800781 204.191406 Z M 154.089844 204.007812 L 154.101562 204.0625 L 153.738281 204.140625 L 153.726562 204.085938 Z M 153.398438 203.867188 L 153.667969 203.816406 L 153.652344 203.734375 L 153.671875 203.730469 C 153.671875 203.738281 153.675781 203.738281 153.679688 203.746094 C 153.691406 203.765625 153.703125 203.785156 153.71875 203.800781 L 153.722656 203.824219 L 153.367188 203.898438 C 153.378906 203.882812 153.386719 203.867188 153.398438 203.847656 Z M 153.148438 204.261719 C 153.15625 204.242188 153.21875 204.195312 153.21875 204.195312 L 153.421875 204.152344 L 153.429688 204.207031 L 153.148438 204.269531 C 153.148438 204.265625 153.148438 204.261719 153.148438 204.261719 Z M 154.613281 205.121094 L 154.605469 205.074219 L 154.957031 205.015625 L 154.964844 205.066406 Z M 155.402344 205.355469 L 155.335938 205.367188 L 155.320312 205.277344 L 155.382812 205.269531 Z M 155.492188 204.824219 C 155.507812 204.96875 155.417969 204.992188 155.417969 204.992188 L 155.269531 205.015625 L 155.253906 204.941406 L 155.257812 204.941406 L 155.253906 204.941406 L 155.246094 204.890625 L 155.207031 204.695312 L 155.378906 204.667969 C 155.382812 204.667969 155.476562 204.683594 155.492188 204.824219 Z M 155.191406 203.769531 C 155.191406 203.769531 155.28125 203.757812 155.320312 203.898438 C 155.359375 204.039062 155.273438 204.089844 155.273438 204.089844 L 155.105469 204.125 L 155.066406 203.914062 L 155.074219 203.910156 L 155.066406 203.914062 L 155.046875 203.804688 Z M 155.070312 203.535156 L 154.707031 203.613281 C 154.726562 203.585938 154.742188 203.5625 154.753906 203.527344 L 154.765625 203.574219 L 155.035156 203.523438 L 155.023438 203.441406 L 155.054688 203.4375 Z M 154.265625 203.707031 L 153.957031 203.769531 C 153.957031 203.765625 153.960938 203.757812 153.960938 203.753906 L 154.210938 203.707031 L 154.191406 203.597656 L 154.246094 203.585938 Z M 153.410156 205.300781 L 153.628906 205.253906 L 153.632812 205.273438 L 153.425781 205.304688 C 153.425781 205.304688 153.421875 205.304688 153.410156 205.300781 Z M 154.019531 205.492188 L 154.027344 205.527344 C 154.023438 205.539062 154.015625 205.554688 154.011719 205.570312 C 154.011719 205.570312 154.007812 205.578125 154.007812 205.578125 L 153.957031 205.589844 L 153.941406 205.515625 L 153.667969 205.566406 C 153.660156 205.5625 153.648438 205.558594 153.640625 205.554688 Z M 154.59375 205.503906 L 154.507812 205.519531 L 154.492188 205.441406 L 154.332031 205.46875 C 154.328125 205.460938 154.328125 205.449219 154.324219 205.441406 L 154.574219 205.398438 Z M 139.574219 220.835938 L 140.53125 221.609375 L 140.519531 223.886719 L 140.359375 224.085938 L 139.601562 224.257812 Z M 138.757812 225.039062 C 138.820312 224.894531 139.007812 224.808594 139.007812 224.808594 L 139.039062 225.464844 C 139.039062 225.464844 138.855469 225.421875 138.777344 225.320312 C 138.691406 225.222656 138.691406 225.183594 138.757812 225.039062 Z M 139.628906 224.578125 C 139.628906 224.578125 140.011719 224.445312 140.097656 224.445312 C 140.097656 224.445312 140.054688 224.578125 139.925781 224.71875 C 139.796875 224.859375 139.609375 225.148438 139.609375 225.148438 Z M 143.347656 225.621094 C 143.609375 225.980469 143.972656 226.144531 143.972656 226.144531 C 143.871094 226.144531 142.9375 226.160156 142.453125 226.152344 C 141.964844 226.144531 141.714844 226.109375 141.714844 226.109375 C 141.714844 226.109375 142.234375 225.828125 142.472656 225.535156 C 142.707031 225.238281 142.855469 224.734375 142.855469 224.734375 C 142.855469 224.734375 143.085938 225.261719 143.347656 225.621094 Z M 146.902344 222.230469 C 146.902344 222.230469 147.433594 221.042969 147.46875 220.941406 L 147.5625 220.808594 C 147.5625 220.808594 147.730469 223.8125 147.691406 223.796875 C 147.648438 223.785156 146.980469 223.738281 146.964844 223.703125 C 146.953125 223.667969 146.902344 222.230469 146.902344 222.230469 Z M 148.339844 225.414062 L 148.328125 224.394531 C 148.328125 224.394531 148.777344 224.558594 148.882812 224.722656 C 148.992188 224.890625 148.992188 224.96875 148.851562 225.109375 C 148.714844 225.246094 148.339844 225.414062 148.339844 225.414062 Z M 147.242188 224.039062 C 147.441406 224.054688 147.699219 224.09375 147.726562 224.09375 L 147.734375 225.605469 C 147.734375 225.605469 147.710938 225.617188 147.582031 225.664062 C 147.453125 225.714844 147.121094 225.765625 147.121094 225.765625 L 146.996094 224.023438 C 146.996094 224.023438 147.042969 224.023438 147.242188 224.039062 Z M 147.242188 224.039062 " fill-opacity="1" fill-rule="evenodd"/></g><g clip-path="url(#4d9ca15522)"><g clip-path="url(#1f2c8c0135)"><g transform="matrix(1, 0, 0, 1, 275, 89)"><g clip-path="url(#803a23d6e9)"><g clip-path="url(#f1b08f5ab9)"><g clip-path="url(#223bbe857c)"><path fill="#38b6ff" d="M 0.128906 23.554688 L 14.917969 0.3125 L 51.683594 23.710938 L 36.894531 46.953125 Z M 0.128906 23.554688 " fill-opacity="1" fill-rule="nonzero"/></g></g></g></g></g></g><g clip-path="url(#0ba4fb8a3a)"><g clip-path="url(#6abdac4315)"><g clip-path="url(#6d8900d9d7)"><g transform="matrix(1, 0, 0, 1, 242, 211)"><g clip-path="url(#06b8de273e)"><g clip-path="url(#b619404923)"><g clip-path="url(#7ddd76e338)"><g clip-path="url(#ad2c378360)"><path fill="#38b6ff" d="M 33.820312 8.613281 L 26.597656 32.46875 L 0.0390625 24.429688 L 7.261719 0.570312 Z M 33.820312 8.613281 " fill-opacity="1" fill-rule="nonzero"/></g></g></g></g></g></g></g></g><g clip-path="url(#08e59ee935)"><path fill="#000000" d="M 138.492188 194.628906 C 138.515625 194.710938 138.558594 194.855469 138.625 195.066406 C 138.628906 195.078125 138.632812 195.105469 138.632812 195.152344 C 138.628906 195.160156 138.617188 195.183594 138.589844 195.226562 C 138.550781 195.042969 138.515625 194.890625 138.492188 194.765625 C 138.488281 194.742188 138.484375 194.71875 138.484375 194.695312 L 138.480469 194.695312 C 138.488281 194.675781 138.488281 194.652344 138.492188 194.628906 Z M 139.394531 194.757812 C 139.398438 194.808594 139.398438 194.863281 139.398438 194.914062 C 139.394531 194.957031 139.390625 194.992188 139.386719 195.023438 C 139.371094 195.109375 139.351562 195.199219 139.335938 195.296875 C 139.285156 195.136719 139.265625 195.054688 139.269531 195.054688 C 139.261719 194.980469 139.269531 194.910156 139.296875 194.835938 L 139.378906 194.765625 C 139.382812 194.761719 139.386719 194.761719 139.394531 194.757812 Z M 139.113281 195.5 L 139.148438 195.578125 C 139.167969 195.628906 139.171875 195.664062 139.167969 195.691406 C 139.164062 195.71875 139.15625 195.738281 139.144531 195.75 C 139.125 195.769531 139.109375 195.785156 139.089844 195.804688 C 139.101562 195.714844 139.109375 195.613281 139.113281 195.5 Z M 143.984375 195.222656 C 144.085938 195.507812 144.128906 195.652344 144.121094 195.652344 C 144.117188 195.71875 144.113281 195.753906 144.109375 195.757812 C 144.09375 195.789062 144.078125 195.820312 144.066406 195.851562 C 144.023438 195.730469 143.988281 195.632812 143.960938 195.558594 Z M 143.207031 195.445312 C 143.253906 195.527344 143.277344 195.574219 143.28125 195.585938 C 143.308594 195.664062 143.324219 195.734375 143.328125 195.796875 C 143.332031 195.859375 143.328125 195.910156 143.316406 195.953125 C 143.285156 195.992188 143.261719 196.03125 143.238281 196.066406 C 143.242188 196.058594 143.246094 196.054688 143.25 196.046875 C 143.285156 195.980469 143.308594 195.90625 143.3125 195.824219 C 143.320312 195.75 143.304688 195.65625 143.261719 195.546875 L 143.207031 195.453125 C 143.207031 195.449219 143.207031 195.445312 143.207031 195.445312 Z M 143.621094 196.253906 C 143.621094 196.257812 143.625 196.261719 143.625 196.261719 L 143.613281 196.273438 Z M 138.410156 196.457031 C 138.40625 196.464844 138.40625 196.472656 138.402344 196.476562 C 138.40625 196.46875 138.40625 196.464844 138.410156 196.457031 Z M 139.324219 196.175781 C 139.328125 196.183594 139.328125 196.191406 139.332031 196.199219 C 139.324219 196.238281 139.3125 196.265625 139.296875 196.28125 C 139.121094 196.453125 139.027344 196.554688 139.015625 196.578125 C 139.011719 196.585938 139.003906 196.597656 139 196.605469 C 139 196.601562 139 196.597656 139 196.59375 C 139.007812 196.578125 139.015625 196.570312 139.015625 196.566406 C 139.0625 196.488281 139.089844 196.414062 139.09375 196.34375 C 139.09375 196.34375 139.09375 196.339844 139.09375 196.335938 Z M 138.535156 196.589844 C 138.535156 196.609375 138.539062 196.628906 138.542969 196.648438 L 138.542969 196.652344 L 138.527344 196.679688 C 138.527344 196.652344 138.53125 196.621094 138.535156 196.589844 Z M 138.703125 197.285156 Z M 138.683594 196.738281 C 138.703125 196.800781 138.734375 196.894531 138.78125 197.027344 C 138.769531 197.117188 138.757812 197.199219 138.746094 197.273438 C 138.734375 197.28125 138.71875 197.28125 138.703125 197.285156 L 138.734375 197.285156 C 138.738281 197.28125 138.742188 197.28125 138.746094 197.28125 C 138.738281 197.328125 138.730469 197.371094 138.726562 197.410156 L 138.671875 197.28125 C 138.675781 197.28125 138.679688 197.28125 138.683594 197.28125 C 138.6875 197.28125 138.6875 197.28125 138.6875 197.285156 C 138.691406 197.285156 138.695312 197.285156 138.699219 197.285156 C 138.699219 197.285156 138.699219 197.285156 138.703125 197.285156 L 138.695312 197.285156 C 138.691406 197.28125 138.6875 197.28125 138.6875 197.28125 C 138.683594 197.28125 138.675781 197.28125 138.671875 197.28125 L 138.550781 196.972656 C 138.546875 196.960938 138.542969 196.949219 138.539062 196.933594 L 138.589844 196.863281 C 138.597656 196.878906 138.601562 196.894531 138.605469 196.914062 L 138.601562 196.890625 L 138.605469 196.847656 Z M 138.269531 197.421875 C 138.265625 197.445312 138.265625 197.464844 138.261719 197.484375 C 138.265625 197.464844 138.269531 197.441406 138.269531 197.421875 Z M 144.179688 197.9375 C 144.160156 197.953125 144.140625 197.96875 144.121094 197.984375 C 144.144531 197.972656 144.164062 197.957031 144.179688 197.9375 Z M 138.703125 197.960938 C 138.703125 197.96875 138.699219 197.976562 138.695312 197.984375 C 138.699219 197.980469 138.703125 197.96875 138.707031 197.960938 Z M 144.113281 197.984375 C 144.105469 197.988281 144.097656 197.992188 144.089844 197.996094 C 144.078125 198 144.066406 198 144.054688 198.003906 C 144.0625 198.003906 144.0625 198.003906 144.066406 198 L 144.070312 198 C 144.074219 198 144.082031 198 144.085938 197.996094 C 144.089844 197.996094 144.09375 197.996094 144.097656 197.992188 L 144.101562 197.992188 C 144.105469 197.992188 144.105469 197.988281 144.109375 197.988281 Z M 138.683594 198.003906 L 138.679688 198.003906 C 138.671875 198.015625 138.667969 198.023438 138.660156 198.03125 C 138.664062 198.027344 138.667969 198.023438 138.671875 198.015625 C 138.675781 198.011719 138.675781 198.011719 138.679688 198.007812 C 138.679688 198.007812 138.679688 198.007812 138.679688 198.003906 Z M 139.074219 198.128906 C 139.074219 198.136719 139.074219 198.148438 139.074219 198.15625 C 139.074219 198.148438 139.074219 198.140625 139.074219 198.128906 Z M 140.128906 190.285156 C 140.125 190.285156 140.121094 190.285156 140.117188 190.285156 L 140.023438 190.289062 C 140.019531 190.289062 140.015625 190.289062 140.015625 190.289062 C 139.976562 190.289062 139.890625 190.308594 139.757812 190.347656 C 139.699219 190.367188 139.644531 190.390625 139.589844 190.421875 C 139.484375 190.472656 139.375 190.558594 139.261719 190.675781 C 139.203125 190.738281 139.144531 190.808594 139.089844 190.890625 C 138.804688 191.339844 138.609375 191.628906 138.511719 191.761719 C 138.367188 191.957031 138.238281 192.125 138.117188 192.261719 C 138.097656 192.292969 138.074219 192.328125 138.054688 192.363281 C 138.015625 192.4375 137.984375 192.511719 137.957031 192.589844 C 137.835938 192.824219 137.746094 193.074219 137.691406 193.34375 C 137.660156 193.527344 137.660156 193.785156 137.691406 194.113281 C 137.699219 194.1875 137.71875 194.324219 137.757812 194.523438 L 137.945312 195.492188 C 137.96875 195.695312 137.980469 195.894531 137.984375 196.089844 C 137.988281 196.394531 137.972656 196.660156 137.933594 196.886719 C 137.914062 196.996094 137.890625 197.085938 137.863281 197.164062 C 137.835938 197.234375 137.800781 197.300781 137.761719 197.367188 C 137.910156 197.238281 138.019531 197.058594 138.09375 196.835938 C 138.191406 196.496094 138.25 196.171875 138.261719 195.863281 C 138.273438 195.65625 138.273438 195.503906 138.257812 195.398438 C 138.25 195.339844 138.234375 195.234375 138.214844 195.082031 C 138.222656 195.074219 138.230469 195.066406 138.238281 195.054688 L 138.277344 195.1875 L 138.296875 195.433594 C 138.296875 195.5625 138.289062 195.695312 138.265625 195.832031 L 138.308594 195.667969 C 138.308594 195.6875 138.308594 195.703125 138.308594 195.722656 C 138.3125 195.769531 138.316406 195.800781 138.316406 195.816406 C 138.316406 195.898438 138.3125 195.949219 138.3125 195.960938 L 138.277344 196.273438 C 138.265625 196.371094 138.261719 196.445312 138.257812 196.5 C 138.253906 196.59375 138.257812 196.679688 138.265625 196.753906 C 138.285156 196.875 138.308594 196.96875 138.339844 197.035156 C 138.34375 197.039062 138.347656 197.046875 138.351562 197.058594 C 138.347656 197.070312 138.34375 197.082031 138.339844 197.09375 C 138.3125 197.164062 138.289062 197.273438 138.269531 197.421875 C 138.28125 197.351562 138.3125 197.28125 138.355469 197.207031 C 138.367188 197.179688 138.382812 197.15625 138.398438 197.132812 C 138.445312 197.214844 138.519531 197.328125 138.617188 197.476562 C 138.644531 197.53125 138.667969 197.578125 138.679688 197.617188 C 138.703125 197.695312 138.71875 197.765625 138.71875 197.824219 C 138.71875 197.882812 138.714844 197.929688 138.707031 197.960938 C 138.761719 197.835938 138.78125 197.703125 138.765625 197.566406 C 138.761719 197.539062 138.753906 197.507812 138.75 197.484375 C 138.816406 197.3125 138.863281 197.179688 138.898438 197.085938 C 138.902344 197.144531 138.929688 197.265625 138.976562 197.449219 C 138.929688 197.207031 138.949219 197.003906 139.039062 196.835938 C 139.074219 196.773438 139.113281 196.71875 139.15625 196.675781 L 139.265625 196.59375 L 139.117188 196.847656 C 139.085938 196.90625 139.058594 196.988281 139.03125 197.089844 C 138.996094 197.230469 138.984375 197.371094 138.992188 197.519531 C 138.992188 197.558594 139 197.625 139.007812 197.707031 C 139.046875 197.914062 139.066406 198.054688 139.074219 198.125 C 139.050781 197.835938 139.085938 197.550781 139.171875 197.277344 C 139.21875 197.148438 139.269531 197.046875 139.320312 196.96875 C 139.589844 196.65625 139.730469 196.464844 139.742188 196.398438 C 139.765625 196.375 139.824219 196.097656 139.914062 195.574219 C 139.925781 195.527344 139.941406 195.46875 139.964844 195.40625 C 140.015625 195.277344 140.0625 195.171875 140.101562 195.09375 L 140.335938 194.640625 C 140.355469 194.613281 140.375 194.585938 140.390625 194.558594 L 140.449219 194.464844 C 140.484375 194.402344 140.511719 194.332031 140.535156 194.261719 C 140.5625 194.1875 140.582031 194.109375 140.59375 194.03125 C 140.597656 194.011719 140.597656 193.992188 140.601562 193.976562 L 140.597656 193.976562 C 140.609375 193.929688 140.617188 193.878906 140.621094 193.828125 C 140.636719 193.6875 140.636719 193.53125 140.621094 193.359375 C 140.621094 193.3125 140.574219 193.054688 140.476562 192.589844 C 140.46875 192.539062 140.457031 192.460938 140.449219 192.363281 C 140.4375 192.144531 140.460938 191.921875 140.519531 191.695312 C 140.558594 191.601562 140.585938 191.546875 140.597656 191.535156 C 140.617188 191.503906 140.640625 191.476562 140.664062 191.449219 C 140.714844 191.402344 140.773438 191.363281 140.84375 191.339844 C 140.878906 191.328125 140.910156 191.324219 140.941406 191.324219 C 141.011719 191.324219 141.078125 191.347656 141.132812 191.402344 L 141.148438 191.429688 C 141.148438 191.425781 141.152344 191.425781 141.15625 191.425781 C 141.167969 191.4375 141.179688 191.449219 141.1875 191.464844 L 141.1875 191.410156 C 141.226562 191.394531 141.265625 191.386719 141.304688 191.386719 C 141.453125 191.386719 141.589844 191.503906 141.710938 191.738281 C 141.734375 191.796875 141.753906 191.859375 141.769531 191.929688 C 141.824219 192.34375 141.867188 192.601562 141.902344 192.699219 C 141.925781 192.769531 141.957031 192.832031 141.988281 192.886719 C 142.136719 193.109375 142.230469 193.253906 142.265625 193.320312 C 142.324219 193.429688 142.363281 193.519531 142.378906 193.589844 C 142.40625 193.699219 142.421875 193.878906 142.425781 194.132812 L 142.441406 194.117188 L 142.445312 194.117188 C 142.445312 194.167969 142.453125 194.226562 142.460938 194.296875 L 142.441406 194.363281 C 142.429688 194.410156 142.421875 194.460938 142.417969 194.507812 C 142.402344 194.617188 142.410156 194.726562 142.433594 194.835938 C 142.445312 194.914062 142.476562 194.996094 142.515625 195.074219 L 142.882812 195.605469 C 142.890625 195.671875 142.894531 195.730469 142.890625 195.78125 L 142.84375 196.097656 C 142.765625 196.210938 142.714844 196.300781 142.691406 196.363281 C 142.648438 196.480469 142.632812 196.589844 142.640625 196.691406 C 142.738281 197.007812 142.894531 197.230469 143.101562 197.351562 C 142.964844 197.234375 142.867188 197.015625 142.816406 196.703125 C 142.820312 196.679688 142.824219 196.65625 142.828125 196.632812 C 142.835938 196.679688 142.847656 196.722656 142.859375 196.765625 L 143 197.171875 C 143.003906 197.1875 143.003906 197.191406 143 197.191406 C 143 197.191406 142.988281 197.175781 142.976562 197.144531 C 142.964844 197.121094 142.953125 197.085938 142.9375 197.039062 L 142.960938 197.128906 C 142.976562 197.179688 142.988281 197.207031 143.003906 197.207031 C 143.019531 197.203125 143.027344 197.191406 143.023438 197.164062 L 142.976562 196.90625 C 142.972656 196.867188 142.964844 196.820312 142.960938 196.765625 C 142.949219 196.671875 142.949219 196.585938 142.960938 196.511719 C 142.964844 196.492188 142.96875 196.46875 142.976562 196.449219 C 143 196.394531 143.019531 196.339844 143.039062 196.285156 C 143.082031 196.242188 143.132812 196.183594 143.195312 196.121094 C 143.203125 196.109375 143.214844 196.101562 143.222656 196.089844 C 143.070312 196.320312 142.996094 196.457031 143.003906 196.503906 C 142.996094 196.574219 143 196.632812 143.015625 196.679688 L 143.164062 197.03125 C 143.179688 197.074219 143.191406 197.101562 143.191406 197.117188 C 143.203125 197.226562 143.1875 197.328125 143.144531 197.421875 C 143.183594 197.339844 143.210938 197.273438 143.230469 197.21875 C 143.246094 197.257812 143.265625 197.292969 143.285156 197.324219 L 143.371094 197.421875 C 143.371094 197.425781 143.375 197.429688 143.378906 197.4375 C 143.378906 197.460938 143.378906 197.496094 143.367188 197.542969 L 142.945312 197.890625 C 142.90625 197.953125 142.890625 198 142.902344 198.03125 C 142.890625 197.980469 142.910156 197.9375 142.960938 197.902344 L 143.378906 197.710938 C 143.433594 197.683594 143.476562 197.652344 143.503906 197.613281 C 143.511719 197.605469 143.515625 197.59375 143.519531 197.585938 L 143.671875 197.75 C 143.734375 197.820312 143.769531 197.863281 143.78125 197.886719 C 143.839844 197.984375 143.863281 198.09375 143.84375 198.214844 C 143.890625 198.078125 143.890625 197.949219 143.847656 197.835938 C 143.816406 197.742188 143.714844 197.5625 143.542969 197.304688 L 143.5 197.050781 C 143.488281 196.960938 143.488281 196.910156 143.5 196.890625 C 143.523438 196.84375 143.554688 196.796875 143.59375 196.753906 L 143.765625 196.613281 C 143.777344 196.636719 143.796875 196.664062 143.816406 196.695312 C 144.015625 196.980469 144.125 197.140625 144.148438 197.183594 C 144.203125 197.28125 144.238281 197.371094 144.253906 197.449219 C 144.277344 197.566406 144.273438 197.675781 144.25 197.777344 C 144.234375 197.847656 144.210938 197.898438 144.179688 197.9375 C 144.324219 197.804688 144.394531 197.617188 144.386719 197.371094 C 144.382812 197.289062 144.363281 197.195312 144.324219 197.089844 C 144.316406 197.0625 144.277344 196.976562 144.210938 196.835938 C 144.320312 196.941406 144.46875 197.078125 144.664062 197.253906 C 144.730469 197.347656 144.773438 197.421875 144.789062 197.480469 C 144.804688 197.539062 144.796875 197.609375 144.761719 197.691406 L 144.472656 198.207031 C 144.441406 198.261719 144.417969 198.316406 144.402344 198.367188 C 144.386719 198.46875 144.425781 198.558594 144.511719 198.640625 C 144.445312 198.574219 144.421875 198.5 144.449219 198.410156 C 144.457031 198.386719 144.488281 198.339844 144.539062 198.28125 L 144.953125 197.800781 C 145.011719 197.699219 145.046875 197.605469 145.050781 197.515625 C 145.058594 197.386719 145.019531 197.25 144.929688 197.105469 C 144.929688 197.105469 144.933594 197.105469 144.933594 197.105469 C 144.949219 197.105469 144.761719 196.882812 144.367188 196.441406 C 144.347656 196.417969 144.339844 196.382812 144.335938 196.335938 L 144.335938 196.308594 C 144.492188 196.046875 144.566406 195.914062 144.558594 195.910156 C 144.582031 195.851562 144.597656 195.777344 144.605469 195.691406 C 144.609375 195.632812 144.605469 195.550781 144.585938 195.453125 C 144.566406 195.347656 144.523438 195.1875 144.453125 194.96875 C 144.449219 194.929688 144.445312 194.898438 144.449219 194.875 C 144.453125 194.847656 144.464844 194.816406 144.484375 194.777344 C 144.691406 194.476562 144.796875 194.308594 144.796875 194.269531 C 144.851562 194.121094 144.855469 193.980469 144.816406 193.847656 C 144.800781 193.785156 144.773438 193.722656 144.726562 193.648438 C 144.722656 193.625 144.71875 193.597656 144.707031 193.5625 C 144.546875 193.34375 144.378906 193.074219 144.203125 192.753906 C 143.988281 192.21875 143.824219 191.816406 143.707031 191.554688 C 143.652344 191.441406 143.574219 191.308594 143.46875 191.148438 C 143.289062 190.886719 143.085938 190.6875 142.859375 190.558594 C 142.832031 190.53125 142.742188 190.492188 142.582031 190.433594 C 142.457031 190.390625 142.320312 190.371094 142.179688 190.371094 L 142.15625 190.371094 C 142.152344 190.371094 142.144531 190.371094 142.140625 190.371094 C 141.921875 190.371094 141.707031 190.429688 141.488281 190.539062 C 141.425781 190.578125 141.367188 190.625 141.3125 190.675781 C 141.285156 190.691406 141.238281 190.75 141.171875 190.859375 C 141.074219 190.695312 140.945312 190.5625 140.789062 190.46875 C 140.5625 190.347656 140.34375 190.285156 140.128906 190.285156 Z M 140.128906 190.285156 " fill-opacity="1" fill-rule="nonzero"/></g><g clip-path="url(#33d944c6ed)"><path fill="#000000" d="M 140.472656 190.808594 C 140.625 190.832031 140.746094 190.871094 140.839844 190.925781 C 140.785156 190.90625 140.71875 190.894531 140.644531 190.894531 L 140.632812 190.894531 C 140.625 190.894531 140.617188 190.894531 140.609375 190.894531 C 140.578125 190.886719 140.550781 190.878906 140.519531 190.878906 C 140.464844 190.855469 140.40625 190.84375 140.351562 190.835938 C 140.390625 190.820312 140.433594 190.808594 140.472656 190.808594 Z M 142.203125 190.929688 Z M 140.613281 190.992188 C 140.613281 190.992188 140.613281 190.992188 140.609375 190.996094 Z M 141.042969 191.089844 C 141.066406 191.109375 141.085938 191.136719 141.105469 191.164062 C 141.09375 191.167969 141.078125 191.171875 141.070312 191.175781 C 141.0625 191.144531 141.054688 191.117188 141.042969 191.089844 Z M 140.875 191.058594 C 140.886719 191.058594 140.898438 191.0625 140.910156 191.0625 C 140.953125 191.070312 140.984375 191.078125 141.003906 191.085938 L 141.019531 191.085938 C 141.035156 191.113281 141.050781 191.144531 141.0625 191.179688 C 141.054688 191.183594 141.050781 191.1875 141.042969 191.1875 C 140.96875 191.144531 140.886719 191.117188 140.789062 191.113281 L 140.765625 191.113281 C 140.753906 191.113281 140.742188 191.117188 140.730469 191.117188 C 140.761719 191.089844 140.792969 191.074219 140.820312 191.066406 C 140.835938 191.0625 140.855469 191.058594 140.875 191.058594 Z M 141.5 191.039062 C 141.558594 191.039062 141.613281 191.046875 141.660156 191.0625 C 141.664062 191.0625 141.671875 191.066406 141.675781 191.066406 C 141.691406 191.078125 141.707031 191.089844 141.722656 191.105469 C 141.75 191.128906 141.773438 191.167969 141.800781 191.222656 C 141.78125 191.210938 141.761719 191.191406 141.734375 191.171875 C 141.710938 191.152344 141.695312 191.144531 141.6875 191.140625 C 141.625 191.121094 141.554688 191.109375 141.476562 191.109375 L 141.472656 191.109375 C 141.378906 191.109375 141.296875 191.117188 141.222656 191.132812 C 141.277344 191.097656 141.332031 191.070312 141.386719 191.046875 C 141.421875 191.042969 141.457031 191.039062 141.5 191.039062 Z M 141.402344 191.21875 C 141.507812 191.222656 141.585938 191.253906 141.644531 191.3125 C 141.566406 191.265625 141.484375 191.234375 141.402344 191.21875 Z M 140.175781 190.816406 C 140.167969 190.820312 140.160156 190.824219 140.152344 190.828125 C 139.972656 190.847656 139.785156 190.957031 139.589844 191.15625 C 139.535156 191.214844 139.480469 191.277344 139.433594 191.34375 C 139.347656 191.414062 139.269531 191.488281 139.199219 191.5625 L 139.203125 191.554688 C 139.398438 191.28125 139.554688 191.109375 139.675781 191.035156 C 139.84375 190.921875 140.011719 190.847656 140.175781 190.816406 Z M 140.386719 190.886719 C 140.25 190.925781 140.128906 191.035156 140.023438 191.21875 C 140.011719 191.25 139.996094 191.28125 139.984375 191.316406 C 139.902344 191.441406 139.828125 191.589844 139.757812 191.773438 C 139.769531 191.71875 139.785156 191.660156 139.800781 191.605469 C 139.925781 191.269531 140.0625 191.039062 140.21875 190.914062 C 140.273438 190.898438 140.328125 190.890625 140.386719 190.886719 Z M 141.804688 190.996094 C 141.914062 191.019531 142.019531 191.070312 142.117188 191.15625 C 142.121094 191.15625 142.125 191.160156 142.125 191.160156 C 142.128906 191.164062 142.128906 191.167969 142.128906 191.167969 C 142.140625 191.183594 142.160156 191.230469 142.191406 191.3125 L 142.238281 191.46875 C 142.300781 191.640625 142.34375 191.746094 142.363281 191.785156 C 142.304688 191.703125 142.25 191.640625 142.191406 191.597656 C 142.1875 191.570312 142.183594 191.535156 142.179688 191.503906 C 142.15625 191.394531 142.125 191.304688 142.082031 191.238281 C 142.011719 191.132812 141.953125 191.066406 141.90625 191.039062 C 141.875 191.023438 141.84375 191.011719 141.816406 191 C 141.8125 191 141.808594 190.996094 141.804688 190.996094 Z M 140.75 190.980469 C 140.839844 190.980469 140.917969 191 140.984375 191.039062 C 140.992188 191.050781 141 191.0625 141.011719 191.074219 C 140.941406 191.027344 140.878906 191.003906 140.820312 191.003906 C 140.816406 191.003906 140.816406 191.003906 140.8125 191.003906 L 140.808594 191.003906 C 140.675781 191.003906 140.5625 191.09375 140.464844 191.265625 C 140.445312 191.285156 140.425781 191.304688 140.410156 191.324219 C 140.425781 191.261719 140.445312 191.207031 140.46875 191.15625 C 140.488281 191.125 140.503906 191.097656 140.523438 191.074219 C 140.53125 191.066406 140.542969 191.054688 140.558594 191.039062 L 140.597656 191.011719 C 140.601562 191.003906 140.605469 190.996094 140.609375 190.996094 C 140.445312 191.042969 140.316406 191.234375 140.226562 191.578125 C 140.222656 191.59375 140.21875 191.609375 140.214844 191.625 C 140.183594 191.722656 140.160156 191.824219 140.148438 191.929688 C 140.152344 191.84375 140.15625 191.789062 140.15625 191.757812 C 140.171875 191.609375 140.203125 191.476562 140.253906 191.355469 C 140.332031 191.167969 140.449219 191.050781 140.609375 190.992188 C 140.660156 190.984375 140.707031 190.980469 140.75 190.980469 Z M 143.082031 192.121094 C 143.101562 192.140625 143.121094 192.160156 143.144531 192.175781 C 143.132812 192.171875 143.121094 192.171875 143.109375 192.167969 C 143.101562 192.152344 143.089844 192.136719 143.082031 192.121094 Z M 142.621094 190.921875 C 142.632812 190.929688 142.648438 190.9375 142.660156 190.945312 C 142.75 190.992188 142.867188 191.128906 143.011719 191.359375 C 143.039062 191.40625 143.070312 191.464844 143.105469 191.535156 L 143.417969 192.191406 C 143.359375 192.140625 143.292969 192.074219 143.21875 191.988281 C 143.15625 191.914062 143.09375 191.828125 143.039062 191.722656 C 143.035156 191.722656 142.988281 191.609375 142.902344 191.378906 L 142.839844 191.238281 C 142.769531 191.097656 142.707031 191 142.648438 190.949219 C 142.640625 190.941406 142.628906 190.929688 142.621094 190.921875 Z M 142.191406 191.660156 C 142.242188 191.714844 142.28125 191.789062 142.3125 191.878906 C 142.328125 191.925781 142.339844 191.96875 142.34375 192.003906 C 142.363281 192.132812 142.378906 192.246094 142.394531 192.339844 C 142.382812 192.324219 142.375 192.304688 142.363281 192.289062 C 142.332031 192.21875 142.300781 192.140625 142.269531 192.042969 C 142.253906 191.972656 142.226562 191.859375 142.195312 191.699219 C 142.195312 191.683594 142.195312 191.671875 142.191406 191.660156 Z M 143.648438 192.402344 L 143.644531 192.421875 C 143.644531 192.414062 143.648438 192.410156 143.648438 192.402344 Z M 139.988281 192.582031 C 139.976562 192.589844 139.960938 192.59375 139.949219 192.59375 C 139.949219 192.59375 139.945312 192.59375 139.945312 192.59375 C 139.960938 192.589844 139.972656 192.585938 139.988281 192.582031 Z M 142.445312 191.945312 C 142.445312 191.945312 142.445312 191.945312 142.449219 191.945312 C 142.480469 192 142.507812 192.046875 142.535156 192.085938 L 142.621094 192.4375 C 142.617188 192.433594 142.609375 192.433594 142.605469 192.433594 C 142.601562 192.433594 142.601562 192.433594 142.597656 192.4375 L 142.601562 192.4375 C 142.609375 192.445312 142.621094 192.453125 142.628906 192.460938 L 142.648438 192.53125 C 142.664062 192.589844 142.691406 192.648438 142.722656 192.703125 C 142.699219 192.695312 142.675781 192.683594 142.652344 192.664062 C 142.613281 192.550781 142.546875 192.324219 142.453125 191.976562 C 142.449219 191.964844 142.449219 191.953125 142.445312 191.945312 Z M 143.207031 192.308594 C 143.242188 192.332031 143.289062 192.359375 143.335938 192.398438 C 143.382812 192.433594 143.425781 192.472656 143.460938 192.511719 C 143.492188 192.527344 143.523438 192.554688 143.550781 192.585938 L 143.71875 192.757812 C 143.714844 192.757812 143.714844 192.757812 143.714844 192.757812 C 143.714844 192.757812 143.710938 192.757812 143.710938 192.753906 C 143.710938 192.757812 143.710938 192.757812 143.714844 192.757812 C 143.710938 192.753906 143.710938 192.753906 143.710938 192.753906 C 143.707031 192.753906 143.707031 192.75 143.707031 192.75 C 143.703125 192.75 143.703125 192.75 143.703125 192.75 L 143.707031 192.753906 C 143.519531 192.628906 143.421875 192.566406 143.421875 192.558594 C 143.417969 192.554688 143.410156 192.550781 143.40625 192.542969 C 143.410156 192.546875 143.417969 192.546875 143.421875 192.546875 C 143.417969 192.546875 143.410156 192.542969 143.402344 192.542969 C 143.359375 192.507812 143.316406 192.457031 143.265625 192.394531 Z M 139.003906 192.285156 C 138.96875 192.425781 138.929688 192.59375 138.882812 192.792969 C 138.90625 192.632812 138.925781 192.523438 138.949219 192.460938 C 138.964844 192.402344 138.984375 192.34375 139.003906 192.285156 Z M 144.183594 192.777344 L 144.183594 192.78125 C 144.175781 192.792969 144.164062 192.804688 144.15625 192.816406 C 144.15625 192.816406 144.160156 192.8125 144.164062 192.808594 C 144.167969 192.800781 144.171875 192.800781 144.171875 192.796875 C 144.171875 192.796875 144.175781 192.792969 144.179688 192.789062 C 144.179688 192.785156 144.179688 192.78125 144.183594 192.78125 Z M 142.660156 192.683594 C 142.679688 192.695312 142.703125 192.703125 142.722656 192.707031 C 142.730469 192.722656 142.742188 192.738281 142.753906 192.753906 C 142.777344 192.785156 142.804688 192.816406 142.828125 192.84375 C 142.816406 192.84375 142.804688 192.847656 142.792969 192.847656 C 142.769531 192.847656 142.75 192.84375 142.734375 192.835938 C 142.703125 192.785156 142.679688 192.738281 142.660156 192.691406 C 142.660156 192.691406 142.660156 192.6875 142.660156 192.683594 Z M 144.132812 192.84375 C 144.121094 192.851562 144.113281 192.859375 144.101562 192.863281 C 144.113281 192.859375 144.121094 192.851562 144.132812 192.84375 Z M 143.21875 192.667969 C 143.238281 192.683594 143.257812 192.699219 143.277344 192.710938 C 143.332031 192.75 143.476562 192.816406 143.707031 192.914062 C 143.75 192.941406 143.792969 192.96875 143.835938 193.003906 C 143.863281 193.027344 143.890625 193.054688 143.917969 193.078125 C 143.84375 193.046875 143.738281 193.003906 143.589844 192.949219 C 143.445312 192.867188 143.320312 192.773438 143.21875 192.667969 Z M 140.070312 193.105469 L 140.070312 193.109375 C 140.066406 193.113281 140.0625 193.113281 140.058594 193.117188 L 140.066406 193.113281 C 140.066406 193.109375 140.070312 193.105469 140.070312 193.105469 Z M 140.109375 192.886719 C 140.101562 192.96875 140.089844 193.046875 140.074219 193.113281 C 140.0625 193.152344 140.046875 193.191406 140.023438 193.230469 C 140.019531 193.234375 140.015625 193.238281 140.015625 193.242188 C 140.03125 193.203125 140.046875 193.164062 140.054688 193.132812 C 140.078125 193.046875 140.09375 192.964844 140.109375 192.886719 Z M 139.421875 193.554688 C 139.421875 193.558594 139.421875 193.5625 139.417969 193.566406 C 139.414062 193.582031 139.40625 193.59375 139.398438 193.609375 Z M 142.964844 193.554688 C 142.972656 193.558594 142.980469 193.566406 142.992188 193.570312 L 142.988281 193.570312 C 143.003906 193.609375 143.015625 193.640625 143.023438 193.667969 C 143.027344 193.679688 143.03125 193.691406 143.03125 193.703125 C 143.011719 193.65625 142.988281 193.605469 142.964844 193.554688 Z M 143.429688 193.167969 C 143.441406 193.175781 143.457031 193.179688 143.476562 193.183594 L 143.953125 193.308594 C 143.984375 193.324219 144.015625 193.335938 144.042969 193.347656 C 144.046875 193.359375 144.046875 193.371094 144.050781 193.382812 C 144.066406 193.433594 144.074219 193.496094 144.085938 193.574219 C 144.085938 193.621094 144.089844 193.667969 144.09375 193.714844 C 144.078125 193.6875 144.0625 193.664062 144.046875 193.644531 C 143.953125 193.539062 143.859375 193.464844 143.765625 193.425781 C 143.710938 193.375 143.636719 193.316406 143.542969 193.246094 C 143.570312 193.253906 143.601562 193.257812 143.628906 193.265625 C 143.597656 193.257812 143.5625 193.25 143.527344 193.238281 C 143.523438 193.234375 143.519531 193.230469 143.515625 193.226562 C 143.488281 193.207031 143.460938 193.1875 143.429688 193.167969 Z M 143.914062 193.601562 C 143.925781 193.613281 143.933594 193.625 143.941406 193.636719 C 143.964844 193.667969 143.984375 193.707031 144 193.75 C 143.972656 193.691406 143.945312 193.640625 143.914062 193.601562 Z M 142.832031 192.84375 C 142.835938 192.851562 142.839844 192.855469 142.847656 192.859375 C 142.855469 192.878906 142.863281 192.902344 142.875 192.921875 C 142.902344 192.972656 142.945312 193.023438 142.996094 193.078125 C 143.039062 193.128906 143.128906 193.203125 143.273438 193.300781 C 143.316406 193.332031 143.414062 193.394531 143.5625 193.480469 L 143.675781 193.558594 C 143.757812 193.621094 143.824219 193.6875 143.878906 193.75 C 143.953125 193.835938 144.011719 193.914062 144.050781 193.984375 C 144.050781 194.003906 144.050781 194.023438 144.050781 194.046875 C 144.03125 193.996094 144.007812 193.949219 143.980469 193.902344 C 143.933594 193.824219 143.878906 193.757812 143.8125 193.703125 L 143.238281 193.367188 C 143.003906 193.167969 142.875 193.042969 142.847656 192.996094 C 142.804688 192.945312 142.769531 192.898438 142.742188 192.851562 C 142.746094 192.851562 142.746094 192.851562 142.75 192.851562 C 142.753906 192.851562 142.757812 192.851562 142.761719 192.851562 C 142.761719 192.851562 142.765625 192.851562 142.765625 192.851562 C 142.789062 192.851562 142.808594 192.851562 142.832031 192.84375 Z M 138.539062 192.8125 C 138.53125 192.855469 138.523438 192.898438 138.515625 192.949219 C 138.507812 192.980469 138.507812 193.074219 138.515625 193.226562 C 138.519531 193.320312 138.527344 193.386719 138.535156 193.429688 L 138.578125 193.703125 C 138.503906 193.851562 138.441406 193.992188 138.386719 194.117188 C 138.359375 194.042969 138.332031 193.960938 138.304688 193.875 C 138.28125 193.773438 138.265625 193.679688 138.257812 193.59375 C 138.242188 193.414062 138.285156 193.234375 138.382812 193.054688 C 138.378906 193.050781 138.429688 192.96875 138.539062 192.8125 Z M 139.046875 193.648438 L 138.878906 194.132812 C 138.878906 194.132812 138.878906 194.128906 138.878906 194.128906 C 138.882812 194.089844 138.878906 194.023438 138.875 193.925781 C 138.925781 193.84375 138.984375 193.753906 139.046875 193.648438 Z M 144.105469 194.21875 C 144.101562 194.222656 144.101562 194.226562 144.101562 194.230469 C 144.101562 194.226562 144.101562 194.222656 144.105469 194.21875 Z M 140.457031 193.1875 C 140.457031 193.199219 140.460938 193.210938 140.460938 193.21875 C 140.464844 193.363281 140.457031 193.542969 140.4375 193.746094 C 140.425781 193.839844 140.410156 193.902344 140.394531 193.933594 C 140.234375 194.125 140.117188 194.304688 140.042969 194.46875 L 140.023438 194.371094 L 140 194.234375 C 139.992188 194.160156 139.996094 194.09375 140.011719 194.027344 C 140.027344 193.976562 140.046875 193.925781 140.074219 193.878906 C 140.28125 193.589844 140.382812 193.441406 140.382812 193.433594 C 140.410156 193.378906 140.433594 193.3125 140.449219 193.238281 C 140.453125 193.222656 140.453125 193.203125 140.457031 193.1875 Z M 139.195312 194.054688 C 139.1875 194.082031 139.179688 194.109375 139.175781 194.140625 C 139.171875 194.15625 139.167969 194.171875 139.167969 194.191406 L 139.007812 194.511719 C 139.027344 194.441406 139.050781 194.371094 139.078125 194.308594 Z M 143.945312 194.824219 C 143.925781 194.839844 143.910156 194.851562 143.890625 194.859375 C 143.910156 194.851562 143.925781 194.839844 143.945312 194.824219 Z M 144.015625 194.847656 C 144.015625 194.851562 144.019531 194.855469 144.019531 194.859375 C 144.023438 194.871094 144.03125 194.90625 144.042969 194.960938 C 144.027344 194.925781 144.015625 194.886719 144.015625 194.847656 Z M 138.027344 194.078125 L 138.242188 194.558594 C 138.234375 194.601562 138.222656 194.648438 138.214844 194.699219 C 138.195312 194.800781 138.1875 194.914062 138.191406 195.039062 C 138.1875 194.980469 138.179688 194.921875 138.171875 194.859375 C 138.160156 194.75 138.144531 194.644531 138.125 194.539062 Z M 138.671875 194.285156 C 138.6875 194.425781 138.695312 194.5625 138.691406 194.691406 C 138.6875 194.84375 138.671875 194.980469 138.644531 195.097656 C 138.640625 195.070312 138.640625 195.042969 138.636719 195.015625 C 138.625 194.933594 138.59375 194.789062 138.535156 194.59375 C 138.570312 194.5 138.605469 194.410156 138.652344 194.324219 C 138.65625 194.3125 138.664062 194.300781 138.671875 194.285156 Z M 143.230469 194.40625 C 143.246094 194.441406 143.261719 194.472656 143.28125 194.503906 C 143.34375 194.601562 143.414062 194.683594 143.492188 194.746094 C 143.511719 194.816406 143.523438 194.894531 143.535156 194.984375 C 143.539062 195.082031 143.542969 195.160156 143.539062 195.21875 C 143.535156 195.261719 143.53125 195.304688 143.523438 195.351562 L 143.5 195.515625 C 143.5 195.53125 143.5 195.566406 143.5 195.613281 C 143.5 195.628906 143.496094 195.644531 143.496094 195.660156 C 143.492188 195.675781 143.492188 195.695312 143.488281 195.714844 C 143.429688 195.707031 143.378906 195.679688 143.339844 195.621094 C 143.289062 195.554688 143.25 195.476562 143.214844 195.382812 C 143.199219 195.320312 143.191406 195.246094 143.191406 195.160156 L 143.230469 194.496094 C 143.230469 194.464844 143.230469 194.4375 143.230469 194.40625 Z M 142.941406 196.019531 C 142.941406 196.035156 142.941406 196.046875 142.9375 196.058594 C 142.941406 196.042969 142.941406 196.03125 142.941406 196.019531 Z M 137.703125 196.195312 C 137.714844 196.21875 137.726562 196.234375 137.742188 196.25 C 137.738281 196.246094 137.730469 196.234375 137.722656 196.222656 C 137.714844 196.214844 137.707031 196.207031 137.703125 196.195312 Z M 144.058594 196.445312 L 144.050781 196.449219 C 144.03125 196.460938 144.015625 196.46875 144 196.476562 C 144.007812 196.472656 144.015625 196.46875 144.019531 196.46875 C 144.027344 196.464844 144.03125 196.460938 144.03125 196.460938 C 144.035156 196.457031 144.042969 196.457031 144.046875 196.453125 C 144.050781 196.449219 144.050781 196.449219 144.054688 196.445312 Z M 139.292969 196.503906 Z M 139.292969 196.507812 C 139.296875 196.511719 139.300781 196.515625 139.304688 196.519531 L 139.308594 196.519531 C 139.308594 196.523438 139.3125 196.523438 139.3125 196.523438 C 139.316406 196.527344 139.320312 196.53125 139.324219 196.53125 C 139.328125 196.535156 139.328125 196.535156 139.332031 196.535156 L 139.335938 196.539062 C 139.332031 196.535156 139.328125 196.535156 139.324219 196.53125 L 139.320312 196.527344 C 139.316406 196.527344 139.3125 196.523438 139.3125 196.523438 C 139.304688 196.515625 139.296875 196.511719 139.292969 196.507812 Z M 138.3125 196.824219 C 138.324219 196.828125 138.332031 196.828125 138.335938 196.828125 C 138.335938 196.832031 138.339844 196.832031 138.347656 196.832031 C 138.355469 196.832031 138.359375 196.835938 138.367188 196.835938 C 138.371094 196.835938 138.371094 196.835938 138.375 196.835938 L 138.378906 196.835938 L 138.363281 196.835938 L 138.355469 196.832031 C 138.351562 196.832031 138.347656 196.832031 138.34375 196.832031 C 138.332031 196.828125 138.320312 196.824219 138.3125 196.824219 Z M 140.160156 190.609375 L 140.140625 190.609375 C 139.699219 190.636719 139.308594 190.859375 138.960938 191.277344 C 138.917969 191.324219 138.867188 191.398438 138.8125 191.492188 L 138.464844 192.105469 L 138.089844 192.714844 C 138.019531 192.835938 137.964844 192.957031 137.929688 193.082031 C 137.902344 193.171875 137.882812 193.269531 137.878906 193.371094 C 137.867188 193.414062 137.855469 193.453125 137.851562 193.480469 C 137.839844 193.546875 137.828125 193.640625 137.824219 193.753906 C 137.824219 193.78125 137.824219 193.804688 137.824219 193.832031 L 137.820312 194.070312 C 137.820312 194.097656 137.820312 194.128906 137.824219 194.164062 C 137.824219 194.21875 137.835938 194.359375 137.855469 194.582031 C 137.859375 194.609375 137.867188 194.652344 137.875 194.714844 C 137.910156 194.878906 137.929688 194.976562 137.933594 195.011719 C 137.980469 195.277344 138.011719 195.476562 138.03125 195.609375 C 138.050781 195.753906 138.058594 195.863281 138.054688 195.941406 C 138.054688 196.082031 138.015625 196.1875 137.941406 196.261719 C 137.910156 196.289062 137.878906 196.304688 137.847656 196.304688 C 137.8125 196.304688 137.777344 196.289062 137.746094 196.253906 C 137.785156 196.300781 137.828125 196.324219 137.875 196.324219 C 137.914062 196.324219 137.953125 196.308594 137.996094 196.277344 C 138.132812 196.175781 138.207031 195.988281 138.222656 195.710938 C 138.226562 195.640625 138.222656 195.492188 138.207031 195.261719 C 138.207031 195.257812 138.207031 195.253906 138.207031 195.25 C 138.234375 195.390625 138.296875 195.632812 138.394531 195.976562 C 138.394531 195.976562 138.394531 195.980469 138.394531 195.980469 C 138.398438 195.980469 138.390625 195.917969 138.375 195.800781 L 138.40625 195.199219 C 138.410156 195.125 138.417969 195.054688 138.425781 194.988281 C 138.441406 195.027344 138.449219 195.054688 138.453125 195.074219 C 138.480469 195.183594 138.503906 195.285156 138.519531 195.386719 C 138.566406 195.660156 138.582031 195.894531 138.558594 196.085938 C 138.628906 195.765625 138.660156 195.46875 138.648438 195.195312 C 138.707031 195.09375 138.753906 194.976562 138.792969 194.847656 C 138.796875 194.894531 138.804688 194.941406 138.8125 194.988281 C 138.800781 195.027344 138.792969 195.066406 138.785156 195.101562 C 138.746094 195.234375 138.753906 195.609375 138.800781 196.230469 C 138.796875 196.332031 138.789062 196.398438 138.773438 196.433594 C 138.742188 196.550781 138.699219 196.640625 138.644531 196.714844 C 138.585938 196.796875 138.503906 196.839844 138.410156 196.839844 C 138.402344 196.839844 138.390625 196.839844 138.382812 196.835938 L 138.460938 196.84375 C 138.640625 196.84375 138.792969 196.707031 138.921875 196.441406 C 138.949219 196.367188 138.96875 196.289062 138.980469 196.207031 C 138.988281 196.117188 138.992188 196.039062 139 195.964844 C 139 195.964844 139 195.964844 139.003906 195.964844 C 139.003906 195.964844 139.007812 195.96875 139.011719 195.96875 L 139.019531 195.96875 C 139.011719 195.96875 139.007812 195.964844 139 195.964844 C 139.023438 195.644531 139.039062 195.464844 139.042969 195.414062 C 139.054688 195.304688 139.078125 195.203125 139.113281 195.109375 C 139.136719 195.039062 139.175781 194.949219 139.230469 194.835938 C 139.234375 194.832031 139.234375 194.828125 139.238281 194.820312 C 139.289062 195.046875 139.3125 195.171875 139.3125 195.195312 C 139.332031 195.339844 139.339844 195.457031 139.335938 195.546875 C 139.292969 195.832031 139.203125 195.972656 139.058594 195.972656 C 139.046875 195.972656 139.03125 195.972656 139.019531 195.96875 C 139.046875 195.980469 139.070312 195.984375 139.097656 195.984375 C 139.242188 195.976562 139.363281 195.84375 139.457031 195.585938 C 139.484375 195.472656 139.496094 195.347656 139.496094 195.207031 C 139.496094 195.046875 139.476562 194.808594 139.441406 194.484375 C 139.507812 194.371094 139.5625 194.269531 139.609375 194.183594 C 139.613281 194.199219 139.613281 194.210938 139.617188 194.222656 C 139.609375 194.265625 139.65625 194.433594 139.75 194.730469 C 139.757812 194.765625 139.761719 194.792969 139.761719 194.816406 L 139.5625 195.101562 C 139.542969 195.140625 139.527344 195.183594 139.515625 195.234375 C 139.5 195.3125 139.496094 195.394531 139.5 195.476562 C 139.558594 195.925781 139.582031 196.164062 139.574219 196.191406 C 139.511719 196.425781 139.441406 196.542969 139.363281 196.542969 C 139.355469 196.542969 139.34375 196.542969 139.335938 196.539062 C 139.351562 196.546875 139.367188 196.554688 139.386719 196.554688 C 139.480469 196.546875 139.578125 196.429688 139.6875 196.203125 C 139.714844 196.136719 139.730469 195.890625 139.738281 195.460938 C 139.742188 195.421875 139.75 195.375 139.765625 195.320312 C 139.777344 195.285156 139.792969 195.253906 139.808594 195.234375 L 139.933594 195.09375 C 139.9375 195.179688 139.945312 195.300781 139.957031 195.457031 C 139.953125 195.511719 139.949219 195.582031 139.9375 195.671875 C 139.929688 195.722656 139.914062 195.789062 139.890625 195.863281 C 139.878906 195.917969 139.824219 196.058594 139.738281 196.28125 C 139.734375 196.285156 139.726562 196.316406 139.71875 196.378906 C 139.722656 196.347656 139.734375 196.316406 139.746094 196.289062 C 139.867188 196.117188 139.953125 195.984375 140 195.890625 C 140.039062 195.820312 140.066406 195.75 140.085938 195.683594 C 140.113281 195.597656 140.128906 195.523438 140.136719 195.46875 C 140.160156 195.148438 140.171875 194.984375 140.175781 194.96875 C 140.1875 194.882812 140.207031 194.808594 140.234375 194.742188 C 140.269531 194.660156 140.3125 194.582031 140.367188 194.503906 C 140.410156 194.441406 140.5 194.328125 140.640625 194.171875 C 140.652344 194.15625 140.671875 194.132812 140.6875 194.101562 C 140.722656 194.039062 140.753906 193.960938 140.777344 193.859375 C 140.804688 193.714844 140.816406 193.628906 140.8125 193.59375 C 140.816406 193.5 140.808594 193.371094 140.789062 193.203125 C 140.785156 193.160156 140.773438 193.085938 140.75 192.988281 L 140.617188 192.4375 L 140.585938 192.277344 C 140.546875 192.039062 140.527344 191.851562 140.535156 191.707031 C 140.535156 191.660156 140.535156 191.628906 140.539062 191.605469 C 140.550781 191.558594 140.566406 191.511719 140.585938 191.46875 C 140.632812 191.363281 140.675781 191.292969 140.71875 191.257812 C 140.765625 191.210938 140.824219 191.1875 140.890625 191.1875 C 140.9375 191.1875 140.984375 191.199219 141.039062 191.21875 C 141.003906 191.195312 140.96875 191.179688 140.929688 191.164062 C 140.964844 191.171875 141 191.179688 141.035156 191.191406 C 141.027344 191.195312 141.019531 191.199219 141.015625 191.203125 C 141.023438 191.199219 141.035156 191.199219 141.046875 191.195312 C 141.050781 191.199219 141.058594 191.199219 141.0625 191.203125 C 141.058594 191.199219 141.054688 191.199219 141.050781 191.195312 C 141.058594 191.195312 141.0625 191.195312 141.070312 191.191406 C 141.070312 191.199219 141.070312 191.203125 141.074219 191.210938 C 141.074219 191.203125 141.070312 191.199219 141.070312 191.191406 C 141.140625 191.179688 141.207031 191.175781 141.277344 191.175781 C 141.300781 191.175781 141.324219 191.175781 141.351562 191.175781 C 141.316406 191.1875 141.28125 191.195312 141.253906 191.210938 C 141.21875 191.210938 141.164062 191.226562 141.089844 191.246094 C 141.113281 191.246094 141.136719 191.246094 141.15625 191.246094 C 141.167969 191.246094 141.179688 191.246094 141.1875 191.246094 C 141.1875 191.246094 141.1875 191.246094 141.183594 191.246094 C 141.1875 191.246094 141.191406 191.246094 141.195312 191.246094 C 141.46875 191.257812 141.6875 191.414062 141.851562 191.710938 L 141.902344 191.855469 C 141.910156 191.875 141.917969 191.894531 141.925781 191.910156 C 141.925781 191.917969 141.929688 191.921875 141.929688 191.929688 L 142.042969 192.542969 C 142.050781 192.574219 142.058594 192.601562 142.066406 192.621094 C 142.246094 192.984375 142.488281 193.421875 142.789062 193.929688 C 142.847656 194.039062 142.894531 194.148438 142.933594 194.257812 C 142.960938 194.34375 142.976562 194.410156 142.980469 194.453125 L 143.027344 195.007812 C 143.019531 194.953125 143.011719 194.890625 143 194.824219 C 142.996094 194.796875 142.984375 194.753906 142.964844 194.699219 C 142.941406 194.621094 142.910156 194.542969 142.878906 194.457031 L 142.683594 193.988281 C 142.664062 193.945312 142.644531 193.882812 142.621094 193.792969 L 142.605469 193.777344 L 142.605469 193.78125 C 142.609375 193.820312 142.617188 193.878906 142.632812 193.960938 C 142.695312 194.214844 142.726562 194.363281 142.734375 194.398438 C 142.753906 194.492188 142.773438 194.597656 142.796875 194.722656 C 142.804688 194.753906 142.808594 194.796875 142.816406 194.851562 L 142.84375 194.949219 C 142.871094 195.066406 142.890625 195.15625 142.894531 195.214844 C 142.925781 195.441406 142.945312 195.597656 142.945312 195.6875 C 142.953125 195.824219 142.953125 195.890625 142.953125 195.890625 C 142.953125 195.921875 142.949219 195.964844 142.945312 196.011719 C 142.949219 195.984375 142.953125 195.953125 142.957031 195.921875 C 142.957031 195.90625 142.972656 195.820312 143 195.667969 C 143.011719 195.609375 143.015625 195.570312 143.019531 195.539062 C 143.035156 195.363281 143.039062 195.222656 143.035156 195.113281 L 143.039062 195.167969 C 143.054688 195.253906 143.074219 195.328125 143.097656 195.382812 C 143.214844 195.597656 143.339844 195.710938 143.472656 195.71875 L 143.488281 195.71875 C 143.484375 195.738281 143.480469 195.765625 143.476562 195.792969 C 143.429688 196.085938 143.402344 196.277344 143.390625 196.367188 C 143.382812 196.40625 143.378906 196.457031 143.375 196.515625 C 143.378906 196.628906 143.40625 196.746094 143.457031 196.855469 C 143.445312 196.828125 143.4375 196.796875 143.433594 196.769531 C 143.425781 196.710938 143.425781 196.644531 143.4375 196.566406 C 143.445312 196.53125 143.457031 196.480469 143.476562 196.417969 C 143.5625 196.175781 143.621094 196 143.648438 195.898438 C 143.679688 195.800781 143.707031 195.691406 143.734375 195.5625 C 143.75 195.503906 143.75 195.398438 143.738281 195.242188 C 143.730469 195.191406 143.726562 195.148438 143.71875 195.113281 C 143.707031 195.054688 143.691406 194.996094 143.671875 194.941406 C 143.664062 194.90625 143.652344 194.871094 143.640625 194.839844 C 143.664062 194.851562 143.683594 194.859375 143.707031 194.867188 C 143.734375 194.878906 143.761719 194.882812 143.789062 194.882812 C 143.820312 194.882812 143.855469 194.875 143.890625 194.859375 C 143.867188 194.867188 143.847656 194.871094 143.824219 194.871094 C 143.800781 194.871094 143.777344 194.867188 143.753906 194.855469 C 143.710938 194.835938 143.660156 194.800781 143.605469 194.742188 C 143.585938 194.699219 143.566406 194.660156 143.550781 194.628906 C 143.5 194.542969 143.449219 194.476562 143.402344 194.421875 C 143.394531 194.410156 143.390625 194.394531 143.386719 194.378906 C 143.375 194.34375 143.363281 194.300781 143.355469 194.25 L 143.292969 193.9375 C 143.257812 193.84375 143.222656 193.757812 143.1875 193.683594 C 143.300781 193.734375 143.464844 193.804688 143.683594 193.898438 C 143.726562 193.921875 143.769531 193.960938 143.816406 194.015625 C 143.882812 194.105469 143.933594 194.203125 143.964844 194.308594 C 143.972656 194.339844 143.976562 194.386719 143.980469 194.441406 L 143.992188 194.828125 C 143.992188 194.859375 144.007812 194.902344 144.042969 194.964844 C 144.046875 194.976562 144.046875 194.988281 144.050781 195 C 144.089844 195.160156 144.121094 195.289062 144.140625 195.375 C 144.152344 195.417969 144.164062 195.46875 144.171875 195.523438 C 144.199219 195.691406 144.214844 195.828125 144.210938 195.9375 C 144.210938 196.207031 144.160156 196.375 144.058594 196.445312 C 144.222656 196.339844 144.324219 196.101562 144.359375 195.726562 C 144.367188 195.628906 144.363281 195.527344 144.355469 195.429688 C 144.351562 195.351562 144.332031 195.1875 144.292969 194.9375 C 144.292969 194.921875 144.292969 194.910156 144.292969 194.898438 C 144.292969 194.890625 144.292969 194.886719 144.292969 194.882812 C 144.445312 195.207031 144.644531 195.386719 144.886719 195.417969 C 144.890625 195.421875 144.894531 195.421875 144.898438 195.421875 C 144.957031 195.421875 145.039062 195.351562 145.152344 195.210938 C 145.058594 195.324219 144.976562 195.378906 144.910156 195.378906 C 144.90625 195.378906 144.902344 195.378906 144.898438 195.375 C 144.773438 195.328125 144.671875 195.238281 144.59375 195.101562 C 144.515625 194.96875 144.464844 194.839844 144.441406 194.71875 C 144.433594 194.695312 144.421875 194.636719 144.40625 194.539062 C 144.382812 194.285156 144.363281 194.136719 144.351562 194.101562 L 144.253906 193.570312 C 144.246094 193.542969 144.242188 193.515625 144.234375 193.484375 C 144.390625 193.652344 144.46875 193.824219 144.460938 194 C 144.488281 193.863281 144.488281 193.75 144.460938 193.664062 C 144.410156 193.515625 144.34375 193.394531 144.261719 193.300781 C 144.222656 193.257812 144.167969 193.214844 144.09375 193.167969 C 144.066406 193.117188 144.035156 193.070312 144 193.027344 C 143.925781 192.910156 143.859375 192.808594 143.804688 192.722656 C 143.890625 192.789062 143.980469 192.835938 144.070312 192.871094 C 144.082031 192.871094 144.089844 192.867188 144.101562 192.863281 C 144.097656 192.863281 144.089844 192.863281 144.085938 192.863281 C 144.058594 192.863281 144.019531 192.84375 143.980469 192.796875 C 143.863281 192.695312 143.773438 192.582031 143.699219 192.460938 C 143.6875 192.4375 143.679688 192.417969 143.667969 192.394531 C 143.710938 192.390625 143.746094 192.378906 143.777344 192.355469 C 143.796875 192.339844 143.800781 192.316406 143.789062 192.285156 C 143.78125 192.277344 143.777344 192.273438 143.765625 192.273438 C 143.761719 192.273438 143.757812 192.277344 143.753906 192.277344 C 143.726562 192.285156 143.707031 192.296875 143.6875 192.320312 L 143.679688 192.316406 C 143.664062 192.316406 143.652344 192.316406 143.636719 192.3125 C 143.488281 191.855469 143.382812 191.5625 143.324219 191.433594 C 143.25 191.265625 143.160156 191.117188 143.054688 190.992188 C 142.859375 190.753906 142.5625 190.636719 142.15625 190.632812 L 142.140625 190.632812 C 141.925781 190.632812 141.742188 190.660156 141.589844 190.710938 C 141.46875 190.738281 141.375 190.769531 141.308594 190.808594 C 141.367188 190.78125 141.433594 190.761719 141.496094 190.746094 L 141.5 190.746094 C 141.363281 190.804688 141.257812 190.886719 141.183594 190.992188 C 141.339844 190.84375 141.558594 190.761719 141.839844 190.753906 C 141.84375 190.753906 141.851562 190.753906 141.855469 190.753906 C 141.90625 190.753906 141.953125 190.753906 142 190.757812 C 142.097656 190.785156 142.183594 190.824219 142.265625 190.878906 C 142.296875 190.894531 142.335938 190.929688 142.382812 190.988281 C 142.332031 190.957031 142.28125 190.933594 142.230469 190.925781 L 142.226562 190.925781 C 142.21875 190.929688 142.214844 190.933594 142.210938 190.933594 C 142.207031 190.933594 142.207031 190.933594 142.203125 190.929688 C 142.277344 190.964844 142.34375 191.011719 142.402344 191.082031 C 142.425781 191.109375 142.445312 191.144531 142.46875 191.179688 C 142.402344 191.109375 142.335938 191.054688 142.265625 191.015625 C 142.125 190.875 141.957031 190.804688 141.769531 190.804688 C 141.765625 190.804688 141.765625 190.804688 141.765625 190.804688 L 141.753906 190.804688 C 141.535156 190.816406 141.359375 190.886719 141.222656 191.011719 C 141.15625 191.046875 141.121094 191.074219 141.121094 191.09375 C 141.136719 191.085938 141.152344 191.078125 141.167969 191.070312 C 141.15625 191.082031 141.148438 191.097656 141.136719 191.109375 C 141.164062 191.089844 141.195312 191.066406 141.222656 191.046875 C 141.25 191.039062 141.273438 191.03125 141.300781 191.027344 C 141.238281 191.058594 141.195312 191.097656 141.171875 191.140625 C 141.195312 191.113281 141.230469 191.089844 141.28125 191.070312 C 141.261719 191.089844 141.238281 191.109375 141.214844 191.132812 C 141.175781 191.140625 141.136719 191.152344 141.105469 191.164062 C 141.082031 191.113281 141.054688 191.070312 141.019531 191.035156 C 140.96875 190.941406 140.894531 190.863281 140.789062 190.796875 C 140.605469 190.683594 140.394531 190.621094 140.160156 190.609375 Z M 143.460938 196.859375 C 143.46875 196.878906 143.480469 196.902344 143.496094 196.921875 C 143.480469 196.902344 143.46875 196.878906 143.460938 196.859375 Z M 143.460938 196.859375 " fill-opacity="1" fill-rule="nonzero"/></g><g clip-path="url(#ffc0c336e2)"><g clip-path="url(#b1c6bbd34c)"><g clip-path="url(#fdd1e514c0)"><g transform="matrix(1, 0, 0, 1, 240, 146)"><g clip-path="url(#e45b3d01ed)"><g clip-path="url(#395cc77787)"><g clip-path="url(#87a2c05ade)"><g clip-path="url(#50fc660770)"><path fill="#38b6ff" d="M 39.710938 0.386719 L 43.546875 69.546875 L 2.9375 71.800781 L -0.898438 2.636719 Z M 39.710938 0.386719 " fill-opacity="1" fill-rule="nonzero"/></g></g></g></g></g></g></g></g><g clip-path="url(#9891eca6c0)"><g transform="matrix(1, 0, 0, 1, 242, 211)"><g clip-path="url(#f5b8bdbb3e)"><g clip-path="url(#2c5faa6d43)"><path fill="#e6e6dd" d="M 0.078125 0.589844 L 5.652344 0.589844 L 5.652344 20.265625 L 0.078125 20.265625 Z M 0.078125 0.589844 " fill-opacity="1" fill-rule="nonzero"/></g></g></g></g><g fill="#e6e6dd" fill-opacity="1"><g transform="translate(4.753649, 246.558617)"><g><path d="M 2.9375 0.09375 C 1.988281 0.09375 1.300781 -0.140625 0.875 -0.609375 C 0.457031 -1.078125 0.25 -1.832031 0.25 -2.875 L 0.25 -3.890625 L 2.296875 -3.890625 L 2.296875 -2.59375 C 2.296875 -2.070312 2.460938 -1.8125 2.796875 -1.8125 C 2.984375 -1.8125 3.113281 -1.863281 3.1875 -1.96875 C 3.257812 -2.082031 3.296875 -2.269531 3.296875 -2.53125 C 3.296875 -2.875 3.253906 -3.15625 3.171875 -3.375 C 3.085938 -3.59375 2.984375 -3.773438 2.859375 -3.921875 C 2.734375 -4.078125 2.507812 -4.3125 2.1875 -4.625 L 1.296875 -5.515625 C 0.597656 -6.191406 0.25 -6.945312 0.25 -7.78125 C 0.25 -8.664062 0.453125 -9.335938 0.859375 -9.796875 C 1.273438 -10.265625 1.875 -10.5 2.65625 -10.5 C 3.59375 -10.5 4.265625 -10.25 4.671875 -9.75 C 5.085938 -9.257812 5.296875 -8.484375 5.296875 -7.421875 L 3.171875 -7.421875 L 3.15625 -8.140625 C 3.15625 -8.273438 3.117188 -8.378906 3.046875 -8.453125 C 2.972656 -8.535156 2.863281 -8.578125 2.71875 -8.578125 C 2.5625 -8.578125 2.441406 -8.53125 2.359375 -8.4375 C 2.273438 -8.351562 2.234375 -8.238281 2.234375 -8.09375 C 2.234375 -7.75 2.429688 -7.394531 2.828125 -7.03125 L 4.03125 -5.875 C 4.3125 -5.601562 4.546875 -5.34375 4.734375 -5.09375 C 4.921875 -4.84375 5.070312 -4.550781 5.1875 -4.21875 C 5.300781 -3.882812 5.359375 -3.488281 5.359375 -3.03125 C 5.359375 -2 5.164062 -1.21875 4.78125 -0.6875 C 4.40625 -0.164062 3.789062 0.09375 2.9375 0.09375 Z M 2.9375 0.09375 "/></g></g></g><g fill="#e6e6dd" fill-opacity="1"><g transform="translate(10.334291, 246.558617)"><g/></g></g><g fill="#e6e6dd" fill-opacity="1"><g transform="translate(13.166978, 246.558617)"><g><path d="M 0.453125 0 L 0.453125 -10.40625 L 2.515625 -10.40625 L 2.515625 -6.234375 L 3.484375 -10.40625 L 5.578125 -10.40625 L 4.421875 -5.640625 L 5.828125 0 L 3.671875 0 L 2.53125 -5.03125 L 2.53125 0 Z M 0.453125 0 "/></g></g></g><g fill="#e6e6dd" fill-opacity="1"><g transform="translate(18.880784, 246.558617)"><g><path d="M 0.1875 0 L 1.1875 -10.40625 L 4.703125 -10.40625 L 5.703125 0 L 3.734375 0 L 3.578125 -1.6875 L 2.328125 -1.6875 L 2.203125 0 Z M 2.484375 -3.34375 L 3.421875 -3.34375 L 2.96875 -8.640625 L 2.875 -8.640625 Z M 2.484375 -3.34375 "/></g></g></g><g fill="#e6e6dd" fill-opacity="1"><g transform="translate(24.751957, 246.558617)"><g><path d="M 0.453125 -10.40625 L 3.203125 -10.40625 C 4.035156 -10.40625 4.628906 -10.132812 4.984375 -9.59375 C 5.335938 -9.0625 5.515625 -8.273438 5.515625 -7.234375 C 5.515625 -6.203125 5.359375 -5.421875 5.046875 -4.890625 C 4.734375 -4.367188 4.171875 -4.109375 3.359375 -4.109375 L 2.5 -4.109375 L 2.5 0 L 0.453125 0 Z M 2.625 -6 C 2.875 -6 3.054688 -6.039062 3.171875 -6.125 C 3.296875 -6.21875 3.375 -6.351562 3.40625 -6.53125 C 3.445312 -6.707031 3.46875 -6.957031 3.46875 -7.28125 C 3.46875 -7.71875 3.414062 -8.03125 3.3125 -8.21875 C 3.21875 -8.414062 3.023438 -8.515625 2.734375 -8.515625 L 2.5 -8.515625 L 2.5 -6 Z M 2.625 -6 "/></g></g></g><g fill="#e6e6dd" fill-opacity="1"><g transform="translate(30.465763, 246.558617)"><g><path d="M 0.453125 0 L 0.453125 -10.40625 L 4.625 -10.40625 L 4.625 -8.390625 L 2.578125 -8.390625 L 2.578125 -6.375 L 4.546875 -6.375 L 4.546875 -4.40625 L 2.578125 -4.40625 L 2.578125 -2.015625 L 4.765625 -2.015625 L 4.765625 0 Z M 0.453125 0 "/></g></g></g><g fill="#e6e6dd" fill-opacity="1"><g transform="translate(35.453235, 246.558617)"><g><path d="M 0.453125 0 L 0.453125 -10.40625 L 2.546875 -10.40625 L 2.546875 -1.765625 L 4.6875 -1.765625 L 4.6875 0 Z M 0.453125 0 "/></g></g></g><g fill="#e6e6dd" fill-opacity="1"><g transform="translate(40.259124, 246.558617)"><g><path d="M 2.9375 0.09375 C 2.101562 0.09375 1.46875 -0.160156 1.03125 -0.671875 C 0.59375 -1.179688 0.375 -1.898438 0.375 -2.828125 L 0.375 -7.78125 C 0.375 -8.675781 0.59375 -9.351562 1.03125 -9.8125 C 1.46875 -10.269531 2.101562 -10.5 2.9375 -10.5 C 3.78125 -10.5 4.421875 -10.269531 4.859375 -9.8125 C 5.296875 -9.351562 5.515625 -8.675781 5.515625 -7.78125 L 5.515625 -2.828125 C 5.515625 -1.890625 5.296875 -1.164062 4.859375 -0.65625 C 4.421875 -0.15625 3.78125 0.09375 2.9375 0.09375 Z M 2.9375 -1.8125 C 3.125 -1.8125 3.25 -1.890625 3.3125 -2.046875 C 3.382812 -2.210938 3.421875 -2.441406 3.421875 -2.734375 L 3.421875 -7.828125 C 3.421875 -8.046875 3.390625 -8.222656 3.328125 -8.359375 C 3.265625 -8.503906 3.140625 -8.578125 2.953125 -8.578125 C 2.609375 -8.578125 2.4375 -8.316406 2.4375 -7.796875 L 2.4375 -2.71875 C 2.4375 -2.425781 2.472656 -2.203125 2.546875 -2.046875 C 2.617188 -1.890625 2.75 -1.8125 2.9375 -1.8125 Z M 2.9375 -1.8125 "/></g></g></g><g fill="#e6e6dd" fill-opacity="1"><g transform="translate(46.142406, 246.558617)"><g><path d="M 2.875 0.09375 C 2.019531 0.09375 1.382812 -0.144531 0.96875 -0.625 C 0.550781 -1.113281 0.34375 -1.832031 0.34375 -2.78125 L 0.34375 -10.40625 L 2.359375 -10.40625 L 2.359375 -2.875 C 2.359375 -2.539062 2.390625 -2.28125 2.453125 -2.09375 C 2.523438 -1.90625 2.664062 -1.8125 2.875 -1.8125 C 3.082031 -1.8125 3.21875 -1.898438 3.28125 -2.078125 C 3.34375 -2.265625 3.375 -2.53125 3.375 -2.875 L 3.375 -10.40625 L 5.40625 -10.40625 L 5.40625 -2.78125 C 5.40625 -1.832031 5.195312 -1.113281 4.78125 -0.625 C 4.363281 -0.144531 3.726562 0.09375 2.875 0.09375 Z M 2.875 0.09375 "/></g></g></g><g fill="#e6e6dd" fill-opacity="1"><g transform="translate(51.880427, 246.558617)"><g/></g></g><g fill="#e6e6dd" fill-opacity="1"><g transform="translate(54.713114, 246.558617)"><g><path d="M 1.421875 0 L 0.140625 -10.40625 L 2.125 -10.40625 L 2.875 -3.328125 L 3.5625 -10.40625 L 5.546875 -10.40625 L 4.265625 0 Z M 1.421875 0 "/></g></g></g><g fill="#e6e6dd" fill-opacity="1"><g transform="translate(60.390608, 246.558617)"><g/></g></g><g fill="#e6e6dd" fill-opacity="1"><g transform="translate(63.223295, 246.558617)"><g><path d="M 0.453125 0 L 0.453125 -10.40625 L 2.515625 -10.40625 L 2.515625 -6.234375 L 3.484375 -10.40625 L 5.578125 -10.40625 L 4.421875 -5.640625 L 5.828125 0 L 3.671875 0 L 2.53125 -5.03125 L 2.53125 0 Z M 0.453125 0 "/></g></g></g><g fill="#e6e6dd" fill-opacity="1"><g transform="translate(68.937101, 246.558617)"><g><path d="M 0.453125 -10.40625 L 3.65625 -10.40625 C 4.164062 -10.40625 4.554688 -10.289062 4.828125 -10.0625 C 5.109375 -9.832031 5.296875 -9.507812 5.390625 -9.09375 C 5.492188 -8.675781 5.546875 -8.144531 5.546875 -7.5 C 5.546875 -6.90625 5.46875 -6.441406 5.3125 -6.109375 C 5.15625 -5.785156 4.890625 -5.554688 4.515625 -5.421875 C 4.828125 -5.359375 5.050781 -5.203125 5.1875 -4.953125 C 5.332031 -4.703125 5.40625 -4.363281 5.40625 -3.9375 L 5.390625 0 L 3.359375 0 L 3.359375 -4.0625 C 3.359375 -4.351562 3.300781 -4.539062 3.1875 -4.625 C 3.070312 -4.707031 2.863281 -4.75 2.5625 -4.75 L 2.5625 0 L 0.453125 0 Z M 3.078125 -6.546875 C 3.367188 -6.546875 3.515625 -6.863281 3.515625 -7.5 C 3.515625 -7.769531 3.5 -7.972656 3.46875 -8.109375 C 3.445312 -8.242188 3.40625 -8.335938 3.34375 -8.390625 C 3.28125 -8.441406 3.1875 -8.46875 3.0625 -8.46875 L 2.578125 -8.46875 L 2.578125 -6.546875 Z M 3.078125 -6.546875 "/></g></g></g><g fill="#e6e6dd" fill-opacity="1"><g transform="translate(74.711434, 246.558617)"><g><path d="M 0.1875 0 L 1.1875 -10.40625 L 4.703125 -10.40625 L 5.703125 0 L 3.734375 0 L 3.578125 -1.6875 L 2.328125 -1.6875 L 2.203125 0 Z M 2.484375 -3.34375 L 3.421875 -3.34375 L 2.96875 -8.640625 L 2.875 -8.640625 Z M 2.484375 -3.34375 "/></g></g></g><g fill="#e6e6dd" fill-opacity="1"><g transform="translate(80.582608, 246.558617)"><g><path d="M 0.453125 -10.40625 L 3.28125 -10.40625 C 4.039062 -10.40625 4.59375 -10.21875 4.9375 -9.84375 C 5.28125 -9.46875 5.453125 -8.863281 5.453125 -8.03125 L 5.453125 -7.5625 C 5.453125 -6.570312 5.097656 -5.976562 4.390625 -5.78125 C 4.816406 -5.675781 5.117188 -5.414062 5.296875 -5 C 5.472656 -4.59375 5.5625 -4.046875 5.5625 -3.359375 C 5.5625 -2.253906 5.394531 -1.414062 5.0625 -0.84375 C 4.738281 -0.28125 4.144531 0 3.28125 0 L 0.453125 0 Z M 2.921875 -6.484375 C 3.097656 -6.484375 3.21875 -6.550781 3.28125 -6.6875 C 3.34375 -6.820312 3.375 -7.007812 3.375 -7.25 L 3.375 -8.296875 C 3.375 -8.628906 3.226562 -8.796875 2.9375 -8.796875 L 2.5 -8.796875 L 2.5 -6.484375 Z M 2.703125 -1.828125 C 3.242188 -1.828125 3.515625 -2.085938 3.515625 -2.609375 L 3.515625 -3.90625 C 3.515625 -4.21875 3.46875 -4.453125 3.375 -4.609375 C 3.28125 -4.773438 3.113281 -4.859375 2.875 -4.859375 L 2.5 -4.859375 L 2.5 -1.84375 Z M 2.703125 -1.828125 "/></g></g></g><g fill="#e6e6dd" fill-opacity="1"><g transform="translate(86.381157, 246.558617)"><g><path d="M 0.359375 0 L 0.359375 -10.40625 L 2.375 -10.40625 L 2.375 0 Z M 0.359375 0 "/></g></g></g><g fill="#e6e6dd" fill-opacity="1"><g transform="translate(89.129112, 246.558617)"><g><path d="M 2.875 0.09375 C 2.125 0.09375 1.519531 -0.140625 1.0625 -0.609375 C 0.601562 -1.085938 0.375 -1.742188 0.375 -2.578125 L 0.375 -7.375 C 0.375 -8.40625 0.578125 -9.179688 0.984375 -9.703125 C 1.398438 -10.234375 2.050781 -10.5 2.9375 -10.5 C 3.695312 -10.5 4.3125 -10.285156 4.78125 -9.859375 C 5.25 -9.441406 5.484375 -8.835938 5.484375 -8.046875 L 5.484375 -6.265625 L 3.421875 -6.265625 L 3.421875 -7.796875 C 3.421875 -8.097656 3.382812 -8.300781 3.3125 -8.40625 C 3.238281 -8.519531 3.113281 -8.578125 2.9375 -8.578125 C 2.75 -8.578125 2.617188 -8.515625 2.546875 -8.390625 C 2.484375 -8.265625 2.453125 -8.078125 2.453125 -7.828125 L 2.453125 -2.609375 C 2.453125 -2.328125 2.488281 -2.125 2.5625 -2 C 2.644531 -1.875 2.769531 -1.8125 2.9375 -1.8125 C 3.257812 -1.8125 3.421875 -2.078125 3.421875 -2.609375 L 3.421875 -4.484375 L 5.515625 -4.484375 L 5.515625 -2.515625 C 5.515625 -0.773438 4.632812 0.09375 2.875 0.09375 Z M 2.875 0.09375 "/></g></g></g><g fill="#e6e6dd" fill-opacity="1"><g transform="translate(94.867134, 246.558617)"><g><path d="M 0.359375 0 L 0.359375 -10.40625 L 2.375 -10.40625 L 2.375 0 Z M 0.359375 0 "/></g></g></g></svg>